<svg width="61" height="60" viewBox="0 0 61 60" fill="none" xmlns="http://www.w3.org/2000/svg">
<path d="M0.666504 20C0.666504 8.9543 9.62081 0 20.6665 0H40.6665C51.7122 0 60.6665 8.95431 60.6665 20V40C60.6665 51.0457 51.7122 60 40.6665 60H20.6665C9.62081 60 0.666504 51.0457 0.666504 40V20Z" fill="#60C3E3"/>
<path d="M22.2668 43.2001C22.9033 43.2001 23.5138 42.9473 23.9639 42.4972C24.414 42.0471 24.6668 41.4366 24.6668 40.8001V31.2001C24.6668 30.5636 24.414 29.9531 23.9639 29.503C23.5138 29.0529 22.9033 28.8 22.2668 28.8H19.8668C19.2303 28.8 18.6198 29.0529 18.1698 29.503C17.7197 29.9531 17.4668 30.5636 17.4668 31.2001V40.8001C17.4668 41.4366 17.7197 42.0471 18.1698 42.4972C18.6198 42.9473 19.2303 43.2001 19.8668 43.2001H22.2668ZM19.8668 31.2001H22.2668V40.8001H19.8668V31.2001Z" fill="white"/>
<path d="M41.4665 43.2001C42.103 43.2001 42.7135 42.9473 43.1636 42.4972C43.6137 42.0471 43.8665 41.4366 43.8665 40.8V19.2001C43.8665 18.5636 43.6137 17.9531 43.1636 17.503C42.7135 17.0529 42.103 16.8 41.4665 16.8H39.0665C38.43 16.8 37.8196 17.0529 37.3695 17.503C36.9194 17.9531 36.6665 18.5636 36.6665 19.2001V40.8C36.6665 41.4366 36.9194 42.0471 37.3695 42.4972C37.8196 42.9473 38.43 43.2001 39.0665 43.2001H41.4665ZM39.0665 19.2001H41.4665V40.8H39.0665V19.2001Z" fill="white"/>
<path d="M31.8668 43.2C32.5034 43.2 33.1138 42.9471 33.5639 42.4971C34.014 42.047 34.2668 41.4365 34.2668 40.8V26.4C34.2668 25.7635 34.014 25.153 33.5639 24.7029C33.1138 24.2529 32.5034 24 31.8668 24H29.4669C28.8303 24 28.2199 24.2529 27.7698 24.7029C27.3197 25.153 27.0669 25.7635 27.0669 26.4V40.8C27.0669 41.4365 27.3197 42.047 27.7698 42.4971C28.2199 42.9471 28.8303 43.2 29.4669 43.2H31.8668ZM29.4669 26.4H31.8668V40.8H29.4669V26.4Z" fill="white"/>
</svg>
