<svg width="61" height="60" viewBox="0 0 61 60" fill="none" xmlns="http://www.w3.org/2000/svg">
<path d="M0.666626 20C0.666626 8.9543 9.62093 0 20.6666 0H40.6666C51.7123 0 60.6666 8.95431 60.6666 20V40C60.6666 51.0457 51.7123 60 40.6666 60H20.6666C9.62093 60 0.666626 51.0457 0.666626 40V20Z" fill="#E86339"/>
<path d="M22.2666 43.2001C22.9031 43.2001 23.5136 42.9472 23.9637 42.4971C24.4138 42.047 24.6666 41.4366 24.6666 40.8001V31.2C24.6666 30.5635 24.4138 29.9531 23.9637 29.503C23.5136 29.0529 22.9031 28.8 22.2666 28.8H19.8666C19.2301 28.8 18.6196 29.0529 18.1696 29.503C17.7195 29.9531 17.4666 30.5635 17.4666 31.2V40.8001C17.4666 41.4366 17.7195 42.047 18.1696 42.4971C18.6196 42.9472 19.2301 43.2001 19.8666 43.2001H22.2666ZM19.8666 31.2H22.2666V40.8001H19.8666V31.2Z" fill="white"/>
<path d="M41.4666 43.2001C42.1031 43.2001 42.7136 42.9472 43.1637 42.4971C43.6138 42.047 43.8666 41.4366 43.8666 40.8V19.2C43.8666 18.5635 43.6138 17.9531 43.1637 17.503C42.7136 17.0529 42.1031 16.8 41.4666 16.8H39.0666C38.4301 16.8 37.8197 17.0529 37.3696 17.503C36.9195 17.9531 36.6666 18.5635 36.6666 19.2V40.8C36.6666 41.4366 36.9195 42.047 37.3696 42.4971C37.8197 42.9472 38.4301 43.2001 39.0666 43.2001H41.4666ZM39.0666 19.2H41.4666V40.8H39.0666V19.2Z" fill="white"/>
<path d="M31.8666 43.2C32.5032 43.2 33.1136 42.9471 33.5637 42.4971C34.0138 42.047 34.2666 41.4365 34.2666 40.8V26.4C34.2666 25.7635 34.0138 25.153 33.5637 24.7029C33.1136 24.2529 32.5032 24 31.8666 24H29.4667C28.8301 24 28.2197 24.2529 27.7696 24.7029C27.3195 25.153 27.0667 25.7635 27.0667 26.4V40.8C27.0667 41.4365 27.3195 42.047 27.7696 42.4971C28.2197 42.9471 28.8301 43.2 29.4667 43.2H31.8666ZM29.4667 26.4H31.8666V40.8H29.4667V26.4Z" fill="white"/>
</svg>
