<svg width="61" height="60" viewBox="0 0 61 60" fill="none" xmlns="http://www.w3.org/2000/svg">
<path d="M0.333496 20C0.333496 8.9543 9.2878 0 20.3335 0H40.3335C51.3792 0 60.3335 8.95431 60.3335 20V40C60.3335 51.0457 51.3792 60 40.3335 60H20.3335C9.2878 60 0.333496 51.0457 0.333496 40V20Z" fill="#60C3E3"/>
<path d="M43.1795 19.554C42.9547 19.3305 42.6505 19.2051 42.3335 19.2051C42.0165 19.2051 41.7123 19.3305 41.4875 19.554L30.3335 30.702L26.3795 26.754C26.1499 26.5574 25.8546 26.4547 25.5526 26.4664C25.2506 26.478 24.9641 26.6032 24.7504 26.817C24.5367 27.0307 24.4115 27.3172 24.3998 27.6192C24.3882 27.9212 24.4909 28.2165 24.6875 28.446L29.4875 33.246C29.7123 33.4695 30.0165 33.595 30.3335 33.595C30.6505 33.595 30.9547 33.4695 31.1795 33.246L43.1795 21.246C43.403 21.0212 43.5284 20.7171 43.5284 20.4C43.5284 20.083 43.403 19.7789 43.1795 19.554Z" fill="white"/>
<path d="M43.2693 27.354C43.2057 27.0421 43.0207 26.7682 42.7552 26.5927C42.4896 26.4172 42.1652 26.3543 41.8533 26.418C41.5414 26.4816 41.2676 26.6666 41.092 26.9321C40.9165 27.1977 40.8537 27.5221 40.9173 27.834C41.4117 30.2484 41.0655 32.7593 39.9361 34.9498C38.8068 37.1404 36.9621 38.8787 34.7085 39.8763C32.4549 40.8739 29.9279 41.0708 27.5471 40.4341C25.1662 39.7975 23.0746 38.3657 21.6197 36.3765C20.1648 34.3872 19.4339 31.9602 19.5486 29.4983C19.6632 27.0365 20.6164 24.6879 22.2499 22.8424C23.8834 20.997 26.0989 19.7658 28.5286 19.3531C30.9584 18.9405 33.4562 19.3713 35.6073 20.574C35.885 20.7331 36.2145 20.7754 36.5234 20.6916C36.8323 20.6078 37.0952 20.4047 37.2543 20.127C37.4134 19.8493 37.4557 19.5198 37.3719 19.2109C37.2881 18.902 37.085 18.6391 36.8073 18.48C34.2811 17.0582 31.357 16.5076 28.4867 16.9132C25.6163 17.3187 22.9593 18.6578 20.9258 20.7238C18.8923 22.7898 17.5955 25.4677 17.2355 28.3441C16.8755 31.2205 17.4724 34.1355 18.934 36.6389C20.3956 39.1423 22.6407 41.0949 25.3226 42.1953C28.0044 43.2957 30.974 43.4827 33.7727 42.7274C36.5714 41.9721 39.0437 40.3164 40.8078 38.0162C42.5718 35.7159 43.5297 32.8988 43.5333 30C43.5328 29.1114 43.4444 28.2251 43.2693 27.354Z" fill="white"/>
</svg>
