<svg width="405" height="460" viewBox="0 0 405 460" fill="none" xmlns="http://www.w3.org/2000/svg">
<g clip-path="url(#clip0_213_12544)">
<path d="M367.759 156.176C367.06 154.314 365.72 151.343 361.241 145.933C356.581 140.351 351.267 135.349 345.414 131.035C340.265 127.179 336.485 124.349 330.517 121.723C324.079 118.787 317.108 117.203 310.034 117.067C307.217 117.084 304.408 117.396 301.655 117.998C298.424 118.696 296.339 119.181 294.207 120.792C292.075 122.403 292.466 123.362 290.483 124.516C287.596 126.192 285.967 124.693 283.034 126.379C281.694 127.152 282.048 127.459 279.31 130.103C277.554 131.778 275.688 133.334 273.724 134.759C269.674 137.823 269.404 137.441 267.207 139.415C265.324 140.975 263.746 142.869 262.552 145.002C261.621 146.809 260.178 149.425 260.69 152.452C260.764 152.908 260.783 152.731 262.552 157.107C263.175 158.653 263.79 160.208 264.414 161.763L266.276 166.419C266.276 166.419 268.138 169.092 262.747 179.018C267.477 173.237 271.046 166.597 273.259 159.463C273.808 157.471 274.115 155.739 275.121 152.945C277.691 145.9 281.83 139.531 287.224 134.322C285.828 145.03 294.207 160.86 300.724 165.516C305.138 168.808 309.194 172.553 312.828 176.69C315.621 184.139 316.552 181.346 316.552 181.346C312.828 172.034 324.931 168.309 327.724 182.277C330.517 196.245 316.552 199.038 316.552 199.038C319.401 202.465 320.145 205.352 320.276 207.419C320.378 209.113 320.015 209.421 320.276 211.143C320.415 212.075 320.806 213.89 324 218.593C325.918 221.386 326.877 222.83 327.724 223.249C331.383 225.046 336.103 221.973 337.034 221.386C339.083 220.064 339.772 218.919 343.552 213.937C348.477 207.419 347.928 208.573 350.069 205.556C352.806 201.701 353.058 200.77 357.517 193.451C362.992 184.465 363.103 185.071 364.965 181.346C367.6 176.075 369.351 172.49 369.621 167.378C369.76 163.557 369.126 159.747 367.759 156.176ZM267.207 156.493L266.276 156.781C266.276 156.67 262.552 145.16 273.957 139.462L274.376 140.29C263.706 145.635 267.142 156.381 267.207 156.493ZM311.692 164.026C294.933 154.714 293.779 134.973 293.769 134.778L294.7 134.731C294.7 134.927 295.818 154.137 312.148 163.216L311.692 164.026ZM331.783 216.172C331.43 216.169 331.079 216.115 330.741 216.013C325.964 214.561 323.665 203.34 323.572 202.856L324.503 202.679C324.503 202.791 326.784 213.853 331.02 215.12C332.221 215.483 333.515 214.98 334.874 213.611L335.535 214.272C335.06 214.818 334.481 215.263 333.832 215.583C333.184 215.903 332.478 216.09 331.755 216.135L331.783 216.172ZM340.34 174.045C338.478 168.579 329.307 153.811 329.214 153.662L330.005 153.169C330.387 153.783 339.371 168.179 341.224 173.757L340.34 174.045ZM344.855 199.355L344.166 198.731C352.266 189.726 351.503 183.339 351.493 183.283L352.424 183.152C352.424 183.385 353.253 189.959 344.827 199.318L344.855 199.355ZM352.424 168.347C349.687 127.375 300.286 126.881 299.821 126.881V125.95C300.324 125.95 350.562 126.435 353.355 168.281L352.424 168.347Z" fill="black"/>
<path d="M245.498 234L247.498 225.5L248.498 218C248.498 217.77 248.74 217.621 248.946 217.724L251.498 219L265.498 225L285.998 234L300.498 240.5L300.847 240.674C301.27 240.886 301.613 241.229 301.824 241.651C301.939 241.882 302.013 242.131 302.041 242.387L302.299 244.708C302.428 245.866 302.144 247.031 301.498 248L300.632 249.444C300.211 250.145 299.706 250.792 299.128 251.37L297.998 252.5L295.498 254.5L294.593 255.103C294.198 255.367 293.77 255.576 293.32 255.726L292.548 255.983C292.515 255.994 292.481 256 292.446 256C292.226 256 292.07 256.216 292.14 256.425L292.498 257.5L293.998 261L295.498 264.5L296.998 268L298.498 272L299.998 276L301.377 281.975C301.458 282.324 301.498 282.681 301.498 283.039V284.827C301.498 284.938 301.542 285.044 301.62 285.122C301.812 285.314 302.134 285.275 302.273 285.042L303.498 283L304.095 281.807C304.363 281.27 304.679 280.759 305.039 280.279L305.998 279L307.072 277.569C307.356 277.19 307.666 276.832 308.001 276.497L309.998 274.5L312.498 272.5L315.498 270.5L318.498 269L321.998 267.5L325.498 266.5L328.977 266.003C328.991 266.001 329.005 266 329.019 266C329.239 266 329.382 265.768 329.284 265.572L326.998 261L324.498 255.5L324.154 254.466C323.991 253.977 324.599 253.601 324.964 253.966C324.987 253.989 325.012 254.009 325.039 254.027L326.557 255.039C327.511 255.675 328.567 256.142 329.679 256.42L331.001 256.751C331.663 256.916 332.344 257 333.027 257H334.535C334.84 257 335.14 256.929 335.413 256.793C335.793 256.603 336.101 256.295 336.291 255.915L340.498 247.5L343.998 241L346.451 235.604C346.482 235.535 346.526 235.473 346.579 235.419C346.814 235.184 347.193 235.173 347.442 235.394L355.998 243L364.498 250.5L373.998 261L382.498 272.5L388.498 283.5L391.998 292L394.73 300.196C394.909 300.731 395.041 301.28 395.127 301.838L396.998 314L398.498 323L399.998 333.5L400.998 343.5L401.998 351L402.498 358.5L402.998 365.5L403.498 370L403.998 374.5V379.5V383.5C403.998 384.152 403.805 384.79 403.444 385.332L403.23 385.652C403.076 385.884 402.899 386.099 402.703 386.296L402.661 386.337C402.225 386.773 401.694 387.101 401.109 387.296C400.705 387.431 400.281 387.5 399.854 387.5H399.361C398.788 387.5 398.217 387.43 397.661 387.291L397.441 387.236C396.814 387.079 396.207 386.854 395.629 386.565L395.134 386.318C394.711 386.106 394.273 385.925 393.824 385.775L392.998 385.5L389.498 384.5L386.061 383.518C386.019 383.506 385.977 383.5 385.934 383.5C385.689 383.5 385.487 383.69 385.472 383.934L380.998 458.5C380.998 459.328 380.327 460 379.498 460H273.406C272.437 460 271.726 459.09 271.961 458.15C271.986 458.05 272 457.948 272.004 457.846L272.498 445L272.998 433.5L274.998 403L275.998 386L277.998 357.5L278.998 338.5L279.498 330.5V323.5L280.498 309L280.998 300.5L281.998 288.5C281.998 288.197 281.818 287.923 281.539 287.803L278.498 286.5L272.498 284L264.998 281L250.498 275.5L239.998 271L233.164 268.559C233.055 268.52 232.956 268.457 232.874 268.375C232.647 268.149 232.581 267.807 232.707 267.512L236.998 257.5L240.998 248.5L243.498 242L245.498 234Z" fill="url(#paint0_linear_213_12544)" stroke="black"/>
<path d="M359.508 452.967L359.05 457.493C359.022 457.764 359.235 458 359.508 458H380.904C381.185 458 381.413 457.772 381.413 457.491V453.974L381.923 448.437L382.942 435.854L383.451 428.305L383.961 419.245L384.47 411.192L384.979 403.642L385.489 396.093L385.998 387.536V385.033C385.998 384.703 385.866 384.386 385.631 384.154C385.537 384.061 385.428 383.983 385.31 383.925L384.992 383.768C384.646 383.597 384.275 383.486 383.893 383.439L380.395 383.007L373.262 382.503L366.64 382H361.545C361.264 382 361.036 382.228 361.036 382.509V386.53V392.57V406.662V418.742L360.527 431.828L360.017 439.377V446.424L359.508 452.967Z" fill="white" stroke="black"/>
<path d="M105.942 184.856C105.058 182.445 102.982 180.983 101.287 181.597C99.5927 182.212 98.9317 184.67 99.8162 187.082C100.701 189.494 102.777 190.965 104.471 190.35C106.166 189.736 106.818 187.277 105.942 184.856ZM102.861 186.821C102.358 187.007 101.743 186.57 101.483 185.89C101.222 185.21 101.418 184.447 101.92 184.27C102.423 184.093 103.038 184.521 103.289 185.201C103.54 185.881 103.345 186.644 102.861 186.821ZM104.723 187.864C104.598 187.831 104.488 187.757 104.411 187.654C104.333 187.551 104.292 187.425 104.294 187.296C104.294 187.017 104.481 186.831 104.713 186.868C104.838 186.901 104.948 186.975 105.025 187.078C105.103 187.181 105.144 187.307 105.142 187.436C105.207 187.715 104.974 187.901 104.741 187.864H104.723Z" fill="black"/>
<path d="M125.69 312.614C126.608 309.601 126.925 306.437 126.621 303.302C126.198 300.657 125.248 298.123 123.828 295.853C122.357 293.161 117.096 283.487 115.448 273.504C115.234 272.229 115.15 268.467 114.983 260.934C114.862 255.44 114.759 250.933 114.983 245.104C115.104 241.872 115.309 238.753 115.569 235.792C114.949 235.922 114.288 236.09 113.586 236.295C110.172 237.127 106.99 238.719 104.276 240.951C100.421 244.331 98.9783 248.558 97.7586 252.125C96.4831 255.849 95.7476 261.381 95.6079 261.436C94.2114 262.125 103.913 277.201 108.931 289.372C111.808 296.355 114.108 304.661 115.448 325.687C116.053 335.148 116.296 344.553 116.296 353.623C124.945 346.993 125.708 341.908 125.69 339.655C125.534 337.155 125.224 334.667 124.759 332.206C123.576 325.268 122.533 324.356 122.897 321.032C123.26 317.707 124.349 318.061 125.69 312.614ZM116.826 295.964L115.895 295.732C116.342 293.944 115.43 290.284 113.316 285.423C112.748 284.171 112.092 282.96 111.352 281.801C105.002 271.558 107.404 247.469 107.507 246.417L108.438 246.519C108.438 246.761 105.97 271.279 112.162 281.289C112.925 282.481 113.603 283.726 114.191 285.014C115.746 288.664 117.469 293.413 116.826 295.964ZM119.498 344.6L118.837 343.938C118.837 343.938 122.347 340.288 120.578 333.211L121.509 332.978C123.39 340.605 119.657 344.441 119.498 344.6ZM120.429 315.733L119.712 315.137C120.969 313.691 121.735 311.884 121.902 309.976C122.069 308.068 121.629 306.155 120.643 304.512L121.416 304C122.5 305.8 122.99 307.895 122.818 309.989C122.646 312.083 121.82 314.069 120.457 315.668L120.429 315.733ZM112.655 164.557C110.448 160.424 107.249 156.904 103.345 154.314C100.915 152.61 97.7586 150.366 93.1035 149.658C92.0979 149.5 89.0255 149.556 82.8621 149.658C79.3521 149.714 78.3466 149.77 76.3448 149.658C72.4252 149.435 72.0993 148.978 68.8966 148.727C64.8383 148.443 60.7602 148.756 56.7931 149.658C54.5822 150.135 52.4051 150.757 50.2759 151.521C45.7401 152.901 41.3692 154.775 37.2414 157.108C31.6207 160.287 26.8344 164.755 23.2759 170.144C19.9335 175.321 18.7417 179.996 17.6897 184.112C16.4722 188.985 15.847 193.987 15.8276 199.01C15.8832 203.37 16.1941 207.723 16.7586 212.047C17.4662 218.491 17.8479 218.798 17.6897 221.359C17.3203 225.612 16.0509 229.738 13.9655 233.464C12.0011 237.356 11.4983 236.807 6.98277 244.172C3.51002 249.825 2.78381 251.817 2.3276 253.484C1.6109 256.217 1.29724 259.041 1.39657 261.865C1.49537 264.062 1.80718 266.245 2.3276 268.383C2.99795 271.484 3.48209 272.517 5.12071 277.695C6.75933 282.872 7.62519 285.666 7.91381 287.938C8.25967 290.72 8.25967 293.535 7.91381 296.318C7.58795 298.898 6.75933 301.486 5.12071 306.561C3.34243 312.046 3.15622 311.925 2.3276 314.942C1.27718 318.264 0.651519 321.705 0.465534 325.185C0.354342 328.316 0.66753 331.449 1.39657 334.496C2.11613 337.784 3.37449 340.931 5.12071 343.808C7.32121 347.7 10.5398 350.919 14.4311 353.12C17.8705 354.951 21.7069 355.911 25.6035 355.913C28.7997 355.917 31.9647 355.283 34.9138 354.051L36.6642 352.691C37.2228 348.687 37.8559 344.804 38.1724 341.517C39.2541 329.241 41.4353 317.087 44.6897 305.202C48.6652 290.47 51.9704 284.716 53.069 282.853C56.5708 277.19 60.6251 271.887 65.1724 267.023C70.6748 260.803 72.0714 260.3 77.2759 253.987C81.9869 248.26 84.5379 245.113 86.5862 240.019C88.3391 235.566 89.2849 230.837 89.3793 226.052C89.755 220.324 88.799 214.587 86.5862 209.291C85.588 206.988 84.3391 204.802 82.8621 202.772C84.3932 201.12 85.6504 199.234 86.5862 197.185C88.0104 194.298 88.6525 191.087 88.4483 187.874C88.2342 185.201 87.3683 183.302 85.6552 179.493C84.7083 177.404 83.6196 175.381 82.3966 173.44C81.8007 172.509 80.9162 171.252 76.8104 165.991C75.569 164.396 74.3276 162.844 73.0862 161.335L76.8104 160.404C81.2422 159.945 85.7187 160.585 89.8448 162.266C92.9762 163.563 95.823 165.461 98.2242 167.853C99.5928 169.241 100.84 171.103 103.345 174.837C105.849 178.571 105.728 178.823 107.069 180.424C108.81 182.738 111.034 184.645 113.586 186.011C114.454 184.241 115.081 182.362 115.448 180.424C116.863 172.817 113.772 166.68 112.655 164.557ZM20.3059 339.115C16.2322 337.251 13.0039 333.929 11.2562 329.803C9.39415 325.063 9.82243 319.56 12.6062 313.34C20.7993 295.126 19.1235 286.708 19.1235 286.625L20.0545 286.429C20.129 286.774 21.8514 295.173 13.5373 313.722C10.7814 319.672 10.3345 324.98 12.1035 329.449C13.777 333.332 16.8188 336.463 20.6504 338.249L20.3059 339.115ZM18.0621 244.899C9.05898 257.507 16.1442 268.467 16.2 268.578L15.4273 269.091C15.3528 268.979 7.91381 257.498 17.2893 244.359C26.1155 232.002 26.5066 229.776 26.5159 229.693H27.4469C27.4655 229.944 27.1955 232.114 18.0621 244.899ZM33.9828 311.701L33.0517 311.645C33.0517 310.984 34.0666 295.564 40.6304 288.99L41.2914 289.651C34.9697 295.983 33.9921 311.552 33.9828 311.71V311.701ZM32.9959 203.452L32.1673 203.88C32.0369 203.62 19.2538 178.161 45.3507 159.519L45.8907 160.274C20.4828 178.459 32.8655 203.201 32.9959 203.452ZM76.7545 206.246C77.0711 206.758 84.2028 218.91 65.5821 244.014C65.4052 244.2 52.5476 257.181 47.9576 269.966L47.0824 269.659C51.7376 256.669 64.7721 243.539 64.8745 243.409C83.0576 218.863 76.0469 206.86 75.9817 206.739L76.7545 206.246ZM73.0304 191.822L72.2204 191.366C76.6893 183.32 67.6676 168.71 67.5652 168.561L68.3566 168.068C68.7476 168.645 77.76 183.264 73.021 191.822H73.0304ZM108 175.293C107.741 171.607 106.616 168.034 104.717 164.865C102.818 161.695 100.198 159.018 97.0697 157.052L97.5166 156.232C100.778 158.278 103.512 161.064 105.495 164.365C107.479 167.666 108.656 171.387 108.931 175.228L108 175.293Z" fill="black"/>
<path d="M76.7917 254.536C71.9782 260.3 70.4979 260.961 65.1724 266.986C60.6251 271.85 56.5708 277.152 53.0689 282.816C51.9703 284.678 48.6651 290.433 44.6896 305.164C41.4352 317.05 39.2541 329.204 38.1724 341.48C37.3065 350.549 34.1224 363.754 36.3103 372.209C37.6696 377.507 60.4055 378.783 71.5965 379.099C70.0183 389.487 69.364 399.995 69.6413 410.498C109.294 416.542 113.661 411.802 113.707 410.042C113.707 409.111 113.707 408.245 113.782 407.342C115.476 388.327 117.506 357.226 115.448 325.65C114.108 304.624 111.808 296.318 108.931 289.334C104.788 279.277 97.4327 267.237 95.8034 262.973C84.8917 267.247 78.9238 258.605 76.7917 254.536Z" fill="#0046B3"/>
<path d="M100.403 413.916C93.8017 413.916 84.0352 413.162 69.5669 410.955L69.1852 410.899V410.508C68.9048 400.153 69.5279 389.793 71.0472 379.547C55.5827 379.081 37.1669 377.451 35.8448 372.321C34.2248 366.044 35.5096 357.217 36.6548 349.432C37.0738 346.564 37.4648 343.845 37.6976 341.434C38.7663 329.263 40.9193 317.212 44.131 305.425L44.2334 305.025C46.9334 295.024 49.7731 287.463 52.6686 282.555C56.4952 276.037 60.9176 271.065 64.8186 266.651C67.2952 263.857 68.9058 262.247 70.47 260.682C72.567 258.633 74.5559 256.476 76.4286 254.22L76.8755 253.68L77.2014 254.294C79.2124 258.14 85.0314 266.632 95.6358 262.517L96.0734 262.349L96.2317 262.787C96.9114 264.546 98.6431 267.778 100.635 271.512C103.429 276.754 106.948 283.282 109.359 289.139C112.441 296.588 114.62 305.341 115.877 325.594C117.431 349.954 116.873 377.461 114.21 407.361C114.155 407.98 114.133 408.602 114.145 409.223C114.145 409.493 114.145 409.763 114.145 410.033C114.117 410.351 114.019 410.658 113.858 410.934C113.697 411.209 113.477 411.445 113.214 411.625C112.013 412.706 108.745 413.916 100.403 413.916ZM70.0976 410.089C103.391 415.136 110.961 412.37 112.674 410.936C112.827 410.828 112.957 410.69 113.054 410.53C113.152 410.37 113.216 410.191 113.242 410.005C113.242 409.744 113.242 409.484 113.242 409.214C113.242 408.581 113.242 407.929 113.307 407.277C115.97 377.423 116.528 349.963 114.973 325.659C113.689 305.527 111.538 296.895 108.456 289.493C106.063 283.682 102.572 277.183 99.7696 271.949C97.8331 268.327 96.269 265.431 95.4962 263.569C84.9941 267.368 79.0169 259.574 76.6614 255.356C74.3058 258.149 72.7324 259.704 71.0751 261.362C69.4179 263.019 67.9189 264.519 65.4889 267.293C60.971 272.145 56.9447 277.432 53.4693 283.077C50.611 287.91 47.8086 295.396 45.09 305.313L44.9783 305.714C41.7911 317.444 39.6537 329.436 38.5914 341.545C38.3493 343.994 37.9583 346.713 37.5393 349.591C36.4127 357.291 35.1372 366.017 36.7107 372.116C37.6417 375.617 50.6762 378.066 71.5593 378.634H72.09L72.0062 379.155C70.4635 389.391 69.8248 399.742 70.0976 410.089Z" fill="black"/>
<path d="M63.0776 108.221C52.2784 108.209 41.925 103.913 34.2888 96.2753C26.6526 88.6379 22.3572 78.283 22.3448 67.4822C22.3448 56.7085 27.54 45.1899 36.599 35.8781C45.658 26.5664 57.0817 21.1562 67.7328 21.1562C78.532 21.1686 88.8854 25.4646 96.5216 33.102C104.158 40.7393 108.453 51.0943 108.466 61.8951C108.466 72.6595 103.27 84.1781 94.2114 93.4899C85.1524 102.802 73.7566 108.221 63.0776 108.221ZM67.7328 22.0874C46.1235 22.0874 23.2759 45.4133 23.2759 67.4822C23.2882 78.036 27.4855 88.1541 34.9471 95.6168C42.4087 103.08 52.5253 107.278 63.0776 107.29C84.6776 107.29 107.535 83.9546 107.535 61.8951C107.522 51.3412 103.325 41.2232 95.8633 33.7604C88.4016 26.2977 78.2851 22.0997 67.7328 22.0874ZM68.4311 123.12C65.3493 123.12 62.8449 119.982 62.8449 116.136C62.8449 112.29 65.3493 109.152 68.4311 109.152C71.5128 109.152 74.0173 112.281 74.0173 116.136C74.0173 119.991 71.5128 123.12 68.4311 123.12ZM68.4311 110.083C65.8614 110.083 63.7759 112.793 63.7759 116.136C63.7759 119.479 65.8614 122.189 68.4311 122.189C71.0007 122.189 73.0862 119.47 73.0862 116.136C73.0862 112.802 70.9914 110.083 68.4311 110.083ZM69.3621 140.812C67.3045 140.812 65.638 138.717 65.638 136.156C65.638 133.596 67.3045 131.5 69.3621 131.5C71.4197 131.5 73.0862 133.586 73.0862 136.156C73.0862 138.726 71.4104 140.812 69.3621 140.812ZM69.3621 132.432C67.8166 132.432 66.569 134.098 66.569 136.156C66.569 138.214 67.8166 139.881 69.3621 139.881C70.9076 139.881 72.1552 138.205 72.1552 136.156C72.1552 134.108 70.8983 132.432 69.3621 132.432Z" fill="black"/>
<path d="M101.101 413.935C94.4441 413.935 84.51 413.115 69.7531 410.843L69.8927 409.912C102.293 414.903 110.588 412.705 112.646 411.029C112.812 410.912 112.951 410.761 113.053 410.586C113.156 410.411 113.22 410.216 113.242 410.014C113.242 409.726 113.242 409.446 113.242 409.158C113.231 408.536 113.253 407.915 113.307 407.295C115.932 377.935 116.51 349.702 114.973 325.678C113.689 305.518 111.538 296.895 108.456 289.511C106.054 283.701 102.563 277.182 99.7603 271.949C96.0362 264.91 94.6955 262.358 95.0027 261.408C95.0358 261.305 95.0897 261.21 95.161 261.129C95.2169 260.915 95.31 260.384 95.4124 259.835C95.8615 257.162 96.4835 254.521 97.2744 251.929C98.4848 248.409 99.9837 244.023 103.931 240.559C106.694 238.279 109.938 236.655 113.419 235.81C115.273 235.271 117.175 234.913 119.098 234.739C121.109 234.507 122.319 234.376 123.446 233.147C125.438 230.978 125.308 227.56 125.187 226.033C125.103 224.394 124.563 222.895 123.325 219.654C122.44 217.289 121.798 215.93 121.286 214.757C120.602 213.324 120.035 211.839 119.591 210.315C118.66 207.195 118.064 205.137 118.66 202.623C119.103 200.963 119.744 199.363 120.569 197.856C120.848 197.334 121.1 196.925 121.323 196.543C121.793 195.829 122.151 195.047 122.384 194.224C122.654 193.293 123.018 191.924 122.431 190.853C121.956 189.987 121.09 189.661 119.992 189.242H119.88C116.835 188.088 114.294 186.896 113.363 186.449C110.748 185.06 108.469 183.115 106.687 180.75C106.084 180.027 105.542 179.254 105.067 178.441C104.639 177.733 104.043 176.774 102.935 175.116C100.459 171.392 99.211 169.529 97.8703 168.207C95.5177 165.855 92.7239 163.991 89.6493 162.722C87.3118 161.754 84.8473 161.127 82.3313 160.86C80.505 160.674 78.6645 160.674 76.8382 160.86L73.8869 161.605C74.9948 162.965 76.0934 164.343 77.1548 165.702C81.4469 171.205 82.2103 172.314 82.741 173.152C83.9784 175.108 85.0766 177.149 86.0275 179.26C87.7686 183.106 88.6437 185.043 88.8672 187.799C89.0763 191.09 88.4182 194.378 86.9586 197.334C86.0575 199.313 84.8615 201.143 83.4113 202.763C84.8114 204.736 86.0033 206.848 86.9679 209.067C89.1936 214.428 90.1495 220.232 89.761 226.024C89.6786 230.861 88.7327 235.645 86.9679 240.15C84.8544 245.42 82.1172 248.744 77.5831 254.238C75.546 256.739 73.3702 259.124 71.0658 261.38C69.5203 262.926 67.9189 264.528 65.4796 267.293C61.6065 271.679 57.212 276.605 53.432 283.049C50.5831 287.872 47.7806 295.35 45.0527 305.285L44.9317 305.723C41.7529 317.443 39.6187 329.421 38.5541 341.517C38.3213 343.966 37.921 346.685 37.502 349.572C36.3755 357.273 35.1 365.998 36.6734 372.088C37.8744 376.744 58.8693 378.606 76.4751 378.718C76.6956 378.721 76.9102 378.646 77.0807 378.507C77.2512 378.367 77.3665 378.171 77.4062 377.954C81.7355 353.352 80.0037 295.08 79.9851 294.465H80.9162C80.9162 295.052 82.6665 353.455 78.3279 378.14C78.2505 378.576 78.0207 378.97 77.6795 379.251C77.3383 379.533 76.9081 379.684 76.4658 379.677C67.351 379.593 37.4462 378.829 35.7703 372.348C34.1503 366.072 35.4444 357.254 36.5803 349.46C36.9993 346.592 37.3903 343.873 37.6231 341.461C38.6921 329.311 40.8388 317.279 44.0379 305.509L44.1496 305.071C46.8589 295.052 49.6893 287.5 52.5848 282.602C56.4113 276.084 60.8337 271.12 64.7348 266.707C67.202 263.913 68.8127 262.302 70.321 260.747C72.6044 258.513 74.7615 256.154 76.7824 253.68C81.6331 247.795 84.0537 244.75 86.0182 239.833C87.7651 235.433 88.711 230.757 88.8113 226.024C89.1644 220.361 88.2087 214.692 86.0182 209.458C85.0311 207.188 83.7978 205.034 82.3406 203.033L82.1172 202.726L82.3779 202.446C83.8758 200.831 85.1049 198.985 86.0182 196.98C87.4265 194.171 88.0688 191.039 87.8803 187.901C87.6662 185.303 86.8189 183.422 85.0872 179.67C84.1529 177.597 83.0733 175.593 81.8565 173.673C81.3165 172.826 80.5717 171.736 76.2703 166.224C75.0693 164.678 73.8217 163.123 72.5462 161.568L72.0806 161L76.5217 159.892C81.0483 159.405 85.625 160.045 89.8448 161.754C93.0353 163.073 95.9336 165.01 98.3731 167.453C99.7789 168.868 101.036 170.749 103.55 174.502C104.667 176.169 105.263 177.137 105.7 177.845C106.144 178.625 106.662 179.361 107.246 180.042C108.943 182.311 111.117 184.18 113.614 185.518C114.545 185.974 117.087 187.147 120.131 188.311L120.243 188.358C121.416 188.805 122.533 189.224 123.166 190.388C123.93 191.794 123.492 193.395 123.166 194.457C122.908 195.362 122.512 196.223 121.993 197.008C121.779 197.362 121.537 197.772 121.267 198.275C120.466 199.709 119.84 201.235 119.405 202.819C118.893 204.998 119.349 206.693 120.336 210.026C120.767 211.512 121.318 212.96 121.984 214.356C122.505 215.492 123.148 216.917 124.051 219.31C125.205 222.401 125.839 224.115 125.913 225.968C125.988 227.569 126.183 231.303 123.93 233.752C122.561 235.242 121.072 235.41 119.005 235.615C117.133 235.788 115.281 236.138 113.474 236.658C110.126 237.469 107.004 239.026 104.341 241.211C100.617 244.508 99.1831 248.586 97.9541 252.19C97.1768 254.735 96.5703 257.33 96.1386 259.956C95.8779 261.334 95.8313 261.595 95.6917 261.706C95.6917 262.637 98.0658 267.135 100.347 271.465C103.14 276.717 106.659 283.254 109.08 289.111C112.162 296.56 114.331 305.285 115.597 325.566C117.133 349.646 116.528 377.917 113.921 407.333C113.865 407.929 113.865 408.506 113.865 409.12C113.865 409.418 113.865 409.707 113.865 410.005C113.843 410.34 113.749 410.665 113.588 410.96C113.427 411.254 113.204 411.51 112.934 411.709C111.845 412.92 108.493 413.935 101.101 413.935Z" fill="black"/>
<path d="M51.3744 459.366C48.6372 446.917 46.3189 435.445 44.4661 425.248C35.9658 378.308 40.742 375.412 41.3192 375.235L41.5986 376.119C41.4682 376.222 37.1482 379.593 45.3879 425.09C47.2499 435.268 49.5496 446.73 52.2868 459.171L51.3744 459.366ZM76.6241 459.394C66.3175 423.796 68.8499 393.756 71.2799 379.025L72.211 379.174C69.7903 393.83 67.2672 423.712 77.5272 459.143L76.6241 459.394Z" fill="black"/>
<path d="M36.0403 459.357L35.1093 459.18C36.8596 450.278 40.4068 434.039 44.4848 424.978L44.9037 425.164H45.3786L45.332 425.36C41.3099 434.299 37.7813 450.502 36.0403 459.357ZM111.547 459.273H110.616C111.007 436.99 109.266 421.589 105.43 413.506L106.268 413.106C110.169 421.319 111.948 436.851 111.547 459.273ZM89.8355 176.737L88.9044 176.578C89.3299 174.753 90.3153 173.107 91.7226 171.87C93.1299 170.632 94.8888 169.866 96.753 169.678L96.8834 170.609C90.8037 171.466 89.8727 176.522 89.8355 176.737ZM114.983 218.239C113.852 218.267 112.73 218.043 111.698 217.582C110.665 217.121 109.749 216.436 109.015 215.576L109.769 215.026C109.927 215.241 113.661 220.176 121.872 214.915L122.375 215.697C120.208 217.24 117.64 218.123 114.983 218.239Z" fill="black"/>
<path d="M281.546 287.01L271.435 459.251L272.364 459.306L282.475 287.065L281.546 287.01Z" fill="black"/>
<path d="M281.889 287.472L232.125 267.247L232.34 266.8C232.34 266.725 235.989 259.015 239.723 249.21C244.378 236.993 247.236 226.75 247.962 219.58C248.037 218.9 248.083 218.258 248.121 217.625V216.954L302.186 240.783L301.813 241.63L248.968 218.351C248.968 218.789 248.903 219.226 248.847 219.682C248.102 227.029 245.309 237.086 240.551 249.545C237.321 258.047 234.174 264.984 233.345 266.763L282.206 286.634L281.889 287.472Z" fill="black"/>
<path d="M240.058 249.806C230.068 247.599 212.276 241.704 205.34 227.141C205.163 226.908 184.559 197.232 175.062 179.418C171.128 171.957 165.748 165.354 159.235 159.994C154.592 156.163 149.73 152.606 144.673 149.341C141.327 147.241 138.336 144.623 135.81 141.585C132.961 138.074 131.9 135.402 132.644 133.66C133.175 132.413 134.59 131.686 136.834 131.5L136.909 132.431C135.047 132.589 133.892 133.13 133.501 134.033C132.914 135.42 133.957 137.832 136.536 141.007C138.992 143.972 141.909 146.522 145.176 148.559C150.256 151.832 155.143 155.395 159.812 159.23C166.429 164.667 171.895 171.369 175.891 178.943C185.35 196.71 205.935 226.34 206.14 226.638C213.198 241.444 232.349 247.124 240.263 248.865L240.058 249.806Z" fill="black"/>
<path d="M145.437 141.138C143.575 141.138 140.577 138.829 138.361 136.128C136.266 133.577 135.074 130.02 135.568 127.673C135.613 127.293 135.744 126.928 135.951 126.606C136.157 126.283 136.434 126.011 136.76 125.811C137.159 125.628 137.592 125.526 138.031 125.512C138.471 125.497 138.909 125.57 139.32 125.727C141.675 126.444 144.236 128.809 145.688 131.612C147.634 135.337 147.96 139.853 146.377 140.924C146.093 141.09 145.765 141.165 145.437 141.138ZM137.989 126.435C137.793 126.421 137.597 126.447 137.411 126.511C137.226 126.576 137.056 126.677 136.911 126.81C136.767 126.942 136.651 127.103 136.57 127.282C136.49 127.461 136.446 127.654 136.443 127.85C136.099 129.61 136.909 132.897 139.078 135.532C141.787 138.838 144.934 140.71 145.828 140.114C146.722 139.518 146.694 135.625 144.832 132.031C143.625 129.573 141.548 127.651 139.003 126.64C138.677 126.521 138.335 126.452 137.989 126.435Z" fill="black"/>
<path d="M152.345 140.235C150.921 140.235 149.18 139.35 146.2 135.672L146.135 135.598V135.486C145.851 134.287 145.423 133.127 144.86 132.031C144.257 130.89 143.488 129.845 142.578 128.93L142.504 128.847V128.744C141.992 127.236 140.903 123.502 141.964 121.472C142.095 121.198 142.284 120.956 142.517 120.762C142.75 120.568 143.022 120.425 143.314 120.345C145.679 119.674 148.993 123.734 152.196 127.953C155.054 131.733 156.451 135.821 155.678 138.14C155.537 138.589 155.285 138.995 154.944 139.321C154.604 139.646 154.187 139.881 153.732 140.002C153.284 140.148 152.816 140.226 152.345 140.235ZM146.992 135.169C150.827 139.825 152.261 139.453 153.406 139.127C153.719 139.046 154.006 138.885 154.238 138.659C154.469 138.434 154.639 138.152 154.728 137.842C155.399 135.84 154.021 132.003 151.386 128.53C149.459 125.988 145.465 120.68 143.5 121.248C143.331 121.296 143.175 121.38 143.042 121.494C142.908 121.608 142.801 121.75 142.727 121.909C142.122 123.064 142.336 125.532 143.286 128.353C144.231 129.317 145.028 130.415 145.651 131.612C146.236 132.741 146.686 133.935 146.992 135.169ZM248.242 220.027C226.213 210.334 199.986 173.897 189.735 158.681C187.724 155.683 185.443 152.796 183.283 150.087C180.678 146.626 178.682 142.746 177.381 138.615C175.518 126.77 168.768 121.676 168.703 121.63C157.829 111.666 150.595 114.181 150.52 114.236C148.239 115.391 147.01 116.62 146.917 117.877C146.815 119.367 148.304 120.671 149.571 121.602C150.159 122.022 150.782 122.393 151.433 122.71C161.795 125.504 162.866 136.026 162.884 136.128L161.953 136.212C161.953 136.119 160.92 126.258 151.125 123.585C150.382 123.243 149.668 122.838 148.993 122.375C146.898 120.922 145.837 119.358 145.94 117.831C146.042 116.304 147.457 114.73 150.101 113.408C150.464 113.268 157.996 110.614 169.253 120.932C169.504 121.108 176.366 126.276 178.237 138.428C179.531 142.412 181.465 146.157 183.963 149.519C186.132 152.247 188.423 155.106 190.48 158.179C200.722 173.329 226.791 209.598 248.586 219.198L248.242 220.027Z" fill="black"/>
<path d="M148.035 123.613L147.364 122.962C147.887 122.456 148.454 121.998 149.059 121.593L149.589 122.356C149.033 122.726 148.513 123.147 148.035 123.613ZM142.569 116.918C142.039 116.341 129.47 102.857 126.686 98.2109C125.485 96.2182 125.112 94.5887 125.559 93.3781C125.669 93.0738 125.839 92.7944 126.058 92.5562C126.277 92.318 126.541 92.1258 126.835 91.9907C127.3 91.5903 129.758 89.9421 134.078 93.9834C135.624 95.4174 137.011 96.7117 138.491 97.9036C142.607 101.237 150.064 107.653 153.835 113.203L153.071 113.724C149.347 108.277 141.983 101.926 137.905 98.63C136.406 97.4101 135 96.1158 133.445 94.6632C129.367 90.8547 127.431 92.6984 127.412 92.717L127.338 92.7915H127.235C127.042 92.8803 126.87 93.0093 126.73 93.1698C126.59 93.3304 126.486 93.5189 126.425 93.7227C126.192 94.3652 126.192 95.585 127.487 97.736C130.215 102.299 143.119 116.145 143.249 116.276L142.569 116.918Z" fill="black"/>
<path d="M299.551 459.283L298.62 459.264L301.115 283.114L302.977 283.132L299.551 459.283Z" fill="black"/>
<path d="M359.026 459.329L358.094 459.218C360.236 441.432 360.664 399.036 360.748 381.632H361.679C361.604 399.055 361.176 441.497 359.026 459.329Z" fill="black"/>
<path d="M392.938 385.422L387.456 459.209L388.384 459.278L393.867 385.491L392.938 385.422Z" fill="black"/>
<rect x="262.998" y="457" width="131" height="10" fill="white"/>
<path d="M399.544 388.3C397.736 388.194 395.992 387.588 394.507 386.549C387.255 382.014 354.128 381.968 353.793 381.968C353.644 381.968 350.069 381.968 348.645 379.723C347.835 378.494 347.844 376.865 348.645 374.891L347.714 308.87H348.645L349.576 375.086V375.17C348.84 376.883 348.794 378.252 349.436 379.221C350.609 381.018 353.765 381.083 353.803 381.083C355.171 381.083 387.534 381.083 395.01 385.804C397.412 387.303 399.433 387.759 401.015 387.154C401.625 386.877 402.17 386.477 402.617 385.978C403.064 385.48 403.403 384.894 403.613 384.258C403.66 382.889 404.237 359.117 396.165 308.051C388.325 258.373 336.336 227.97 330.778 224.851C322.399 248.661 303.136 269.901 302.94 270.115L302.009 271.111L302.102 269.77C303.583 249.042 301.348 231.592 296.665 227.318C292.941 223.957 289.543 223.715 289.505 223.715C288.643 223.674 287.779 223.785 286.954 224.04C285.985 224.293 285.003 224.492 284.012 224.636C280.875 225.093 278.184 225.474 275.428 224.636C271.844 223.519 268.855 220.539 266.769 216.014C266.485 215.423 266.281 214.797 266.164 214.151C265.978 213.388 265.662 212.094 264.879 209.412L264.777 209.049C263.502 204.719 262.868 202.53 262.114 201.115C260.522 198.061 259.275 195.64 256.677 193.833L256.286 193.563C255.164 192.95 254.267 191.994 253.726 190.835C253.228 189.521 253.228 188.07 253.726 186.756C254.418 185.233 255.629 184.005 257.143 183.292C258.044 182.79 258.89 182.194 259.666 181.514C260.637 180.648 261.545 179.714 262.384 178.72L263.092 179.325C262.234 180.35 261.301 181.309 260.299 182.194C259.485 182.901 258.602 183.524 257.664 184.056C256.322 184.669 255.24 185.738 254.61 187.073C254.202 188.163 254.202 189.363 254.61 190.453C255.09 191.438 255.869 192.246 256.835 192.762L257.236 193.032C260.029 194.979 261.323 197.483 262.971 200.659C263.762 202.167 264.405 204.383 265.699 208.76L265.801 209.123C266.593 211.823 266.909 213.127 267.095 213.909C267.206 214.485 267.388 215.045 267.635 215.576C269.609 219.859 272.412 222.672 275.735 223.705C278.286 224.497 280.884 224.124 283.891 223.705C284.858 223.57 285.815 223.377 286.759 223.128C287.663 222.852 288.608 222.732 289.552 222.774C289.71 222.774 293.332 223.016 297.289 226.62C302.149 231.034 304.458 247.757 303.126 268.457C307.055 263.913 322.827 244.899 330.052 224.013L330.238 223.5L330.713 223.752C331.29 224.068 388.744 255.207 397.058 307.902C405.354 360.411 404.507 384.119 404.507 384.351V384.454C404.263 385.24 403.853 385.964 403.306 386.577C402.758 387.191 402.085 387.68 401.332 388.011C400.759 388.215 400.153 388.313 399.544 388.3Z" fill="black"/>
<path d="M330.257 224.236C329.309 224.253 328.371 224.045 327.519 223.63C326.588 223.165 325.657 221.815 323.637 218.863C320.211 213.807 319.913 211.972 319.81 211.181C319.695 210.463 319.679 209.733 319.764 209.011C319.826 208.483 319.842 207.95 319.81 207.419C319.503 204.397 318.234 201.554 316.189 199.308L315.695 198.703L316.459 198.554C317.008 198.442 329.931 195.677 327.268 182.333C326.337 177.677 324.112 174.39 321.347 173.636C320.656 173.428 319.92 173.421 319.225 173.614C318.53 173.806 317.903 174.192 317.418 174.725C316.124 176.187 315.956 178.58 316.98 181.141L317.045 181.299L316.989 181.458C316.925 181.682 316.795 181.882 316.616 182.031C316.436 182.181 316.216 182.273 315.984 182.296C315.276 182.296 314.234 181.653 312.446 176.904C308.853 172.817 304.843 169.115 300.482 165.86C294.291 161.447 286.023 146.492 286.666 135.532C281.753 140.511 277.974 146.492 275.586 153.066C275.03 154.639 274.558 156.239 274.171 157.862C274.032 158.42 273.892 158.979 273.734 159.556C273.529 160.301 273.277 161.102 272.979 161.931C272.849 162.313 272.7 162.713 272.542 163.104V163.207C272.402 163.588 272.244 163.961 272.086 164.343C271.574 165.6 270.968 166.931 270.279 168.291L269.888 169.064C269.584 169.684 269.258 170.29 268.911 170.879C268.799 171.084 268.678 171.308 268.557 171.513L268.147 172.22L267.486 173.198C267.429 173.308 267.364 173.414 267.291 173.515C267.123 173.794 266.937 174.092 266.732 174.39C266.666 174.502 266.595 174.611 266.518 174.716C266.397 174.921 266.239 175.154 266.09 175.368C265.169 176.734 264.174 178.049 263.11 179.307L260.531 181.886L262.459 178.59L262.57 178.394C263.401 176.854 264.144 175.269 264.796 173.645L264.879 173.45C264.954 173.235 265.038 173.03 265.112 172.835C265.28 172.341 265.438 171.904 265.55 171.457C265.596 171.339 265.633 171.217 265.661 171.094C265.816 170.552 265.937 170.002 266.025 169.445C266.025 169.287 266.025 169.213 266.071 169.138C266.118 169.064 266.118 168.812 266.127 168.673C266.136 168.533 266.127 168.449 266.127 168.375C266.208 167.785 266.131 167.184 265.904 166.633L265.857 166.55L263.222 159.947L262.133 157.238C261.36 155.31 260.923 154.267 260.662 153.671C260.474 153.296 260.333 152.899 260.243 152.489C259.712 149.313 261.174 146.567 262.152 144.751C263.374 142.567 264.987 140.626 266.909 139.024C267.747 138.263 268.657 137.586 269.628 137.003C270.475 136.473 271.49 135.811 273.464 134.349C275.411 132.922 277.262 131.366 279.003 129.694C279.808 128.932 280.563 128.12 281.266 127.263C281.68 126.701 282.211 126.235 282.82 125.894C284.026 125.212 285.393 124.868 286.777 124.898C287.999 124.936 289.207 124.637 290.269 124.032C290.938 123.662 291.502 123.126 291.907 122.477C292.453 121.652 293.14 120.93 293.937 120.345C296.116 118.706 298.155 118.203 301.572 117.467C304.359 116.864 307.201 116.552 310.053 116.536C317.189 116.659 324.223 118.243 330.722 121.192C336.737 123.837 340.498 126.649 345.703 130.55C351.587 134.89 356.929 139.92 361.614 145.533C365.953 150.775 367.424 153.83 368.215 155.906C369.583 159.532 370.216 163.394 370.077 167.267C369.798 172.574 367.936 176.28 365.366 181.42C364.609 182.959 363.741 184.44 362.768 185.853C361.837 187.268 360.441 189.391 357.899 193.563C356.214 196.356 355.153 198.154 354.287 199.625C353.117 201.747 351.833 203.805 350.441 205.789C349.417 207.232 349.008 207.735 348.319 208.583C347.63 209.43 346.503 210.799 343.924 214.17L342.49 216.032C339.893 219.477 339.111 220.52 337.286 221.703C335.227 223.191 332.791 224.069 330.257 224.236ZM317.362 199.271C319.278 201.559 320.456 204.374 320.742 207.344C320.778 207.928 320.762 208.514 320.695 209.095C320.599 209.737 320.599 210.39 320.695 211.032C320.807 211.758 321.058 213.453 324.345 218.295C326.207 220.977 327.138 222.429 327.892 222.792C330.08 223.863 333.217 223.221 336.727 220.93C338.431 219.822 339.129 218.9 341.708 215.473L343.142 213.611C345.73 210.203 346.866 208.862 347.565 208.024C348.263 207.186 348.645 206.711 349.65 205.296C351.021 203.36 352.292 201.355 353.458 199.29C354.324 197.818 355.395 195.984 357.08 193.218C359.622 189.037 361.027 186.896 361.958 185.49C362.915 184.105 363.768 182.652 364.509 181.141C367.023 176.103 368.848 172.472 369.118 167.36C369.237 163.609 368.604 159.873 367.256 156.372C366.493 154.37 365.068 151.399 360.813 146.259C356.177 140.709 350.891 135.735 345.069 131.444C339.902 127.571 336.178 124.786 330.266 122.132C323.886 119.227 316.979 117.658 309.969 117.523C307.182 117.544 304.405 117.856 301.683 118.454C298.397 119.171 296.432 119.646 294.421 121.164C293.693 121.693 293.063 122.345 292.559 123.092C292.085 123.869 291.418 124.511 290.623 124.954C289.431 125.635 288.075 125.976 286.703 125.941C285.469 125.905 284.248 126.207 283.174 126.816C282.662 127.103 282.218 127.497 281.871 127.971C281.147 128.856 280.366 129.692 279.534 130.476C277.775 132.147 275.909 133.702 273.948 135.132C271.974 136.622 270.903 137.292 270.047 137.832C269.119 138.382 268.251 139.028 267.458 139.76C265.619 141.284 264.076 143.134 262.906 145.216C261.928 147.079 260.606 149.509 261.09 152.368C261.163 152.708 261.282 153.037 261.444 153.345C261.705 153.951 262.142 154.994 262.924 156.93L264.014 159.64L266.63 166.205C266.955 166.899 267.077 167.67 266.984 168.43C266.984 168.514 266.984 168.626 266.984 168.738C266.972 168.925 266.95 169.111 266.918 169.296C266.924 169.38 266.924 169.464 266.918 169.548C266.828 170.158 266.697 170.762 266.527 171.354C266.496 171.497 266.456 171.637 266.406 171.773C266.295 172.192 266.127 172.705 265.95 173.179L265.708 173.822L265.624 174.027C265.503 174.334 265.382 174.641 265.243 174.958L265.317 174.846C265.466 174.632 265.615 174.409 265.745 174.194C265.876 173.98 265.885 173.99 265.95 173.887C266.155 173.58 266.332 173.301 266.509 173.012C266.583 172.9 266.639 172.816 266.686 172.732L267.281 171.745L267.682 171.056L268.036 170.432C268.371 169.837 268.687 169.241 268.967 168.645L269.358 167.872C270.028 166.531 270.624 165.227 271.127 163.989C271.304 163.579 271.462 163.179 271.611 162.788L271.657 162.685C271.788 162.331 271.927 161.977 272.039 161.624C272.337 160.813 272.579 160.031 272.775 159.305C272.933 158.737 273.073 158.188 273.212 157.629C273.607 155.981 274.089 154.356 274.655 152.759C277.237 145.641 281.416 139.21 286.87 133.958L287.801 133.027L287.625 134.359C286.228 145.086 294.682 160.646 300.938 165.088C305.379 168.405 309.463 172.175 313.126 176.336L313.209 176.476C315.006 181.281 315.872 181.346 315.909 181.346C315.942 181.33 315.968 181.304 315.984 181.271C314.913 178.478 315.165 175.777 316.673 174.092C317.265 173.42 318.039 172.934 318.901 172.691C319.763 172.449 320.677 172.46 321.533 172.723C323.032 173.124 326.672 174.856 328.125 182.137C330.657 194.531 320.276 198.442 317.362 199.271Z" fill="black"/>
<path d="M289.096 160.916C288.945 159.811 288.561 158.752 287.968 157.808C287.376 156.863 286.589 156.056 285.66 155.44C282.551 153.578 278.547 154.742 278.51 154.761L278.24 153.83C278.426 153.774 282.681 152.526 286.144 154.612C287.188 155.29 288.073 156.185 288.74 157.236C289.406 158.287 289.839 159.469 290.008 160.702L289.096 160.916ZM274.739 213.434L274.562 212.503C279.087 211.572 280.782 210.035 281.396 208.89C281.775 208.23 281.886 207.45 281.703 206.711L276.219 202.139L276.815 201.422L282.485 206.152V206.264C282.655 206.769 282.715 207.305 282.661 207.835C282.606 208.365 282.438 208.877 282.169 209.337C281.173 211.274 278.659 212.643 274.739 213.434ZM304.448 106.274C304.143 106.274 303.841 106.214 303.559 106.097C303.277 105.98 303.021 105.808 302.806 105.592C302.591 105.376 302.42 105.119 302.304 104.837C302.188 104.554 302.129 104.252 302.13 103.947V96.4972C302.13 95.8971 302.361 95.32 302.775 94.8862C303.19 94.4525 303.756 94.1956 304.355 94.1692L322.203 93.3963C322.803 93.3727 323.388 93.5812 323.837 93.9785C324.286 94.3757 324.565 94.9311 324.615 95.5287L325.238 102.978C325.266 103.29 325.229 103.605 325.132 103.902C325.034 104.2 324.877 104.475 324.671 104.71C324.461 104.945 324.206 105.135 323.921 105.269C323.636 105.403 323.328 105.479 323.013 105.492L304.551 106.265L304.448 106.274ZM322.306 94.3275H322.241L304.393 95.1004C304.034 95.1172 303.695 95.2717 303.447 95.5318C303.199 95.792 303.061 96.1377 303.061 96.4972V103.947C303.061 104.135 303.099 104.321 303.173 104.494C303.246 104.668 303.354 104.824 303.49 104.954C303.625 105.085 303.786 105.187 303.962 105.253C304.138 105.32 304.326 105.351 304.514 105.343L322.976 104.57C323.165 104.565 323.351 104.521 323.523 104.441C323.694 104.361 323.847 104.247 323.972 104.105C324.096 103.962 324.19 103.797 324.249 103.618C324.308 103.439 324.331 103.25 324.317 103.062L323.693 95.6125C323.665 95.2618 323.505 94.9346 323.246 94.6964C322.988 94.4581 322.648 94.3264 322.296 94.3275H322.306Z" fill="black"/>
<path d="M321.058 93.9085L304.364 94.6441C304.259 94.6345 304.153 94.6345 304.048 94.6441C304.253 92.5583 304.318 84.1871 294.672 73.73C285.027 63.2729 276.201 46.819 289.691 34.6858C294.535 30.4446 300.695 28.0071 307.13 27.7858C316.44 27.3482 330.769 29.4061 337.966 44.398C337.966 44.398 344.483 53.7097 332.379 67.6773C320.602 81.3097 319.401 84.3174 321.058 93.9085Z" fill="#FFB94C"/>
<path d="M303.517 95.2494L303.573 94.6348C303.787 92.4 303.769 84.3267 294.319 74.0745C289.663 69.0089 281.861 58.9336 282.355 48.3741C282.597 43.0478 284.962 38.336 289.366 34.4065C294.283 30.1087 300.529 27.633 307.055 27.3947C315.518 26.9943 330.843 28.6518 338.338 44.2676C338.338 44.2676 344.855 53.9704 332.687 68.0498C321.077 81.4494 319.82 84.336 321.468 93.8619L321.561 94.3834L304.337 95.147C304.253 95.1362 304.169 95.1362 304.085 95.147L303.517 95.2494ZM309.383 28.2049C308.619 28.2049 307.875 28.2049 307.139 28.2607C300.813 28.4792 294.756 30.8735 289.989 35.0397C285.772 38.8296 283.472 43.3178 283.286 48.3834C282.811 58.6263 290.427 68.4595 294.998 73.4227C304.057 83.2372 304.681 91.2174 304.541 94.1413L320.499 93.4336C318.945 84.0287 320.499 80.6765 332.016 67.3607C343.71 53.8587 337.602 44.7425 337.602 44.6494C331.15 31.315 319.131 28.2328 309.392 28.2328L309.383 28.2049ZM317.483 110.549H310.035C309.047 110.549 308.1 110.156 307.401 109.458C306.703 108.759 306.31 107.812 306.31 106.824V105.278L321.207 104.654V106.824C321.207 107.812 320.815 108.759 320.116 109.458C319.418 110.156 318.471 110.549 317.483 110.549ZM307.241 106.153V106.805C307.241 107.546 307.536 108.257 308.06 108.781C308.583 109.304 309.294 109.599 310.035 109.599H317.483C318.224 109.599 318.934 109.304 319.458 108.781C319.982 108.257 320.276 107.546 320.276 106.805V105.613L307.241 106.153Z" fill="black"/>
<path d="M314.224 114.274C313.36 114.274 312.531 113.93 311.92 113.319C311.309 112.708 310.966 111.879 310.966 111.014V109.618H317.483V111.014C317.483 111.879 317.14 112.708 316.528 113.319C315.917 113.93 315.088 114.274 314.224 114.274ZM311.897 110.549V111.014C311.897 111.632 312.142 112.224 312.578 112.661C313.015 113.097 313.607 113.342 314.224 113.342C314.842 113.342 315.434 113.097 315.87 112.661C316.307 112.224 316.552 111.632 316.552 111.014V110.549H311.897Z" fill="black"/>
<path d="M289.579 91.2594L285.855 99.6411L286.706 100.019L290.43 91.6376L289.579 91.2594Z" fill="black"/>
<path d="M281.712 81.4932L277.056 90.8042L277.888 91.2207L282.544 81.9097L281.712 81.4932Z" fill="black"/>
<path d="M274.41 71.052L266.963 75.7026L267.456 76.4925L274.903 71.8419L274.41 71.052Z" fill="black"/>
<path d="M269.886 57.967L262.433 59.8281L262.659 60.7316L270.111 58.8705L269.886 57.967Z" fill="black"/>
<path d="M263.577 45.835L263.395 46.748L272.707 48.6108L272.889 47.6977L263.577 45.835Z" fill="black"/>
<path d="M269.24 33.7521L268.862 34.603L277.242 38.3278L277.62 37.4769L269.24 33.7521Z" fill="black"/>
<path d="M277.007 18.4247L276.309 19.0405L282.854 26.4654L283.552 25.8496L277.007 18.4247Z" fill="black"/>
<path d="M290.894 6.96823L290.096 7.44727L295.68 16.7579L296.479 16.2788L290.894 6.96823Z" fill="black"/>
<path d="M304.882 2.35572L304.023 2.71387L308.678 13.8879L309.537 13.5298L304.882 2.35572Z" fill="black"/>
<path d="M319.803 0.591947L318.881 0.723633L320.743 13.7581L321.665 13.6264L319.803 0.591947Z" fill="black"/>
<path d="M331.96 3.32671L328.235 15.4302L329.125 15.7041L332.85 3.60067L331.96 3.32671Z" fill="black"/>
<path d="M342.201 7.86424L336.615 17.1738L337.413 17.653L343 8.34341L342.201 7.86424Z" fill="black"/>
<path d="M350.672 17.1313L343.23 25.5151L343.926 26.1334L351.368 17.7496L350.672 17.1313Z" fill="black"/>
<path d="M356.304 27.34L346.058 35.7119L346.647 36.433L356.893 28.0611L356.304 27.34Z" fill="black"/>
<path d="M360.995 37.5379L353.548 42.1885L354.041 42.9783L361.488 38.3277L360.995 37.5379Z" fill="black"/>
<path d="M363.916 55.1854L353.677 57.9829L353.922 58.8812L364.161 56.0836L363.916 55.1854Z" fill="black"/>
<path d="M357.517 69.1113H347.276V70.0425H357.517V69.1113Z" fill="black"/>
<path d="M343.604 79.3416L343.437 80.2578L353.678 82.1192L353.845 81.2031L343.604 79.3416Z" fill="black"/>
<path d="M336.389 86.8903L335.83 87.6353L343.278 93.2223L343.837 92.4774L336.389 86.8903Z" fill="black"/>
<path d="M330.839 92.5193L330.181 93.1777L335.77 98.7679L336.429 98.1094L330.839 92.5193Z" fill="black"/>
<path d="M310.965 81.3846C310.071 79.2543 309.75 76.9266 310.034 74.6336C310.16 73.662 310.447 72.718 310.882 71.8401C307.455 70.4992 303.759 67.6218 303.061 64.102C302.931 62.9254 303.141 61.7362 303.666 60.6753C302.995 60.7393 302.32 60.7672 301.646 60.7591C300.715 60.7591 292.503 60.4611 290.967 55.7773C290.138 53.2445 291.637 50.6 293.127 48.7376C292.128 46.9893 291.382 45.1082 290.911 43.1506C290.566 41.6887 290.129 39.1372 291.162 38.4947C292.196 37.8522 293.639 39.2769 296.357 42.0239C297.074 42.7409 297.866 43.5417 298.666 44.2866C300.354 43.4109 302.213 42.9151 304.113 42.834V42.6012C304.113 40.6737 304.039 38.8765 305.212 38.3923C306.143 38.0478 307.074 38.6158 309.01 40.7947L309.429 39.0441C309.969 36.6696 310.36 34.9563 311.794 34.649C312.725 34.4441 313.982 34.9749 315.257 36.1575C316.959 37.8049 318.253 39.8262 319.037 42.0611C321.219 41.749 323.443 41.9142 325.555 42.5453C327.826 43.2623 329.409 44.5194 330.033 46.1024C330.787 47.9648 330.238 50.7583 328.599 53.17C326.961 55.5818 324.931 56.9692 323.069 57.0065C321.691 57.0065 320.76 56.3826 318.265 53.468C318.933 55.6698 319.443 57.9166 319.792 60.1911C320.555 65.1822 321.272 69.838 318.693 71.8028C317.185 72.9575 314.624 73.0692 311.757 72.1287C311.345 72.953 311.074 73.8407 310.956 74.7546C310.721 76.8868 311.045 79.0434 311.896 81.0121L310.965 81.3846ZM312.185 71.3C314.662 72.0729 316.84 71.9891 318.097 71.0672C320.238 69.4376 319.568 65.0146 318.851 60.3308C318.512 58.1266 318.021 55.9486 317.38 53.8125C317.017 54.2658 316.629 54.698 316.216 55.1069C316.356 55.721 316.458 56.3429 316.524 56.9692C316.896 60.787 315.686 63.8134 314.662 66.4951C314.071 67.9798 313.358 69.4126 312.53 70.7785C312.408 70.9555 312.306 71.1231 312.213 71.3H312.185ZM304.737 60.517C304.183 61.5539 303.925 62.7234 303.992 63.8972C304.634 67.0911 308.126 69.7542 311.338 70.9834C311.459 70.7599 311.598 70.5364 311.738 70.2943C312.528 68.9602 313.204 67.5615 313.758 66.1134C314.838 63.4129 315.946 60.6101 315.621 57.0158C315.582 56.6096 315.523 56.2056 315.444 55.8053C312.368 58.3311 308.658 59.9642 304.718 60.5263L304.737 60.517ZM293.657 49.5478C292.363 51.2053 291.181 53.4214 291.851 55.4607C293.211 59.5951 301.32 59.7907 301.664 59.8C302.47 59.8063 303.275 59.7627 304.076 59.6696C304.867 57.9097 306.096 55.6376 307.8 52.5927C309.085 50.2368 310.081 48.4024 310.975 47.0057C310.311 46.1905 309.518 45.4891 308.628 44.9291C307.733 46.9764 306.432 48.8202 304.802 50.3486C303.545 51.5219 301.432 53.4959 298.853 53.2631C296.804 53.0769 295.045 51.6057 293.657 49.5478ZM311.543 47.7878C310.723 49.1101 309.774 50.8421 308.582 53.0397C307.148 55.6563 305.984 57.7887 305.174 59.5579C308.889 58.9657 312.367 57.3539 315.22 54.902C314.725 53.1172 313.942 51.4251 312.902 49.8923L312.827 49.7247C312.427 49.0729 312.008 48.421 311.543 47.7878ZM318.414 52.2389C321.011 55.3304 321.886 56.1219 323.022 56.0753C324.54 56.0753 326.402 54.7158 327.761 52.6765C329.242 50.4696 329.754 48.0951 329.111 46.4656C328.599 45.1526 327.249 44.0818 325.22 43.4486C323.299 42.8837 321.282 42.7283 319.298 42.9923C319.814 44.6823 319.973 46.4614 319.764 48.2162C319.578 49.6317 319.119 50.9977 318.414 52.2389ZM312.045 46.9591C312.604 47.6854 313.097 48.4583 313.591 49.2219L313.647 49.2963C314.636 50.7669 315.407 52.3727 315.937 54.064C316.331 53.6395 316.695 53.1884 317.026 52.7138C316.896 52.3134 316.766 51.9223 316.626 51.5312C315.918 50.6652 315.108 49.6688 314.187 48.5328L313.395 47.4899L312.464 46.3631C312.353 46.5587 312.213 46.7542 312.083 46.9591H312.045ZM294.235 48.8214C295.492 50.7769 297.084 52.2202 298.89 52.3785C301.068 52.5648 302.903 50.8421 304.122 49.7061C305.672 48.2452 306.908 46.4835 307.753 44.5287L307.521 44.4263C306.731 44.1013 305.895 43.9003 305.044 43.8304C305.044 45.5251 304.848 47.0708 303.722 47.6668C302.344 48.3931 300.473 47.1826 298.49 45.3947C297.385 45.9944 296.362 46.733 295.445 47.5923C295.138 47.8716 294.71 48.2907 294.272 48.7935L294.235 48.8214ZM317.483 51.0656L317.818 51.466C318.366 50.4132 318.726 49.2723 318.879 48.0951C319.079 46.4265 318.921 44.7343 318.414 43.132C317.075 43.3675 315.783 43.8171 314.587 44.4635C315.704 46.5947 316.671 48.8006 317.483 51.0656ZM313.079 45.6275C313.405 46.0372 313.758 46.4563 314.112 46.9032L314.941 47.9182L315.565 48.6911C315.034 47.4247 314.447 46.1769 313.805 44.9664C313.544 45.1646 313.301 45.3859 313.079 45.6275ZM291.721 39.2024H291.656C291.432 39.3514 291.265 40.7109 291.898 43.1692C292.31 44.8264 292.935 46.4229 293.76 47.9182C294.142 47.4899 294.505 47.1267 294.793 46.8567C295.692 46.0036 296.692 45.2654 297.773 44.6591C297.074 44.0073 296.376 43.2903 295.678 42.5919C294.43 41.3441 292.345 39.2304 291.721 39.2304V39.2024ZM299.402 44.8826C300.966 46.2514 302.446 47.2291 303.294 46.7449C303.992 46.3818 304.113 45.0874 304.122 43.7093C302.484 43.7872 300.878 44.1958 299.402 44.9105V44.8826ZM308.954 44.0352C309.909 44.6029 310.762 45.3268 311.477 46.1769C311.608 45.9814 311.747 45.7951 311.878 45.6275C310.947 44.5194 310.155 43.5324 309.429 42.6757C309.29 43.1506 309.103 43.6069 308.954 44.0631V44.0352ZM309.746 41.6235C310.509 42.5546 311.412 43.5882 312.483 44.9012C312.748 44.6097 313.042 44.3447 313.358 44.1097C312.781 43.0389 312.157 41.9773 311.496 40.9251L312.287 40.4316C312.949 41.4838 313.572 42.5453 314.15 43.6162C315.387 42.9407 316.722 42.4631 318.106 42.2008C317.372 40.1719 316.184 38.3374 314.634 36.8372C313.61 35.9061 312.623 35.4125 311.99 35.5429C311.142 35.7291 310.788 37.2842 310.332 39.2676C310.165 40.0405 309.978 40.8133 309.746 41.6514V41.6235ZM305.044 42.834C306.02 42.9021 306.978 43.1253 307.884 43.4951L308.116 43.5976C308.349 43.0016 308.545 42.415 308.712 41.8376C307.102 39.9753 306.04 39.0441 305.547 39.2397C305.053 39.4352 305.016 41.1858 305.044 42.564V42.834ZM311.431 86.804C311.063 86.804 310.703 86.6948 310.396 86.4902C310.09 86.2855 309.852 85.9947 309.711 85.6544C309.57 85.3141 309.533 84.9396 309.605 84.5784C309.676 84.2171 309.854 83.8853 310.114 83.6248C310.375 83.3644 310.706 83.187 311.068 83.1151C311.429 83.0433 311.803 83.0802 312.144 83.2211C312.484 83.3621 312.775 83.6008 312.979 83.907C313.184 84.2133 313.293 84.5734 313.293 84.9417C313.293 85.4356 313.097 85.9093 312.748 86.2586C312.398 86.6078 311.925 86.804 311.431 86.804ZM311.431 84.0105C311.247 84.0105 311.067 84.0651 310.914 84.1674C310.761 84.2698 310.641 84.4152 310.571 84.5854C310.5 84.7555 310.482 84.9427 310.518 85.1234C310.554 85.304 310.642 85.4699 310.773 85.6001C310.903 85.7304 311.069 85.819 311.249 85.855C311.43 85.8909 311.617 85.8725 311.787 85.802C311.957 85.7315 312.103 85.6122 312.205 85.459C312.307 85.3059 312.362 85.1259 312.362 84.9417C312.362 84.6947 312.264 84.4579 312.089 84.2833C311.915 84.1086 311.678 84.0105 311.431 84.0105Z" fill="black"/>
<path d="M64.9583 95.5478C64.2317 95.5563 63.5111 95.416 62.8408 95.1356C62.1706 94.8551 61.5647 94.4405 61.0606 93.9171C60.5565 93.3938 60.1649 92.7728 59.9097 92.0924C59.6545 91.412 59.5413 90.6866 59.5769 89.9607C59.536 89.2209 59.6476 88.4805 59.9046 87.7855C60.1616 87.0906 60.5586 86.4558 61.071 85.9206C61.5835 85.3854 62.2003 84.9612 62.8834 84.6743C63.5665 84.3874 64.3012 84.2439 65.0421 84.2526C68.2076 84.2526 70.4234 86.5992 70.4234 89.9607C70.461 90.6941 70.3464 91.4273 70.0866 92.1141C69.8269 92.8009 69.4277 93.4265 68.9143 93.9514C68.4008 94.4762 67.7843 94.8891 67.1034 95.1638C66.4225 95.4386 65.6921 95.5693 64.9583 95.5478ZM65.0421 85.1373C63.8354 85.2015 62.6986 85.7234 61.8633 86.5967C61.0279 87.47 60.557 88.629 60.5463 89.8376C60.5356 91.0461 60.986 92.2132 61.8058 93.1012C62.6255 93.9891 63.7529 94.5311 64.9583 94.6166C65.5704 94.64 66.1806 94.5347 66.7494 94.3074C67.3182 94.08 67.833 93.7358 68.2603 93.2969C68.6877 92.8581 69.0182 92.3343 69.2305 91.7596C69.4427 91.185 69.5319 90.5721 69.4924 89.9607C69.4924 87.0555 67.7048 85.1373 65.0421 85.1373ZM68.8593 78.7122H61.411L61.2155 76.1235C60.6662 71.1976 62.4352 66.2251 66.4852 61.3644C70.1162 57.0996 72.211 53.915 72.211 50.2462C72.211 46.0652 69.4924 43.6255 64.7627 43.551C61.8641 43.5367 59.0296 44.4038 56.6348 46.0373L56.1414 46.4097L53.8138 40.2547L54.1024 40.0405C56.8955 37.9919 61.8114 36.6138 66.2896 36.6138C76.9034 36.6138 80.6648 43.4672 80.6648 49.3336C80.6648 55.051 77.6576 59.0737 73.3934 64.13C69.8927 68.2737 68.5055 71.8401 68.7383 76.0583L68.8593 78.7122ZM62.3421 77.781H67.9283L67.8631 76.1049C67.5931 71.6352 69.0548 67.8733 72.7231 63.534C76.8476 58.6267 79.771 54.7344 79.771 49.3336C79.771 43.9328 76.2517 37.5449 66.3269 37.5449C62.1838 37.5449 57.6869 38.7648 54.9776 40.5899L56.6348 44.9385C59.0979 43.4204 61.9347 42.6176 64.8279 42.6198C70.0789 42.7036 73.2072 45.553 73.2072 50.2462C73.2072 54.1943 71.0286 57.5373 67.2672 61.9696C63.3848 66.6255 61.681 71.3559 62.2024 76.0304L62.3421 77.781ZM280.241 167.015C278.668 166.084 276.378 167.23 275.121 169.474C273.864 171.718 274.106 174.251 275.679 175.135C277.253 176.02 279.543 174.912 280.8 172.668C282.057 170.423 281.759 167.891 280.241 167.015ZM278.333 173.757C278.298 173.803 278.253 173.841 278.201 173.867C278.15 173.893 278.093 173.906 278.035 173.906C277.977 173.906 277.92 173.893 277.868 173.867C277.817 173.841 277.772 173.803 277.737 173.757C277.681 173.641 277.667 173.51 277.696 173.385C277.724 173.26 277.795 173.148 277.895 173.068C277.93 173.022 277.975 172.984 278.027 172.958C278.078 172.933 278.135 172.919 278.193 172.919C278.251 172.919 278.308 172.933 278.36 172.958C278.411 172.984 278.456 173.022 278.491 173.068C278.543 173.189 278.552 173.324 278.514 173.45C278.477 173.576 278.396 173.685 278.286 173.757H278.333ZM278.808 169.958C278.435 170.619 277.765 170.945 277.299 170.684C277.064 170.48 276.915 170.194 276.884 169.884C276.853 169.574 276.942 169.264 277.132 169.017C277.504 168.356 278.184 168.03 278.64 168.291C278.868 168.501 279.008 168.791 279.031 169.101C279.053 169.41 278.957 169.717 278.761 169.958H278.808Z" fill="black"/>
<ellipse cx="69.9984" cy="68" rx="31" ry="33" fill="#FFB94C"/>
<path d="M65.6112 92.0488C65.6112 91.4954 65.7089 91.1374 65.9042 90.9746C66.132 90.8118 66.425 90.7305 66.7831 90.7305C67.3365 90.7305 67.8085 90.9421 68.1991 91.3652C68.5897 91.7559 68.785 92.2116 68.785 92.7324C68.785 93.1882 68.606 93.5137 68.2479 93.709C67.9224 93.8717 67.5481 93.9531 67.1249 93.9531C66.9296 93.9531 66.7343 93.888 66.5389 93.7578C66.3762 93.5951 66.2134 93.416 66.0507 93.2207C65.9205 92.9928 65.8065 92.7812 65.7089 92.5859C65.6438 92.3906 65.6112 92.2116 65.6112 92.0488ZM63.0233 72.3223C63.0233 71.0202 63.3326 69.832 63.951 68.7578C64.6021 67.6836 65.3833 66.6745 66.2948 65.7305C67.2063 64.7539 68.2154 63.8099 69.3221 62.8984C70.4289 61.987 71.438 61.043 72.3495 60.0664C73.2609 59.0898 74.0259 58.0645 74.6444 56.9902C75.2955 55.8835 75.621 54.6628 75.621 53.3281C75.621 52.5794 75.4257 52.026 75.035 51.668C74.6444 51.3099 74.1561 51.0658 73.5702 50.9355C72.9843 50.7728 72.3495 50.7077 71.6659 50.7402C70.9823 50.7402 70.3475 50.7402 69.7616 50.7402C68.7199 50.7402 67.7271 50.9518 66.7831 51.375C65.8391 51.7982 64.9276 52.2539 64.0487 52.7422C63.2024 53.1979 62.356 53.6374 61.5096 54.0605C60.6633 54.4512 59.8007 54.6465 58.9218 54.6465C58.5311 54.6465 58.1893 54.5977 57.8964 54.5C57.6034 54.3698 57.4569 53.9792 57.4569 53.3281C57.4569 52.9375 57.7336 52.5469 58.287 52.1562C58.8404 51.7656 59.5402 51.3913 60.3866 51.0332C61.2655 50.6426 62.2258 50.2845 63.2675 49.959C64.3417 49.6009 65.3833 49.3079 66.3925 49.0801C67.4016 48.8522 68.2968 48.6732 69.078 48.543C69.8918 48.3802 70.5103 48.2988 70.9335 48.2988C71.6496 48.2988 72.4309 48.3639 73.2772 48.4941C74.1561 48.5918 74.9374 48.8034 75.621 49.1289C76.3371 49.4219 76.9231 49.8613 77.3788 50.4473C77.8671 51.0007 78.1112 51.7331 78.1112 52.6445C78.1112 54.3047 77.688 55.9486 76.8417 57.5762C75.9953 59.2038 74.9699 60.75 73.7655 62.2148C72.5936 63.6471 71.3566 64.998 70.0546 66.2676C68.785 67.5046 67.6945 68.6113 66.7831 69.5879C66.3925 69.7832 66.132 70.0924 66.0018 70.5156C65.9042 70.9062 65.9205 71.3294 66.0507 71.7852C66.1809 72.2083 66.4087 72.6315 66.7343 73.0547C67.0923 73.4453 67.5318 73.7546 68.0526 73.9824C68.606 74.1777 69.2245 74.2428 69.9081 74.1777C70.5917 74.0801 71.3404 73.7871 72.1542 73.2988L73.0819 75.2031C72.3983 75.724 71.6008 76.082 70.6893 76.2773C69.7779 76.4401 68.899 76.5215 68.0526 76.5215C67.4341 76.5215 66.8319 76.4238 66.246 76.2285C65.66 76.0332 65.1229 75.7565 64.6346 75.3984C64.1464 75.0404 63.7557 74.6009 63.4628 74.0801C63.1698 73.5592 63.0233 72.9733 63.0233 72.3223Z" fill="black"/>
<path d="M323.069 252.106C323.367 252.441 328.851 258.559 336.104 256.762L346.987 234.991C341.754 231.002 336.251 227.38 330.517 224.152C322.138 248.362 302.586 269.779 302.586 269.779C303.187 262.085 303.206 254.356 302.642 246.658C300.342 250.541 296.469 255.7 291.879 256.277C291.879 256.277 301.19 275.832 302.121 286.075C302.49 285.06 302.931 284.074 303.443 283.123C305.966 278.27 309.697 274.15 314.276 271.16C318.856 268.17 324.129 266.412 329.586 266.055L323.069 252.087" fill="#20B78C"/>
<path d="M301.86 286.466C301.301 286.401 301.655 286.112 301.655 286.112C300.724 276.074 291.553 256.668 291.46 256.473L291.181 255.896L291.814 255.812C296.153 255.262 299.877 250.402 302.242 246.416L302.987 245.159L303.098 246.612C303.638 253.877 303.653 261.171 303.145 268.439C307.074 263.894 322.846 244.88 330.07 223.994L330.257 223.481L330.731 223.733C336.486 226.977 342.013 230.607 347.276 234.6L347.583 234.832L336.411 257.181L336.206 257.227C331.067 258.522 326.802 255.989 324.503 254.126L330.275 266.492L329.614 266.548C314.168 267.889 306.841 277.666 303.843 283.375C303.345 284.302 302.913 285.264 302.549 286.252C302.549 286.252 302.409 286.522 301.86 286.466ZM292.55 256.668C294.011 259.788 300.827 274.743 302.353 284.306C302.53 283.905 302.754 283.449 303.014 282.937C305.541 278.131 309.23 274.035 313.747 271.022C318.263 268.01 323.462 266.177 328.869 265.692L322.603 252.329V252.124H323.069L323.413 251.817L323.469 251.882C324.214 252.702 329.223 257.888 335.778 256.371L346.391 235.149C341.407 231.392 336.189 227.955 330.769 224.86C322.389 248.67 303.126 269.91 302.931 270.124L302 271.12L302.093 269.779C302.64 262.584 302.693 255.36 302.251 248.158C299.923 251.808 296.544 255.784 292.559 256.631L292.55 256.668Z" fill="black"/>
</g>
<defs>
<linearGradient id="paint0_linear_213_12544" x1="317.998" y1="303" x2="313.998" y2="444" gradientUnits="userSpaceOnUse">
<stop stop-color="#159199"/>
<stop offset="1" stop-color="#20B78C" stop-opacity="0"/>
</linearGradient>
<clipPath id="clip0_213_12544">
<rect width="405" height="460" fill="white"/>
</clipPath>
</defs>
</svg>
