<svg width="60" height="60" viewBox="0 0 60 60" fill="none" xmlns="http://www.w3.org/2000/svg">
<path d="M0 20C0 8.9543 8.95431 0 20 0H40C51.0457 0 60 8.95431 60 20V40C60 51.0457 51.0457 60 40 60H20C8.9543 60 0 51.0457 0 40V20Z" fill="#E86339"/>
<path d="M18 25.8001C17.6817 25.8001 17.3765 25.6736 17.1515 25.4486C16.9264 25.2235 16.8 24.9183 16.8 24.6001V20.4C16.8 19.4453 17.1793 18.5296 17.8544 17.8545C18.5295 17.1793 19.4452 16.8 20.4 16.8H24.6C24.9182 16.8 25.2235 16.9265 25.4485 17.1515C25.6736 17.3766 25.8 17.6818 25.8 18C25.8 18.3183 25.6736 18.6235 25.4485 18.8486C25.2235 19.0736 24.9182 19.2 24.6 19.2H20.4C20.0817 19.2 19.7765 19.3265 19.5515 19.5515C19.3264 19.7766 19.2 20.0818 19.2 20.4V24.6001C19.2 24.9183 19.0736 25.2235 18.8485 25.4486C18.6235 25.6736 18.3182 25.8001 18 25.8001Z" fill="white"/>
<path d="M42 25.8001C41.6818 25.8001 41.3765 25.6736 41.1515 25.4486C40.9264 25.2235 40.8 24.9183 40.8 24.6001V20.4C40.8 20.0818 40.6736 19.7766 40.4485 19.5515C40.2235 19.3265 39.9183 19.2 39.6 19.2H35.4C35.0818 19.2 34.7765 19.0736 34.5515 18.8486C34.3264 18.6235 34.2 18.3183 34.2 18C34.2 17.6818 34.3264 17.3766 34.5515 17.1515C34.7765 16.9265 35.0818 16.8 35.4 16.8H39.6C40.5548 16.8 41.4705 17.1793 42.1456 17.8545C42.8207 18.5296 43.2 19.4453 43.2 20.4V24.6001C43.2 24.9183 43.0736 25.2235 42.8485 25.4486C42.6235 25.6736 42.3183 25.8001 42 25.8001Z" fill="white"/>
<path d="M39.6 43.2H35.4C35.0818 43.2 34.7765 43.0735 34.5515 42.8485C34.3264 42.6234 34.2 42.3182 34.2 42C34.2 41.6817 34.3264 41.3765 34.5515 41.1514C34.7765 40.9264 35.0818 40.8 35.4 40.8H39.6C39.9183 40.8 40.2235 40.6735 40.4485 40.4485C40.6736 40.2234 40.8 39.9182 40.8 39.6V35.4C40.8 35.0817 40.9264 34.7765 41.1515 34.5514C41.3765 34.3264 41.6818 34.2 42 34.2C42.3183 34.2 42.6235 34.3264 42.8485 34.5514C43.0736 34.7765 43.2 35.0817 43.2 35.4V39.6C43.2 40.5547 42.8207 41.4704 42.1456 42.1455C41.4705 42.8207 40.5548 43.2 39.6 43.2Z" fill="white"/>
<path d="M24.6 43.2H20.4C19.4452 43.2 18.5295 42.8207 17.8544 42.1455C17.1793 41.4704 16.8 40.5547 16.8 39.6V35.4C16.8 35.0817 16.9264 34.7765 17.1515 34.5514C17.3765 34.3264 17.6817 34.2 18 34.2C18.3182 34.2 18.6235 34.3264 18.8485 34.5514C19.0736 34.7765 19.2 35.0817 19.2 35.4V39.6C19.2 39.9182 19.3264 40.2234 19.5515 40.4485C19.7765 40.6735 20.0817 40.8 20.4 40.8H24.6C24.9182 40.8 25.2235 40.9264 25.4485 41.1514C25.6736 41.3765 25.8 41.6817 25.8 42C25.8 42.3182 25.6736 42.6234 25.4485 42.8485C25.2235 43.0735 24.9182 43.2 24.6 43.2Z" fill="white"/>
<rect x="24" y="25.8" width="2.4" height="8.4" rx="1.2" fill="white"/>
<rect x="33.6" y="25.8" width="2.4" height="8.4" rx="1.2" fill="white"/>
<rect x="28.8" y="22.8" width="2.4" height="14.4" rx="1.2" fill="white"/>
</svg>
