<svg width="60" height="60" viewBox="0 0 60 60" fill="none" xmlns="http://www.w3.org/2000/svg">
<path d="M0 20C0 8.9543 8.95431 0 20 0H40C51.0457 0 60 8.95431 60 20V40C60 51.0457 51.0457 60 40 60H20C8.9543 60 0 51.0457 0 40V20Z" fill="#E86339"/>
<path d="M46.596 29.3281C46.296 28.8841 39.15 18.4021 30 18.4021C20.85 18.4021 13.704 28.8841 13.404 29.3281C13.2711 29.5259 13.2002 29.7588 13.2002 29.9971C13.2002 30.2354 13.2711 30.4683 13.404 30.6661C13.704 31.1161 20.85 41.5981 30 41.5981C39.15 41.5981 46.296 31.1161 46.596 30.6721C46.7301 30.4737 46.8018 30.2396 46.8018 30.0001C46.8018 29.7606 46.7301 29.5265 46.596 29.3281ZM30 39.1981C23.352 39.1981 17.556 32.2201 15.882 30.0001C17.556 27.7801 23.334 20.8021 30 20.8021C36.666 20.8021 42.444 27.7801 44.118 30.0001C42.45 32.2201 36.666 39.1981 30 39.1981Z" fill="white"/>
<path d="M30 23.3999C28.6946 23.3999 27.4186 23.787 26.3332 24.5122C25.2479 25.2374 24.4019 26.2682 23.9024 27.4742C23.4029 28.6802 23.2722 30.0072 23.5268 31.2875C23.7815 32.5678 24.4101 33.7438 25.3331 34.6668C26.2561 35.5898 27.4321 36.2184 28.7124 36.4731C29.9927 36.7278 31.3197 36.597 32.5257 36.0975C33.7317 35.598 34.7625 34.752 35.4877 33.6667C36.2129 32.5813 36.6 31.3053 36.6 29.9999C36.6 28.2495 35.9046 26.5707 34.6669 25.333C33.4292 24.0953 31.7504 23.3999 30 23.3999ZM30 34.1999C29.1693 34.1999 28.3573 33.9536 27.6666 33.4921C26.9759 33.0306 26.4376 32.3746 26.1197 31.6072C25.8018 30.8397 25.7186 29.9952 25.8807 29.1805C26.0428 28.3658 26.4428 27.6174 27.0301 27.0301C27.6175 26.4427 28.3659 26.0427 29.1806 25.8806C29.9953 25.7185 30.8398 25.8017 31.6073 26.1196C32.3747 26.4375 33.0307 26.9758 33.4922 27.6665C33.9537 28.3572 34.2 29.1692 34.2 29.9999C34.2 31.1138 33.7575 32.1821 32.9698 32.9698C32.1822 33.7574 31.1139 34.1999 30 34.1999Z" fill="white"/>
</svg>
