<svg width="60" height="60" viewBox="0 0 60 60" fill="none" xmlns="http://www.w3.org/2000/svg">
<path d="M0 20C0 8.9543 8.95431 0 20 0H40C51.0457 0 60 8.95431 60 20V40C60 51.0457 51.0457 60 40 60H20C8.9543 60 0 51.0457 0 40V20Z" fill="#E86339"/>
<path d="M22.8 15.6H19.2C18.8817 15.6 18.5765 15.7264 18.3515 15.9514C18.1264 16.1765 18 16.4817 18 16.8C18 19.0278 18.885 21.1644 20.4603 22.7397C22.0356 24.315 24.1722 25.2 26.4 25.2H28.8V30.132C28.02 29.3302 27.0871 28.6929 26.0566 28.258C25.026 27.8231 23.9186 27.5994 22.8 27.6H19.2C18.8817 27.6 18.5765 27.7264 18.3515 27.9514C18.1264 28.1765 18 28.4817 18 28.8C18 31.0278 18.885 33.1644 20.4603 34.7397C22.0356 36.315 24.1722 37.2 26.4 37.2H28.8V43.2C28.8 43.5182 28.9264 43.8235 29.1515 44.0485C29.3765 44.2736 29.6817 44.4 30 44.4C30.3183 44.4 30.6235 44.2736 30.8485 44.0485C31.0736 43.8235 31.2 43.5182 31.2 43.2V31.2H33.6C35.8278 31.2 37.9644 30.315 39.5397 28.7397C41.115 27.1644 42 25.0278 42 22.8C42 22.4817 41.8736 22.1765 41.6485 21.9514C41.4235 21.7264 41.1183 21.6 40.8 21.6H37.2C36.0814 21.5994 34.974 21.8231 33.9434 22.258C32.9129 22.6929 31.98 23.3302 31.2 24.132V24C31.2 21.7722 30.315 19.6356 28.7397 18.0603C27.1644 16.485 25.0278 15.6 22.8 15.6ZM26.4 22.8C25.0168 22.8003 23.676 22.3226 22.6045 21.4479C21.533 20.5733 20.7966 19.3552 20.52 18H22.8C24.1832 17.9997 25.524 18.4773 26.5955 19.352C27.667 20.2267 28.4034 21.4447 28.68 22.8H26.4ZM26.4 34.8C25.0168 34.8003 23.676 34.3226 22.6045 33.4479C21.533 32.5733 20.7966 31.3552 20.52 30H22.8C24.1832 29.9997 25.524 30.4773 26.5955 31.352C27.667 32.2267 28.4034 33.4447 28.68 34.8H26.4ZM37.2 24H39.48C39.2034 25.3552 38.467 26.5733 37.3955 27.4479C36.324 28.3226 34.9832 28.8003 33.6 28.8H31.32C31.5966 27.4447 32.333 26.2267 33.4045 25.352C34.476 24.4773 35.8168 23.9997 37.2 24Z" fill="white"/>
</svg>
