<svg width="209" height="68" viewBox="0 0 209 68" fill="none" xmlns="http://www.w3.org/2000/svg">
<path fill-rule="evenodd" clip-rule="evenodd" d="M15.1481 53.583C16.0275 53.9683 17.0188 53.9765 17.9041 53.6059C18.7893 53.2352 19.496 52.5161 19.8685 51.6067C20.2411 50.6973 20.249 49.6721 19.8906 48.7566L7.72843 17.6907C7.01163 15.8597 7.02752 13.8093 7.77261 11.9905C8.51769 10.1717 9.93094 8.73344 11.7015 7.99218C13.472 7.25091 15.4547 7.26735 17.2135 8.03786C18.9723 8.80837 20.3631 10.2698 21.0799 12.1008C21.4383 13.0162 22.1337 13.747 23.0131 14.1322C23.8925 14.5175 24.8838 14.5257 25.7691 14.1551C26.6544 13.7845 27.361 13.0653 27.7335 12.1559C28.1061 11.2465 28.114 10.2213 27.7556 9.30584C26.322 5.64397 23.5405 2.72102 20.0229 1.17999C16.5053 -0.361033 12.5398 -0.393899 8.99875 1.08863C5.45772 2.57116 2.63122 5.44764 1.14105 9.08528C-0.349119 12.7229 -0.3809 16.8237 1.0527 20.4856L13.2149 51.5516C13.5733 52.467 14.2687 53.1978 15.1481 53.583ZM17.3658 14.4167C16.4864 14.0314 15.495 14.0232 14.6098 14.3938C13.7245 14.7645 13.0179 15.4836 12.6453 16.393C12.2728 17.3024 12.2649 18.3276 12.6233 19.2431L24.7854 50.3091C25.5022 52.14 25.4863 54.1904 24.7413 56.0092C23.9962 57.8281 22.5829 59.2663 20.8124 60.0076C19.0419 60.7488 17.0591 60.7324 15.3004 59.9619C13.5416 59.1914 12.1508 57.7299 11.434 55.8989C11.0756 54.9835 10.3802 54.2527 9.50078 53.8675C8.62138 53.4822 7.63001 53.474 6.74475 53.8446C5.8595 54.2153 5.15287 54.9344 4.78033 55.8438C4.40779 56.7532 4.39984 57.7784 4.75824 58.6939C6.19185 62.3558 8.9734 65.2787 12.491 66.8197C16.0086 68.3608 19.9741 68.3936 23.5151 66.9111C27.0561 65.4286 29.8826 62.5521 31.3728 58.9145C32.863 55.2768 32.8948 51.176 31.4612 47.5141L19.299 16.4481C18.9406 15.5327 18.2452 14.8019 17.3658 14.4167Z" fill="url(#paint0_radial_119_2462)"/>
<path d="M51.4377 49.3958C49.5897 49.3958 47.9323 49.0878 46.4657 48.4718C44.999 47.8264 43.8403 46.9464 42.9897 45.8318C42.139 44.6878 41.6697 43.3824 41.5817 41.9158H45.7177C45.835 43.1184 46.3923 44.1011 47.3897 44.8638C48.4163 45.6264 49.751 46.0078 51.3937 46.0078C52.919 46.0078 54.1217 45.6704 55.0017 44.9958C55.8817 44.3211 56.3217 43.4704 56.3217 42.4438C56.3217 41.3878 55.8523 40.6104 54.9137 40.1118C53.975 39.5838 52.523 39.0704 50.5577 38.5718C48.7683 38.1024 47.3017 37.6331 46.1577 37.1638C45.043 36.6651 44.075 35.9464 43.2537 35.0078C42.4617 34.0398 42.0657 32.7784 42.0657 31.2238C42.0657 29.9918 42.4323 28.8624 43.1657 27.8358C43.899 26.8091 44.9403 26.0024 46.2897 25.4158C47.639 24.7998 49.179 24.4918 50.9097 24.4918C53.579 24.4918 55.735 25.1664 57.3777 26.5158C59.0203 27.8651 59.9003 29.7131 60.0177 32.0598H56.0137C55.9257 30.7984 55.4123 29.7864 54.4737 29.0238C53.5643 28.2611 52.3323 27.8798 50.7777 27.8798C49.3403 27.8798 48.1963 28.1878 47.3457 28.8038C46.495 29.4198 46.0697 30.2264 46.0697 31.2238C46.0697 32.0158 46.319 32.6758 46.8177 33.2038C47.3457 33.7024 47.991 34.1131 48.7537 34.4358C49.5457 34.7291 50.631 35.0664 52.0097 35.4478C53.7403 35.9171 55.1483 36.3864 56.2337 36.8558C57.319 37.2958 58.243 37.9704 59.0057 38.8798C59.7977 39.7891 60.2083 40.9771 60.2377 42.4438C60.2377 43.7638 59.871 44.9518 59.1377 46.0078C58.4043 47.0638 57.363 47.8998 56.0137 48.5158C54.6937 49.1024 53.1683 49.3958 51.4377 49.3958ZM87.89 36.0198C87.89 36.7824 87.846 37.5891 87.758 38.4398H68.486C68.6326 40.8158 69.4393 42.6784 70.906 44.0278C72.402 45.3478 74.206 46.0078 76.318 46.0078C78.0486 46.0078 79.486 45.6118 80.63 44.8198C81.8033 43.9984 82.6246 42.9131 83.094 41.5638H87.406C86.7606 43.8811 85.47 45.7731 83.534 47.2398C81.598 48.6771 79.1926 49.3958 76.318 49.3958C74.03 49.3958 71.9766 48.8824 70.158 47.8558C68.3686 46.8291 66.9606 45.3771 65.934 43.4998C64.9073 41.5931 64.394 39.3931 64.394 36.8998C64.394 34.4064 64.8926 32.2211 65.89 30.3438C66.8873 28.4664 68.2806 27.0291 70.07 26.0318C71.8886 25.0051 73.9713 24.4918 76.318 24.4918C78.606 24.4918 80.63 24.9904 82.39 25.9878C84.15 26.9851 85.4993 28.3638 86.438 30.1238C87.406 31.8544 87.89 33.8198 87.89 36.0198ZM83.754 35.1838C83.754 33.6584 83.4166 32.3531 82.742 31.2678C82.0673 30.1531 81.1433 29.3171 79.97 28.7598C78.826 28.1731 77.55 27.8798 76.142 27.8798C74.118 27.8798 72.3873 28.5251 70.95 29.8158C69.542 31.1064 68.7353 32.8958 68.53 35.1838H83.754ZM104.923 24.4478C107.856 24.4478 110.232 25.3424 112.051 27.1318C113.87 28.8918 114.779 31.4438 114.779 34.7878V48.9998H110.819V35.3598C110.819 32.9544 110.218 31.1211 109.015 29.8598C107.812 28.5691 106.17 27.9238 104.087 27.9238C101.975 27.9238 100.288 28.5838 99.0271 29.9038C97.7951 31.2238 97.1791 33.1451 97.1791 35.6678V48.9998H93.1751V24.8878H97.1791V28.3198C97.9711 27.0878 99.0418 26.1344 100.391 25.4598C101.77 24.7851 103.28 24.4478 104.923 24.4478ZM123.476 20.9718C122.713 20.9718 122.068 20.7078 121.54 20.1798C121.041 19.6518 120.792 19.0064 120.792 18.2438C120.792 17.4811 121.041 16.8358 121.54 16.3078C122.068 15.7798 122.713 15.5158 123.476 15.5158C124.238 15.5158 124.869 15.7798 125.368 16.3078C125.896 16.8358 126.16 17.4811 126.16 18.2438C126.16 19.0064 125.896 19.6518 125.368 20.1798C124.869 20.7078 124.238 20.9718 123.476 20.9718ZM125.456 54.2358C125.456 56.3771 124.913 57.9464 123.828 58.9438C122.742 59.9411 121.158 60.4398 119.076 60.4398H116.744V57.0518H118.416C119.53 57.0518 120.308 56.8318 120.748 56.3918C121.217 55.9518 121.452 55.2038 121.452 54.1478V24.8878H125.456V54.2358ZM153.618 24.8878V48.9998H149.614V45.4358C148.851 46.6678 147.78 47.6358 146.402 48.3398C145.052 49.0144 143.556 49.3518 141.914 49.3518C140.036 49.3518 138.35 48.9704 136.854 48.2078C135.358 47.4158 134.17 46.2424 133.29 44.6878C132.439 43.1331 132.014 41.2411 132.014 39.0118V24.8878H135.974V38.4838C135.974 40.8598 136.575 42.6931 137.778 43.9838C138.98 45.2451 140.623 45.8758 142.706 45.8758C144.847 45.8758 146.534 45.2158 147.766 43.8958C148.998 42.5758 149.614 40.6544 149.614 38.1318V24.8878H153.618ZM172.126 24.4478C175.06 24.4478 177.436 25.3424 179.254 27.1318C181.073 28.8918 181.982 31.4438 181.982 34.7878V48.9998H178.022V35.3598C178.022 32.9544 177.421 31.1211 176.218 29.8598C175.016 28.5691 173.373 27.9238 171.29 27.9238C169.178 27.9238 167.492 28.5838 166.23 29.9038C164.998 31.2238 164.382 33.1451 164.382 35.6678V48.9998H160.378V24.8878H164.382V28.3198C165.174 27.0878 166.245 26.1344 167.594 25.4598C168.973 24.7851 170.484 24.4478 172.126 24.4478ZM197.059 49.3958C195.211 49.3958 193.553 49.0878 192.087 48.4718C190.62 47.8264 189.461 46.9464 188.611 45.8318C187.76 44.6878 187.291 43.3824 187.203 41.9158H191.339C191.456 43.1184 192.013 44.1011 193.011 44.8638C194.037 45.6264 195.372 46.0078 197.015 46.0078C198.54 46.0078 199.743 45.6704 200.623 44.9958C201.503 44.3211 201.943 43.4704 201.943 42.4438C201.943 41.3878 201.473 40.6104 200.535 40.1118C199.596 39.5838 198.144 39.0704 196.179 38.5718C194.389 38.1024 192.923 37.6331 191.779 37.1638C190.664 36.6651 189.696 35.9464 188.875 35.0078C188.083 34.0398 187.687 32.7784 187.687 31.2238C187.687 29.9918 188.053 28.8624 188.787 27.8358C189.52 26.8091 190.561 26.0024 191.911 25.4158C193.26 24.7998 194.8 24.4918 196.531 24.4918C199.2 24.4918 201.356 25.1664 202.999 26.5158C204.641 27.8651 205.521 29.7131 205.639 32.0598H201.635C201.547 30.7984 201.033 29.7864 200.095 29.0238C199.185 28.2611 197.953 27.8798 196.399 27.8798C194.961 27.8798 193.817 28.1878 192.967 28.8038C192.116 29.4198 191.691 30.2264 191.691 31.2238C191.691 32.0158 191.94 32.6758 192.439 33.2038C192.967 33.7024 193.612 34.1131 194.375 34.4358C195.167 34.7291 196.252 35.0664 197.631 35.4478C199.361 35.9171 200.769 36.3864 201.855 36.8558C202.94 37.2958 203.864 37.9704 204.627 38.8798C205.419 39.7891 205.829 40.9771 205.859 42.4438C205.859 43.7638 205.492 44.9518 204.759 46.0078C204.025 47.0638 202.984 47.8998 201.635 48.5158C200.315 49.1024 198.789 49.3958 197.059 49.3958Z" fill="black"/>
<defs>
<radialGradient id="paint0_radial_119_2462" cx="0" cy="0" r="1" gradientUnits="userSpaceOnUse" gradientTransform="translate(16.2569 33.9999) rotate(90) scale(33.9999 16.2569)">
<stop offset="0.229167" stop-color="white"/>
<stop offset="1" stop-color="#60C3E3"/>
</radialGradient>
</defs>
</svg>
