<svg width="301" height="64" viewBox="0 0 301 64" fill="none" xmlns="http://www.w3.org/2000/svg">
<rect width="301" height="64" fill="black"/>
<path d="M48.756 43.324C47.244 43.324 45.888 43.072 44.688 42.568C43.488 42.04 42.54 41.32 41.844 40.408C41.148 39.472 40.764 38.404 40.692 37.204H44.076C44.172 38.188 44.628 38.992 45.444 39.616C46.284 40.24 47.376 40.552 48.72 40.552C49.968 40.552 50.952 40.276 51.672 39.724C52.392 39.172 52.752 38.476 52.752 37.636C52.752 36.772 52.368 36.136 51.6 35.728C50.832 35.296 49.644 34.876 48.036 34.468C46.572 34.084 45.372 33.7 44.436 33.316C43.524 32.908 42.732 32.32 42.06 31.552C41.412 30.76 41.088 29.728 41.088 28.456C41.088 27.448 41.388 26.524 41.988 25.684C42.588 24.844 43.44 24.184 44.544 23.704C45.648 23.2 46.908 22.948 48.324 22.948C50.508 22.948 52.272 23.5 53.616 24.604C54.96 25.708 55.68 27.22 55.776 29.14H52.5C52.428 28.108 52.008 27.28 51.24 26.656C50.496 26.032 49.488 25.72 48.216 25.72C47.04 25.72 46.104 25.972 45.408 26.476C44.712 26.98 44.364 27.64 44.364 28.456C44.364 29.104 44.568 29.644 44.976 30.076C45.408 30.484 45.936 30.82 46.56 31.084C47.208 31.324 48.096 31.6 49.224 31.912C50.64 32.296 51.792 32.68 52.68 33.064C53.568 33.424 54.324 33.976 54.948 34.72C55.596 35.464 55.932 36.436 55.956 37.636C55.956 38.716 55.656 39.688 55.056 40.552C54.456 41.416 53.604 42.1 52.5 42.604C51.42 43.084 50.172 43.324 48.756 43.324ZM78.5806 32.38C78.5806 33.004 78.5446 33.664 78.4726 34.36H62.7046C62.8246 36.304 63.4846 37.828 64.6846 38.932C65.9086 40.012 67.3846 40.552 69.1126 40.552C70.5286 40.552 71.7046 40.228 72.6406 39.58C73.6006 38.908 74.2726 38.02 74.6566 36.916H78.1846C77.6566 38.812 76.6006 40.36 75.0166 41.56C73.4326 42.736 71.4646 43.324 69.1126 43.324C67.2406 43.324 65.5606 42.904 64.0726 42.064C62.6086 41.224 61.4566 40.036 60.6166 38.5C59.7766 36.94 59.3566 35.14 59.3566 33.1C59.3566 31.06 59.7646 29.272 60.5806 27.736C61.3966 26.2 62.5366 25.024 64.0006 24.208C65.4886 23.368 67.1926 22.948 69.1126 22.948C70.9846 22.948 72.6406 23.356 74.0806 24.172C75.5206 24.988 76.6246 26.116 77.3926 27.556C78.1846 28.972 78.5806 30.58 78.5806 32.38ZM75.1966 31.696C75.1966 30.448 74.9206 29.38 74.3686 28.492C73.8166 27.58 73.0606 26.896 72.1006 26.44C71.1646 25.96 70.1206 25.72 68.9686 25.72C67.3126 25.72 65.8966 26.248 64.7206 27.304C63.5686 28.36 62.9086 29.824 62.7406 31.696H75.1966ZM92.5168 22.912C94.9168 22.912 96.8608 23.644 98.3488 25.108C99.8368 26.548 100.581 28.636 100.581 31.372V43H97.3408V31.84C97.3408 29.872 96.8488 28.372 95.8648 27.34C94.8808 26.284 93.5368 25.756 91.8328 25.756C90.1048 25.756 88.7248 26.296 87.6928 27.376C86.6848 28.456 86.1808 30.028 86.1808 32.092V43H82.9048V23.272H86.1808V26.08C86.8288 25.072 87.7048 24.292 88.8088 23.74C89.9368 23.188 91.1728 22.912 92.5168 22.912ZM107.696 20.068C107.072 20.068 106.544 19.852 106.112 19.42C105.704 18.988 105.5 18.46 105.5 17.836C105.5 17.212 105.704 16.684 106.112 16.252C106.544 15.82 107.072 15.604 107.696 15.604C108.32 15.604 108.836 15.82 109.244 16.252C109.676 16.684 109.892 17.212 109.892 17.836C109.892 18.46 109.676 18.988 109.244 19.42C108.836 19.852 108.32 20.068 107.696 20.068ZM109.316 47.284C109.316 49.036 108.872 50.32 107.984 51.136C107.096 51.952 105.8 52.36 104.096 52.36H102.188V49.588H103.556C104.468 49.588 105.104 49.408 105.464 49.048C105.848 48.688 106.04 48.076 106.04 47.212V23.272H109.316V47.284ZM132.358 23.272V43H129.082V40.084C128.458 41.092 127.582 41.884 126.454 42.46C125.35 43.012 124.126 43.288 122.782 43.288C121.246 43.288 119.866 42.976 118.642 42.352C117.418 41.704 116.446 40.744 115.726 39.472C115.03 38.2 114.682 36.652 114.682 34.828V23.272H117.922V34.396C117.922 36.34 118.414 37.84 119.398 38.896C120.382 39.928 121.726 40.444 123.43 40.444C125.182 40.444 126.562 39.904 127.57 38.824C128.578 37.744 129.082 36.172 129.082 34.108V23.272H132.358ZM147.501 22.912C149.901 22.912 151.845 23.644 153.333 25.108C154.821 26.548 155.565 28.636 155.565 31.372V43H152.325V31.84C152.325 29.872 151.833 28.372 150.849 27.34C149.865 26.284 148.521 25.756 146.817 25.756C145.089 25.756 143.709 26.296 142.677 27.376C141.669 28.456 141.165 30.028 141.165 32.092V43H137.889V23.272H141.165V26.08C141.813 25.072 142.689 24.292 143.793 23.74C144.921 23.188 146.157 22.912 147.501 22.912ZM174.597 28.42V31.192H160.233V28.42H174.597ZM184.741 25.972V37.6C184.741 38.56 184.945 39.244 185.353 39.652C185.761 40.036 186.469 40.228 187.477 40.228H189.889V43H186.937C185.113 43 183.745 42.58 182.833 41.74C181.921 40.9 181.465 39.52 181.465 37.6V25.972H178.909V23.272H181.465V18.304H184.741V23.272H189.889V25.972H184.741ZM211.858 32.38C211.858 33.004 211.822 33.664 211.75 34.36H195.982C196.102 36.304 196.762 37.828 197.962 38.932C199.186 40.012 200.662 40.552 202.39 40.552C203.806 40.552 204.982 40.228 205.918 39.58C206.878 38.908 207.55 38.02 207.934 36.916H211.462C210.934 38.812 209.878 40.36 208.294 41.56C206.71 42.736 204.742 43.324 202.39 43.324C200.518 43.324 198.838 42.904 197.35 42.064C195.886 41.224 194.734 40.036 193.894 38.5C193.054 36.94 192.634 35.14 192.634 33.1C192.634 31.06 193.042 29.272 193.858 27.736C194.674 26.2 195.814 25.024 197.278 24.208C198.766 23.368 200.47 22.948 202.39 22.948C204.262 22.948 205.918 23.356 207.358 24.172C208.798 24.988 209.902 26.116 210.67 27.556C211.462 28.972 211.858 30.58 211.858 32.38ZM208.474 31.696C208.474 30.448 208.198 29.38 207.646 28.492C207.094 27.58 206.338 26.896 205.378 26.44C204.442 25.96 203.398 25.72 202.246 25.72C200.59 25.72 199.174 26.248 197.998 27.304C196.846 28.36 196.186 29.824 196.018 31.696H208.474ZM214.958 33.064C214.958 31.048 215.366 29.284 216.182 27.772C216.998 26.236 218.114 25.048 219.53 24.208C220.97 23.368 222.566 22.948 224.318 22.948C226.046 22.948 227.546 23.32 228.818 24.064C230.09 24.808 231.038 25.744 231.662 26.872V23.272H234.974V43H231.662V39.328C231.014 40.48 230.042 41.44 228.746 42.208C227.474 42.952 225.986 43.324 224.282 43.324C222.53 43.324 220.946 42.892 219.53 42.028C218.114 41.164 216.998 39.952 216.182 38.392C215.366 36.832 214.958 35.056 214.958 33.064ZM231.662 33.1C231.662 31.612 231.362 30.316 230.762 29.212C230.162 28.108 229.346 27.268 228.314 26.692C227.306 26.092 226.19 25.792 224.966 25.792C223.742 25.792 222.626 26.08 221.618 26.656C220.61 27.232 219.806 28.072 219.206 29.176C218.606 30.28 218.306 31.576 218.306 33.064C218.306 34.576 218.606 35.896 219.206 37.024C219.806 38.128 220.61 38.98 221.618 39.58C222.626 40.156 223.742 40.444 224.966 40.444C226.19 40.444 227.306 40.156 228.314 39.58C229.346 38.98 230.162 38.128 230.762 37.024C231.362 35.896 231.662 34.588 231.662 33.1ZM264.234 22.912C265.77 22.912 267.138 23.236 268.338 23.884C269.538 24.508 270.486 25.456 271.182 26.728C271.878 28 272.226 29.548 272.226 31.372V43H268.986V31.84C268.986 29.872 268.494 28.372 267.51 27.34C266.55 26.284 265.242 25.756 263.586 25.756C261.882 25.756 260.526 26.308 259.518 27.412C258.51 28.492 258.006 30.064 258.006 32.128V43H254.766V31.84C254.766 29.872 254.274 28.372 253.29 27.34C252.33 26.284 251.022 25.756 249.366 25.756C247.662 25.756 246.306 26.308 245.298 27.412C244.29 28.492 243.786 30.064 243.786 32.128V43H240.51V23.272H243.786V26.116C244.434 25.084 245.298 24.292 246.378 23.74C247.482 23.188 248.694 22.912 250.014 22.912C251.67 22.912 253.134 23.284 254.406 24.028C255.678 24.772 256.626 25.864 257.25 27.304C257.802 25.912 258.714 24.832 259.986 24.064C261.258 23.296 262.674 22.912 264.234 22.912ZM284.584 43.324C283.072 43.324 281.716 43.072 280.516 42.568C279.316 42.04 278.368 41.32 277.672 40.408C276.976 39.472 276.592 38.404 276.52 37.204H279.904C280 38.188 280.456 38.992 281.272 39.616C282.112 40.24 283.204 40.552 284.548 40.552C285.796 40.552 286.78 40.276 287.5 39.724C288.22 39.172 288.58 38.476 288.58 37.636C288.58 36.772 288.196 36.136 287.428 35.728C286.66 35.296 285.472 34.876 283.864 34.468C282.4 34.084 281.2 33.7 280.264 33.316C279.352 32.908 278.56 32.32 277.888 31.552C277.24 30.76 276.916 29.728 276.916 28.456C276.916 27.448 277.216 26.524 277.816 25.684C278.416 24.844 279.268 24.184 280.372 23.704C281.476 23.2 282.736 22.948 284.152 22.948C286.336 22.948 288.1 23.5 289.444 24.604C290.788 25.708 291.508 27.22 291.604 29.14H288.328C288.256 28.108 287.836 27.28 287.068 26.656C286.324 26.032 285.316 25.72 284.044 25.72C282.868 25.72 281.932 25.972 281.236 26.476C280.54 26.98 280.192 27.64 280.192 28.456C280.192 29.104 280.396 29.644 280.804 30.076C281.236 30.484 281.764 30.82 282.388 31.084C283.036 31.324 283.924 31.6 285.052 31.912C286.468 32.296 287.62 32.68 288.508 33.064C289.396 33.424 290.152 33.976 290.776 34.72C291.424 35.464 291.76 36.436 291.784 37.636C291.784 38.716 291.484 39.688 290.884 40.552C290.284 41.416 289.432 42.1 288.328 42.604C287.248 43.084 286 43.324 284.584 43.324Z" fill="white"/>
<path fill-rule="evenodd" clip-rule="evenodd" d="M19.2854 45.8512C20.1386 46.1491 21.1004 46.1555 21.9592 45.8688C22.8181 45.5822 23.5036 45.0261 23.865 44.3228C24.2265 43.6196 24.2342 42.8267 23.8865 42.1188L12.0872 18.0947C11.3918 16.6787 11.4072 15.0931 12.13 13.6866C12.8529 12.28 14.224 11.1678 15.9417 10.5946C17.6594 10.0213 19.5829 10.034 21.2893 10.6299C22.9956 11.2257 24.3449 12.3559 25.0403 13.7719C25.388 14.4798 26.0626 15.0449 26.9158 15.3428C27.7689 15.6408 28.7307 15.6471 29.5896 15.3605C30.4484 15.0739 31.134 14.5178 31.4954 13.8145C31.8568 13.1112 31.8645 12.3184 31.5168 11.6105C30.126 8.77863 27.4274 6.51823 24.0148 5.32652C20.6021 4.1348 16.755 4.10938 13.3196 5.25586C9.88423 6.40234 7.14207 8.6268 5.69636 11.4399C4.25065 14.253 4.21982 17.4242 5.61065 20.2561L17.4099 44.2802C17.7576 44.9881 18.4323 45.5532 19.2854 45.8512ZM21.4372 15.5626C20.584 15.2647 19.6222 15.2584 18.7634 15.545C17.9046 15.8316 17.219 16.3877 16.8576 17.091C16.4962 17.7942 16.4885 18.5871 16.8362 19.295L28.6354 43.3192C29.3309 44.7351 29.3154 46.3207 28.5926 47.7272C27.8697 49.1338 26.4986 50.246 24.781 50.8193C23.0633 51.3925 21.1397 51.3798 19.4334 50.7839C17.7271 50.1881 16.3778 49.0579 15.6824 47.642C15.3347 46.934 14.66 46.3689 13.8069 46.071C12.9537 45.773 11.9919 45.7667 11.1331 46.0533C10.2742 46.3399 9.58868 46.896 9.22725 47.5993C8.86583 48.3026 8.85812 49.0954 9.20582 49.8034C10.5967 52.6352 13.2952 54.8956 16.7078 56.0873C20.1205 57.279 23.9677 57.3044 27.403 56.158C30.8384 55.0115 33.5806 52.787 35.0263 49.9739C36.472 47.1609 36.5028 43.9896 35.112 41.1578L23.3127 17.1336C22.965 16.4257 22.2904 15.8606 21.4372 15.5626Z" fill="url(#paint0_radial_50_1838)"/>
<defs>
<radialGradient id="paint0_radial_50_1838" cx="0" cy="0" r="1" gradientUnits="userSpaceOnUse" gradientTransform="translate(20.3613 30.7069) rotate(90) scale(26.2929 15.772)">
<stop offset="0.229167" stop-color="white"/>
<stop offset="1" stop-color="#60C3E3"/>
</radialGradient>
</defs>
</svg>
