<svg width="301" height="68" viewBox="0 0 301 68" fill="none" xmlns="http://www.w3.org/2000/svg">
<rect width="301" height="64" fill="black"/>
<path fill-rule="evenodd" clip-rule="evenodd" d="M15.1481 53.583C16.0275 53.9683 17.0188 53.9765 17.9041 53.6059C18.7893 53.2352 19.496 52.5161 19.8685 51.6067C20.2411 50.6973 20.249 49.6721 19.8906 48.7566L7.72843 17.6907C7.01163 15.8597 7.02752 13.8093 7.77261 11.9905C8.51769 10.1717 9.93094 8.73344 11.7015 7.99218C13.472 7.25091 15.4547 7.26734 17.2135 8.03786C18.9723 8.80837 20.3631 10.2698 21.0799 12.1008C21.4383 13.0162 22.1337 13.747 23.0131 14.1322C23.8925 14.5175 24.8838 14.5257 25.7691 14.1551C26.6544 13.7845 27.361 13.0653 27.7335 12.1559C28.1061 11.2465 28.114 10.2213 27.7556 9.30584C26.322 5.64397 23.5405 2.72102 20.0229 1.17999C16.5053 -0.361033 12.5398 -0.3939 8.99875 1.08863C5.45772 2.57116 2.63123 5.44764 1.14105 9.08528C-0.349119 12.7229 -0.3809 16.8237 1.0527 20.4856L13.2149 51.5516C13.5733 52.467 14.2687 53.1978 15.1481 53.583ZM17.3658 14.4167C16.4864 14.0314 15.495 14.0232 14.6098 14.3938C13.7245 14.7645 13.0179 15.4836 12.6453 16.393C12.2728 17.3024 12.2649 18.3276 12.6233 19.2431L24.7854 50.3091C25.5022 52.14 25.4863 54.1904 24.7413 56.0092C23.9962 57.8281 22.5829 59.2663 20.8124 60.0076C19.0419 60.7488 17.0591 60.7324 15.3004 59.9619C13.5416 59.1914 12.1508 57.7299 11.434 55.8989C11.0756 54.9835 10.3802 54.2527 9.50078 53.8675C8.62138 53.4822 7.63001 53.474 6.74475 53.8446C5.8595 54.2153 5.15287 54.9344 4.78033 55.8438C4.40779 56.7532 4.39984 57.7784 4.75824 58.6939C6.19185 62.3558 8.9734 65.2787 12.491 66.8197C16.0086 68.3608 19.9741 68.3936 23.5151 66.9111C27.0561 65.4286 29.8826 62.5521 31.3728 58.9145C32.863 55.2768 32.8948 51.176 31.4612 47.5141L19.299 16.4481C18.9406 15.5327 18.2452 14.8019 17.3658 14.4167Z" fill="url(#paint0_radial_50_1838)"/>
<path d="M51.4379 49.3959C49.5899 49.3959 47.9326 49.0879 46.4659 48.4719C44.9992 47.8265 43.8406 46.9465 42.9899 45.8319C42.1392 44.6879 41.6699 43.3825 41.5819 41.9159H45.7179C45.8352 43.1185 46.3926 44.1012 47.3899 44.8639C48.4166 45.6265 49.7512 46.0079 51.3939 46.0079C52.9193 46.0079 54.1219 45.6705 55.0019 44.9959C55.8819 44.3212 56.3219 43.4705 56.3219 42.4439C56.3219 41.3879 55.8526 40.6105 54.9139 40.1119C53.9753 39.5839 52.5233 39.0705 50.5579 38.5719C48.7686 38.1025 47.3019 37.6332 46.1579 37.1639C45.0432 36.6652 44.0752 35.9465 43.2539 35.0079C42.4619 34.0399 42.0659 32.7785 42.0659 31.2239C42.0659 29.9919 42.4326 28.8625 43.1659 27.8359C43.8992 26.8092 44.9406 26.0025 46.2899 25.4159C47.6392 24.7999 49.1792 24.4919 50.9099 24.4919C53.5793 24.4919 55.7353 25.1665 57.3779 26.5159C59.0206 27.8652 59.9006 29.7132 60.0179 32.0599H56.0139C55.9259 30.7985 55.4126 29.7865 54.4739 29.0239C53.5646 28.2612 52.3326 27.8799 50.7779 27.8799C49.3406 27.8799 48.1966 28.1879 47.3459 28.8039C46.4952 29.4199 46.0699 30.2265 46.0699 31.2239C46.0699 32.0159 46.3192 32.6759 46.8179 33.2039C47.3459 33.7025 47.9912 34.1132 48.7539 34.4359C49.5459 34.7292 50.6313 35.0665 52.0099 35.4479C53.7406 35.9172 55.1486 36.3865 56.2339 36.8559C57.3193 37.2959 58.2433 37.9705 59.0059 38.8799C59.7979 39.7892 60.2086 40.9772 60.2379 42.4439C60.2379 43.7639 59.8712 44.9519 59.1379 46.0079C58.4046 47.0639 57.3633 47.8999 56.0139 48.5159C54.6939 49.1025 53.1686 49.3959 51.4379 49.3959ZM87.8902 36.0199C87.8902 36.7825 87.8462 37.5892 87.7582 38.4399H68.4862C68.6329 40.8159 69.4395 42.6785 70.9062 44.0279C72.4022 45.3479 74.2062 46.0079 76.3182 46.0079C78.0489 46.0079 79.4862 45.6119 80.6302 44.8199C81.8035 43.9985 82.6249 42.9132 83.0942 41.5639H87.4062C86.7609 43.8812 85.4702 45.7732 83.5342 47.2399C81.5982 48.6772 79.1929 49.3959 76.3182 49.3959C74.0302 49.3959 71.9769 48.8825 70.1582 47.8559C68.3689 46.8292 66.9609 45.3772 65.9342 43.4999C64.9075 41.5932 64.3942 39.3932 64.3942 36.8999C64.3942 34.4065 64.8929 32.2212 65.8902 30.3439C66.8875 28.4665 68.2809 27.0292 70.0702 26.0319C71.8889 25.0052 73.9715 24.4919 76.3182 24.4919C78.6062 24.4919 80.6302 24.9905 82.3902 25.9879C84.1502 26.9852 85.4995 28.3639 86.4382 30.1239C87.4062 31.8545 87.8902 33.8199 87.8902 36.0199ZM83.7542 35.1839C83.7542 33.6585 83.4169 32.3532 82.7422 31.2679C82.0675 30.1532 81.1435 29.3172 79.9702 28.7599C78.8262 28.1732 77.5502 27.8799 76.1422 27.8799C74.1182 27.8799 72.3875 28.5252 70.9502 29.8159C69.5422 31.1065 68.7355 32.8959 68.5302 35.1839H83.7542ZM104.923 24.4479C107.857 24.4479 110.233 25.3425 112.051 27.1319C113.87 28.8919 114.779 31.4439 114.779 34.7879V48.9999H110.819V35.3599C110.819 32.9545 110.218 31.1212 109.015 29.8599C107.813 28.5692 106.17 27.9239 104.087 27.9239C101.975 27.9239 100.289 28.5839 99.0274 29.9039C97.7954 31.2239 97.1794 33.1452 97.1794 35.6679V48.9999H93.1754V24.8879H97.1794V28.3199C97.9714 27.0879 99.042 26.1345 100.391 25.4599C101.77 24.7852 103.281 24.4479 104.923 24.4479ZM123.476 20.9719C122.713 20.9719 122.068 20.7079 121.54 20.1799C121.041 19.6519 120.792 19.0065 120.792 18.2439C120.792 17.4812 121.041 16.8359 121.54 16.3079C122.068 15.7799 122.713 15.5159 123.476 15.5159C124.239 15.5159 124.869 15.7799 125.368 16.3079C125.896 16.8359 126.16 17.4812 126.16 18.2439C126.16 19.0065 125.896 19.6519 125.368 20.1799C124.869 20.7079 124.239 20.9719 123.476 20.9719ZM125.456 54.2359C125.456 56.3772 124.913 57.9465 123.828 58.9439C122.743 59.9412 121.159 60.4399 119.076 60.4399H116.744V57.0519H118.416C119.531 57.0519 120.308 56.8319 120.748 56.3919C121.217 55.9519 121.452 55.2039 121.452 54.1479V24.8879H125.456V54.2359ZM153.618 24.8879V48.9999H149.614V45.4359C148.851 46.6679 147.781 47.6359 146.402 48.3399C145.053 49.0145 143.557 49.3519 141.914 49.3519C140.037 49.3519 138.35 48.9705 136.854 48.2079C135.358 47.4159 134.17 46.2425 133.29 44.6879C132.439 43.1332 132.014 41.2412 132.014 39.0119V24.8879H135.974V38.4839C135.974 40.8599 136.575 42.6932 137.778 43.9839C138.981 45.2452 140.623 45.8759 142.706 45.8759C144.847 45.8759 146.534 45.2159 147.766 43.8959C148.998 42.5759 149.614 40.6545 149.614 38.1319V24.8879H153.618ZM172.126 24.4479C175.06 24.4479 177.436 25.3425 179.254 27.1319C181.073 28.8919 181.982 31.4439 181.982 34.7879V48.9999H178.022V35.3599C178.022 32.9545 177.421 31.1212 176.218 29.8599C175.016 28.5692 173.373 27.9239 171.29 27.9239C169.178 27.9239 167.492 28.5839 166.23 29.9039C164.998 31.2239 164.382 33.1452 164.382 35.6679V48.9999H160.378V24.8879H164.382V28.3199C165.174 27.0879 166.245 26.1345 167.594 25.4599C168.973 24.7852 170.484 24.4479 172.126 24.4479ZM197.059 49.3959C195.211 49.3959 193.554 49.0879 192.087 48.4719C190.62 47.8265 189.462 46.9465 188.611 45.8319C187.76 44.6879 187.291 43.3825 187.203 41.9159H191.339C191.456 43.1185 192.014 44.1012 193.011 44.8639C194.038 45.6265 195.372 46.0079 197.015 46.0079C198.54 46.0079 199.743 45.6705 200.623 44.9959C201.503 44.3212 201.943 43.4705 201.943 42.4439C201.943 41.3879 201.474 40.6105 200.535 40.1119C199.596 39.5839 198.144 39.0705 196.179 38.5719C194.39 38.1025 192.923 37.6332 191.779 37.1639C190.664 36.6652 189.696 35.9465 188.875 35.0079C188.083 34.0399 187.687 32.7785 187.687 31.2239C187.687 29.9919 188.054 28.8625 188.787 27.8359C189.52 26.8092 190.562 26.0025 191.911 25.4159C193.26 24.7999 194.8 24.4919 196.531 24.4919C199.2 24.4919 201.356 25.1665 202.999 26.5159C204.642 27.8652 205.522 29.7132 205.639 32.0599H201.635C201.547 30.7985 201.034 29.7865 200.095 29.0239C199.186 28.2612 197.954 27.8799 196.399 27.8799C194.962 27.8799 193.818 28.1879 192.967 28.8039C192.116 29.4199 191.691 30.2265 191.691 31.2239C191.691 32.0159 191.94 32.6759 192.439 33.2039C192.967 33.7025 193.612 34.1132 194.375 34.4359C195.167 34.7292 196.252 35.0665 197.631 35.4479C199.362 35.9172 200.77 36.3865 201.855 36.8559C202.94 37.2959 203.864 37.9705 204.627 38.8799C205.419 39.7892 205.83 40.9772 205.859 42.4439C205.859 43.7639 205.492 44.9519 204.759 46.0079C204.026 47.0639 202.984 47.8999 201.635 48.5159C200.315 49.1025 198.79 49.3959 197.059 49.3959Z" fill="white"/>
<defs>
<radialGradient id="paint0_radial_50_1838" cx="0" cy="0" r="1" gradientUnits="userSpaceOnUse" gradientTransform="translate(16.2569 33.9999) rotate(90) scale(33.9999 16.2569)">
<stop offset="0.229167" stop-color="white"/>
<stop offset="1" stop-color="#60C3E3"/>
</radialGradient>
</defs>
</svg>
