<svg width="138" height="25" viewBox="0 0 138 25" fill="none" xmlns="http://www.w3.org/2000/svg">
<g clip-path="url(#clip0_213_12327)">
<path d="M41.8535 10.5224C40.778 9.3864 39.33 8.8072 37.5548 8.8072C36.2979 8.8072 35.1706 9.124 34.2084 9.7448C33.431 10.2472 32.8284 10.9224 32.4106 11.7576V9.0504H29.0189V24.164H32.4073V16.1352C32.4073 14.6696 32.7701 13.5496 33.486 12.7976C34.1987 12.0488 35.1641 11.6712 36.3529 11.6712C37.5062 11.6712 38.4229 12.0232 39.0838 12.7176C39.7446 13.4152 40.0815 14.42 40.0815 15.7032V24.1608H43.47V15.38C43.4732 13.2936 42.929 11.6552 41.8535 10.5224Z" fill="currentColor"/>
<path d="M60.0559 17.2392C60.1304 16.852 60.166 16.4008 60.166 15.8952C60.166 14.5864 59.8615 13.38 59.2622 12.3144C58.6629 11.2456 57.7915 10.3944 56.6739 9.7832C55.5563 9.172 54.2379 8.8648 52.7477 8.8648C51.277 8.8648 49.9586 9.1784 48.8215 9.796C47.6845 10.4168 46.7807 11.3224 46.136 12.4904C45.4914 13.6552 45.1642 15.0344 45.1642 16.596C45.1642 18.1736 45.4914 19.5656 46.136 20.7272C46.7807 21.8952 47.6845 22.8008 48.8215 23.4216C49.9553 24.0392 51.2738 24.3528 52.7477 24.3528C54.0143 24.3528 55.1805 24.1192 56.2139 23.652C57.2473 23.188 58.0993 22.5352 58.7472 21.7128C59.395 20.8904 59.8259 19.94 60.0267 18.8808L60.0591 18.7144H56.4471L56.4245 18.8296C56.269 19.652 55.8414 20.3208 55.1579 20.8168C54.4679 21.316 53.6126 21.572 52.6117 21.572C51.4714 21.572 50.506 21.2136 49.7383 20.5064C48.9964 19.8248 48.5818 18.7656 48.5073 17.3576H60.0332L60.0559 17.2392ZM49.7933 12.66C50.5805 11.9528 51.575 11.5912 52.7509 11.5912C53.4863 11.5912 54.1763 11.7448 54.8015 12.0488C55.417 12.3496 55.9094 12.82 56.2657 13.4472C56.5443 13.9368 56.6966 14.5288 56.7387 15.204H48.5624C48.7146 14.1096 49.1293 13.2584 49.7933 12.66Z" fill="currentColor"/>
<path d="M74.1831 11.956C73.762 11.124 73.1497 10.4296 72.3626 9.8856C71.3778 9.2072 70.1792 8.8648 68.7927 8.8648C67.4645 8.8648 66.2627 9.1784 65.2164 9.7992C64.17 10.42 63.3407 11.3288 62.7512 12.4936C62.1616 13.6552 61.8636 15.0376 61.8636 16.596C61.8636 18.1736 62.1616 19.5624 62.7512 20.724C63.3407 21.892 64.17 22.7976 65.2164 23.4184C66.2595 24.0392 67.4613 24.3528 68.7927 24.3528C70.1792 24.3528 71.381 24.0104 72.3626 23.332C73.153 22.788 73.762 22.0936 74.1831 21.2616V24.1672H77.5716V9.0536H74.1831V11.956ZM73.6 19.1112C73.2145 19.8216 72.6833 20.3784 72.0159 20.7656C71.3519 21.156 70.5874 21.3512 69.7451 21.3512C68.4105 21.3512 67.3317 20.9256 66.5381 20.0904C65.7412 19.252 65.3362 18.0744 65.3362 16.5928C65.3362 15.1112 65.7412 13.9336 66.5381 13.0952C67.3317 12.2568 68.4137 11.8344 69.7451 11.8344C70.5874 11.8344 71.3519 12.0328 72.0159 12.42C72.68 12.8072 73.2113 13.3704 73.6 14.0872C73.9855 14.8104 74.1831 15.652 74.1831 16.5928C74.1831 17.5528 73.9855 18.4008 73.6 19.1112Z" fill="currentColor"/>
<path d="M93.1467 5.3608H89.7583V24.164H93.1467V5.3608Z" fill="currentColor"/>
<path d="M109.749 17.3512L109.772 17.236C109.846 16.8488 109.882 16.3976 109.882 15.892C109.882 14.5832 109.577 13.3768 108.978 12.3112C108.379 11.2424 107.507 10.3912 106.39 9.78C105.272 9.1688 103.953 8.8616 102.463 8.8616C100.993 8.8616 99.6742 9.1752 98.5372 9.7928C97.4001 10.4136 96.4963 11.3192 95.8517 12.4872C95.207 13.652 94.8798 15.0312 94.8798 16.5928C94.8798 18.1704 95.207 19.5624 95.8517 20.724C96.4963 21.892 97.4001 22.7976 98.5372 23.4184C99.671 24.036 100.989 24.3496 102.463 24.3496C103.73 24.3496 104.896 24.116 105.93 23.6488C106.963 23.1848 107.815 22.532 108.463 21.7096C109.111 20.8872 109.542 19.9368 109.742 18.8776L109.775 18.7112H106.163L106.14 18.8264C105.985 19.6488 105.557 20.3176 104.873 20.8136C104.183 21.3128 103.328 21.5688 102.327 21.5688C101.187 21.5688 100.222 21.2104 99.4539 20.5032C98.7121 19.8216 98.2974 18.7624 98.2229 17.3544H109.749V17.3512ZM99.5057 12.66C100.293 11.9528 101.287 11.5912 102.463 11.5912C103.199 11.5912 103.889 11.7448 104.514 12.0488C105.129 12.3496 105.622 12.82 105.978 13.4472C106.257 13.9368 106.409 14.5288 106.451 15.204H98.2748C98.4302 14.1096 98.8417 13.2584 99.5057 12.66Z" fill="currentColor"/>
<path d="M123.895 11.956C123.474 11.124 122.862 10.4296 122.075 9.8856C121.09 9.2072 119.892 8.8648 118.505 8.8648C117.177 8.8648 115.975 9.1784 114.929 9.7992C113.882 10.42 113.053 11.3288 112.463 12.4936C111.874 13.6552 111.576 15.0376 111.576 16.596C111.576 18.1736 111.874 19.5624 112.463 20.724C113.053 21.892 113.882 22.7976 114.929 23.4184C115.972 24.0392 117.174 24.3528 118.505 24.3528C119.892 24.3528 121.09 24.0104 122.075 23.332C122.865 22.788 123.474 22.0936 123.895 21.2616V24.1672H127.284V9.0536H123.895V11.956ZM123.312 19.1112C122.927 19.8216 122.396 20.3784 121.728 20.7656C121.064 21.156 120.3 21.3512 119.457 21.3512C118.123 21.3512 117.044 20.9256 116.25 20.0904C115.453 19.252 115.049 18.0744 115.049 16.5928C115.049 15.1112 115.453 13.9336 116.25 13.0952C117.044 12.2568 118.126 11.8344 119.457 11.8344C120.3 11.8344 121.064 12.0328 121.728 12.42C122.392 12.8072 122.924 13.3704 123.312 14.0872C123.698 14.8104 123.895 15.652 123.895 16.5928C123.895 17.5528 123.701 18.4008 123.312 19.1112Z" fill="currentColor"/>
<path d="M137.592 6.36241L137.741 6.3688V3.396L137.608 3.3896C135.434 3.2808 133.779 3.6936 132.684 4.6216C131.583 5.5528 131.025 6.9608 131.025 8.80721V9.0504H128.981V11.9688H131.025V24.164H134.443V11.9688H137.741V9.0504H134.443C134.443 8.0392 134.676 7.316 135.133 6.9064C135.59 6.4936 136.416 6.30801 137.592 6.36241Z" fill="currentColor"/>
<path d="M84.8376 5.3608H81.42V9.0504H79.2657V11.94H81.42V24.164H84.8376V11.94H88.0381V9.0504H84.8376V5.3608Z" fill="currentColor"/>
<path d="M15.5428 20.9192C17.7683 23.1176 20.7875 24.3528 23.933 24.3528V13.7032C23.933 6.5288 18.0437 0.711201 10.7808 0.711201H7.55437H6.69268C6.69268 0.711201 8.23465 0.893601 10.3208 2.9512C10.3241 2.9544 10.3273 2.9576 10.3306 2.9576L19.401 11.9176C19.997 12.5064 20.3307 13.3032 20.3307 14.1384V15.94L8.39014 4.1448C6.16465 1.9464 3.14549 0.711201 0 0.711201V11.3608C0 18.5352 5.8893 24.3528 13.1521 24.3528H16.3786H17.2403C17.2403 24.3528 15.6983 24.1704 13.6121 22.1128C13.6089 22.1096 13.6056 22.1064 13.6024 22.1064L4.53197 13.1464C3.93592 12.5576 3.60225 11.7608 3.60225 10.9256V9.124L15.5428 20.9192Z" fill="url(#paint0_linear_213_12327)"/>
</g>
<defs>
<linearGradient id="paint0_linear_213_12327" x1="0.037253" y1="0.747233" x2="25.3656" y2="26.3877" gradientUnits="userSpaceOnUse">
<stop offset="0.0977" stop-color="#DD382F"/>
<stop offset="1" stop-color="#FFB94C"/>
</linearGradient>
<clipPath id="clip0_213_12327">
<rect width="138" height="24" fill="currentColor" transform="translate(0 0.5)"/>
</clipPath>
</defs>
</svg>
