<svg width="354" height="353" viewBox="0 0 354 353" fill="none" xmlns="http://www.w3.org/2000/svg">
<path d="M132.919 88.25C132.919 76.559 137.563 65.3469 145.83 57.0801C154.097 48.8133 165.309 44.1691 177 44.1691C188.691 44.1691 199.903 48.8133 208.17 57.0801C216.437 65.3469 221.081 76.559 221.081 88.25C221.081 99.941 216.437 111.153 208.17 119.42C199.903 127.687 188.691 132.331 177 132.331C165.309 132.331 154.097 127.687 145.83 119.42C137.563 111.153 132.919 99.941 132.919 88.25ZM177 66.2316C174.109 66.2316 171.245 66.8011 168.574 67.9077C165.903 69.0142 163.475 70.6361 161.431 72.6807C159.386 74.7253 157.764 77.1525 156.658 79.8239C155.551 82.4953 154.982 85.3585 154.982 88.25C154.982 91.1415 155.551 94.0047 156.658 96.6761C157.764 99.3475 159.386 101.775 161.431 103.819C163.475 105.864 165.903 107.486 168.574 108.592C171.245 109.699 174.109 110.268 177 110.268C182.84 110.268 188.44 107.949 192.569 103.819C196.699 99.6901 199.018 94.0896 199.018 88.25C199.018 82.4104 196.699 76.8099 192.569 72.6807C188.44 68.5514 182.84 66.2316 177 66.2316ZM243.188 99.2812C243.188 94.9353 244.043 90.6319 245.707 86.6168C247.37 82.6017 249.807 78.9535 252.88 75.8804C255.953 72.8074 259.602 70.3697 263.617 68.7066C267.632 67.0435 271.935 66.1875 276.281 66.1875C280.627 66.1875 284.931 67.0435 288.946 68.7066C292.961 70.3697 296.609 72.8074 299.682 75.8804C302.755 78.9535 305.193 82.6017 306.856 86.6168C308.519 90.6319 309.375 94.9353 309.375 99.2812C309.375 108.058 305.888 116.476 299.682 122.682C293.476 128.888 285.058 132.375 276.281 132.375C267.504 132.375 259.087 128.888 252.88 122.682C246.674 116.476 243.188 108.058 243.188 99.2812ZM276.281 88.25C273.356 88.25 270.55 89.4122 268.481 91.481C266.412 93.5497 265.25 96.3556 265.25 99.2812C265.25 102.207 266.412 105.013 268.481 107.082C270.55 109.15 273.356 110.312 276.281 110.312C279.207 110.312 282.013 109.15 284.082 107.082C286.15 105.013 287.312 102.207 287.312 99.2812C287.312 96.3556 286.15 93.5497 284.082 91.481C282.013 89.4122 279.207 88.25 276.281 88.25ZM77.7188 66.1875C68.9417 66.1875 60.5242 69.6742 54.3179 75.8804C48.1117 82.0867 44.625 90.5042 44.625 99.2812C44.625 108.058 48.1117 116.476 54.3179 122.682C60.5242 128.888 68.9417 132.375 77.7188 132.375C86.4958 132.375 94.9133 128.888 101.12 122.682C107.326 116.476 110.812 108.058 110.812 99.2812C110.812 90.5042 107.326 82.0867 101.12 75.8804C94.9133 69.6742 86.4958 66.1875 77.7188 66.1875ZM66.6875 99.2812C66.6875 96.3556 67.8497 93.5497 69.9185 91.481C71.9872 89.4122 74.7931 88.25 77.7188 88.25C80.6444 88.25 83.4503 89.4122 85.519 91.481C87.5878 93.5497 88.75 96.3556 88.75 99.2812C88.75 102.207 87.5878 105.013 85.519 107.082C83.4503 109.15 80.6444 110.312 77.7188 110.312C74.7931 110.312 71.9872 109.15 69.9185 107.082C67.8497 105.013 66.6875 102.207 66.6875 99.2812ZM94.6628 154.438C90.7799 161.141 88.7399 168.753 88.75 176.5H44.625V231.656C44.6232 237.144 45.9862 242.546 48.5911 247.376C51.1961 252.206 54.9613 256.313 59.5478 259.326C64.1343 262.339 69.3982 264.164 74.8655 264.638C80.3329 265.111 85.832 264.217 90.868 262.036C92.5006 269.339 95.0599 276.311 98.3693 282.819C89.9958 286.2 80.9202 287.473 71.9396 286.527C62.959 285.581 54.3481 282.444 46.8631 277.393C39.378 272.341 33.2478 265.529 29.0108 257.554C24.7737 249.579 22.5595 240.687 22.5625 231.656V176.5C22.5625 170.649 24.8869 165.037 29.0245 160.899C33.162 156.762 38.7737 154.438 44.625 154.438H94.6628ZM255.631 282.819C264.004 286.2 273.08 287.473 282.06 286.527C291.041 285.581 299.652 282.444 307.137 277.393C314.622 272.341 320.752 265.529 324.989 257.554C329.226 249.579 331.44 240.687 331.438 231.656V176.5C331.438 170.649 329.113 165.037 324.976 160.899C320.838 156.762 315.226 154.438 309.375 154.438H259.337C263.088 160.924 265.25 168.447 265.25 176.5H309.375V231.656C309.377 237.144 308.014 242.546 305.409 247.376C302.804 252.206 299.039 256.313 294.452 259.326C289.866 262.339 284.602 264.164 279.134 264.638C273.667 265.111 268.168 264.217 263.132 262.036C261.477 269.339 258.94 276.311 255.631 282.819ZM132.875 154.415C127.024 154.415 121.412 156.74 117.274 160.877C113.137 165.015 110.812 170.627 110.812 176.478V242.688C110.812 260.242 117.786 277.077 130.198 289.489C142.611 301.902 159.446 308.875 177 308.875C194.554 308.875 211.389 301.902 223.802 289.489C236.214 277.077 243.188 260.242 243.188 242.688V176.5C243.188 170.649 240.863 165.037 236.726 160.899C232.588 156.762 226.976 154.438 221.125 154.438H132.875V154.415ZM132.875 176.478H221.125V242.688C221.125 254.39 216.476 265.614 208.201 273.889C199.926 282.164 188.703 286.812 177 286.812C165.297 286.812 154.074 282.164 145.799 273.889C137.524 265.614 132.875 254.39 132.875 242.688V176.5V176.478Z" fill="white"/>
</svg>
