<svg width="60" height="60" viewBox="0 0 60 60" fill="none" xmlns="http://www.w3.org/2000/svg">
<path d="M0 20C0 8.9543 8.95431 0 20 0H40C51.0457 0 60 8.95431 60 20V40C60 51.0457 51.0457 60 40 60H20C8.9543 60 0 51.0457 0 40V20Z" fill="#60C3E3"/>
<path d="M23.9431 34.7618C24.7247 34.1817 25.2031 33.2363 25.2031 32.2087V31.5907C25.2031 31.43 25.1908 31.2692 25.1664 31.1098C25.5926 30.5462 25.832 29.8519 25.832 29.1166V28.5C25.832 28.3184 25.8154 28.139 25.7833 27.9633C26.5189 27.4358 27 26.5635 27 25.5769V24.8462C27 23.2339 25.713 21.9231 24.125 21.9231H21.8919L20.5627 20.4177C19.8125 19.5161 18.7074 19 17.526 19H13.9785C12.5365 19 11.2091 19.7815 10.5141 21.0393L9.61973 22.6538H5.07812C4.48066 22.6538 4 23.1425 4 23.7089C4 24.2752 4.48066 24.8462 5.07812 24.8462H10.9135C10.9429 24.786 10.9548 24.7194 10.9871 24.6606L12.395 22.113C12.7059 21.5449 13.3168 21.1923 13.9771 21.1923H17.526C18.079 21.1923 18.5938 21.4335 18.9361 21.8546L19.6418 22.6538H17.6562C17.2609 22.6538 16.9375 22.9827 16.9375 23.3846C16.9375 23.7865 17.259 24.1154 17.6562 24.1154H24.125C24.5216 24.1154 24.8438 24.4437 24.8438 24.8462V25.5769C24.8438 25.9788 24.5217 26.3077 24.125 26.3077H23.4062C22.976 26.3077 22.6857 26.6704 22.6857 27.0453C22.6857 27.3391 22.8662 27.6075 23.1426 27.7181C23.1888 27.7373 23.6758 27.9656 23.6758 28.5V29.118C23.6758 30.0757 22.7962 29.9364 22.7962 30.6832C22.7962 31.0566 23.0471 31.1353 23.0471 31.5912V32.2091C23.0471 33.3756 21.7789 33.0436 21.7789 33.9748C21.7789 33.982 21.779 33.9891 21.7793 33.9962L21.7891 34.6841C21.7891 35.2642 21.2635 35.8077 20.6211 35.8077H14.7812C13.1573 35.8077 11.7571 34.9152 11.0217 33.6154H5.07858C4.48067 33.6154 4 34.1041 4 34.6704C4 35.2368 4.48066 35.8077 5.07812 35.8077H9.93418C11.1516 37.1825 12.9125 38 14.7812 38H20.6211C22.4135 38 23.8806 36.575 23.9431 34.7618Z" fill="white"/>
<path d="M36.0569 34.7618C35.2753 34.1817 34.7969 33.2363 34.7969 32.2087V31.5907C34.7969 31.43 34.8092 31.2692 34.8336 31.1098C34.4074 30.5462 34.168 29.8519 34.168 29.1166V28.5C34.168 28.3184 34.1846 28.139 34.2167 27.9633C33.4811 27.4358 33 26.5635 33 25.5769V24.8462C33 23.2339 34.287 21.9231 35.875 21.9231H38.1081L39.4373 20.4177C40.1875 19.5161 41.2926 19 42.474 19H46.0215C47.4635 19 48.7909 19.7815 49.4859 21.0393L50.3803 22.6538H54.9219C55.5193 22.6538 56 23.1425 56 23.7089C56 24.2752 55.5193 24.8462 54.9219 24.8462H49.0865C49.0571 24.786 49.0452 24.7194 49.0129 24.6606L47.605 22.113C47.2941 21.5449 46.6832 21.1923 46.0229 21.1923H42.474C41.921 21.1923 41.4062 21.4335 41.0639 21.8546L40.3582 22.6538H42.3438C42.7391 22.6538 43.0625 22.9827 43.0625 23.3846C43.0625 23.7865 42.741 24.1154 42.3438 24.1154H35.875C35.4784 24.1154 35.1562 24.4437 35.1562 24.8462V25.5769C35.1562 25.9788 35.4783 26.3077 35.875 26.3077H36.5938C37.024 26.3077 37.3143 26.6704 37.3143 27.0453C37.3143 27.3391 37.1338 27.6075 36.8574 27.7181C36.8112 27.7373 36.3242 27.9656 36.3242 28.5V29.118C36.3242 30.0757 37.2038 29.9364 37.2038 30.6832C37.2038 31.0566 36.9529 31.1353 36.9529 31.5912V32.2091C36.9529 33.3756 38.2211 33.0436 38.2211 33.9748C38.2211 33.982 38.221 33.9891 38.2207 33.9962L38.2109 34.6841C38.2109 35.2642 38.7365 35.8077 39.3789 35.8077H45.2188C46.8427 35.8077 48.2429 34.9152 48.9783 33.6154H54.9214C55.5193 33.6154 56 34.1041 56 34.6704C56 35.2368 55.5193 35.8077 54.9219 35.8077H50.0658C48.8484 37.1825 47.0875 38 45.2188 38H39.3789C37.5865 38 36.1194 36.575 36.0569 34.7618Z" fill="white"/>
</svg>
