<svg width="780" height="225" viewBox="0 0 780 225" fill="none" xmlns="http://www.w3.org/2000/svg">
<path d="M25.4914 74.5H53.9614V94H0.0114455V2.34999H25.4914V74.5ZM89.3489 22.76V37.71H118.599V57.08H89.3489V73.59H122.499V94H63.8689V2.34999H122.499V22.76H89.3489ZM204.12 2.34999V22.63H179.68V94H154.2V22.63H130.02V2.34999H204.12ZM219.787 2.34999H245.527L230.577 39.01H213.547L219.787 2.34999ZM293.068 94.91C282.408 94.91 273.655 92.3967 266.808 87.37C259.961 82.2567 256.278 74.9767 255.758 65.53H282.928C283.188 68.7367 284.141 71.0767 285.788 72.55C287.435 74.0233 289.558 74.76 292.158 74.76C294.498 74.76 296.405 74.1967 297.878 73.07C299.438 71.8567 300.218 70.21 300.218 68.13C300.218 65.4433 298.961 63.3633 296.448 61.89C293.935 60.4167 289.861 58.77 284.228 56.95C278.248 54.9567 273.395 53.05 269.668 51.23C266.028 49.3233 262.821 46.5933 260.048 43.04C257.361 39.4 256.018 34.6767 256.018 28.87C256.018 22.9767 257.491 17.95 260.438 13.79C263.385 9.54333 267.458 6.33666 272.658 4.16999C277.858 2.00333 283.751 0.919997 290.338 0.919997C300.998 0.919997 309.491 3.43333 315.818 8.45999C322.231 13.4 325.655 20.3767 326.088 29.39H298.398C298.311 26.6167 297.445 24.5367 295.798 23.15C294.238 21.7633 292.201 21.07 289.688 21.07C287.781 21.07 286.221 21.6333 285.008 22.76C283.795 23.8867 283.188 25.49 283.188 27.57C283.188 29.3033 283.838 30.82 285.138 32.12C286.525 33.3333 288.215 34.4167 290.208 35.37C292.201 36.2367 295.148 37.3633 299.048 38.75C304.855 40.7433 309.621 42.7367 313.348 44.73C317.161 46.6367 320.411 49.3667 323.098 52.92C325.871 56.3867 327.258 60.8067 327.258 66.18C327.258 71.64 325.871 76.5367 323.098 80.87C320.411 85.2033 316.468 88.6267 311.268 91.14C306.155 93.6533 300.088 94.91 293.068 94.91ZM422.486 32.51C421.013 30.0833 418.976 28.22 416.376 26.92C413.863 25.62 410.873 24.97 407.406 24.97C400.993 24.97 395.923 27.05 392.196 31.21C388.556 35.37 386.736 40.96 386.736 47.98C386.736 55.8667 388.686 61.89 392.586 66.05C396.573 70.1233 402.336 72.16 409.876 72.16C418.803 72.16 425.173 68.13 428.986 60.07H403.376V41.74H450.956V66.44C448.963 71.2933 446.016 75.8433 442.116 80.09C438.303 84.3367 433.449 87.8467 427.556 90.62C421.663 93.3067 414.946 94.65 407.406 94.65C398.219 94.65 390.073 92.7 382.966 88.8C375.946 84.8133 370.486 79.31 366.586 72.29C362.773 65.1833 360.866 57.08 360.866 47.98C360.866 38.9667 362.773 30.95 366.586 23.93C370.486 16.8233 375.946 11.32 382.966 7.42C389.986 3.43333 398.089 1.44 407.276 1.44C418.803 1.44 428.336 4.21333 435.876 9.76C443.416 15.3067 448.096 22.89 449.916 32.51H422.486ZM508.785 94L490.585 60.2H487.855V94H462.375V2.34999H502.545C509.911 2.34999 516.151 3.65 521.265 6.25C526.378 8.76333 530.235 12.2733 532.835 16.78C535.435 21.2 536.735 26.1833 536.735 31.73C536.735 37.97 535.001 43.4733 531.535 48.24C528.155 52.92 523.171 56.2567 516.585 58.25L537.255 94H508.785ZM487.855 42.78H500.465C503.931 42.78 506.531 41.9567 508.265 40.31C509.998 38.6633 510.865 36.28 510.865 33.16C510.865 30.2133 509.955 27.9167 508.135 26.27C506.401 24.5367 503.845 23.67 500.465 23.67H487.855V42.78ZM592.262 94.91C583.682 94.91 575.795 92.9167 568.602 88.93C561.409 84.8567 555.689 79.2667 551.442 72.16C547.282 64.9667 545.202 56.8633 545.202 47.85C545.202 38.8367 547.282 30.7767 551.442 23.67C555.689 16.4767 561.409 10.8867 568.602 6.9C575.795 2.91333 583.682 0.919997 592.262 0.919997C600.929 0.919997 608.815 2.91333 615.922 6.9C623.115 10.8867 628.792 16.4767 632.952 23.67C637.112 30.7767 639.192 38.8367 639.192 47.85C639.192 56.8633 637.112 64.9667 632.952 72.16C628.792 79.2667 623.115 84.8567 615.922 88.93C608.729 92.9167 600.842 94.91 592.262 94.91ZM592.262 71.25C598.762 71.25 603.875 69.1267 607.602 64.88C611.415 60.6333 613.322 54.9567 613.322 47.85C613.322 40.57 611.415 34.85 607.602 30.69C603.875 26.4433 598.762 24.32 592.262 24.32C585.675 24.32 580.519 26.4433 576.792 30.69C573.065 34.85 571.202 40.57 571.202 47.85C571.202 55.0433 573.065 60.7633 576.792 65.01C580.519 69.17 585.675 71.25 592.262 71.25ZM779.736 2.34999L757.246 94H725.916L713.306 37.84L700.436 94H669.106L646.876 2.34999H674.436L685.096 65.01L699.526 2.34999H727.476L741.516 64.49L752.176 2.34999H779.736Z" fill="url(#paint0_linear_213_12336)"/>
<path d="M122.997 132.35V152.63H98.5565V224H73.0765V152.63H48.8965V132.35H122.997ZM176.364 224.91C167.784 224.91 159.897 222.917 152.704 218.93C145.51 214.857 139.79 209.267 135.544 202.16C131.384 194.967 129.304 186.863 129.304 177.85C129.304 168.837 131.384 160.777 135.544 153.67C139.79 146.477 145.51 140.887 152.704 136.9C159.897 132.913 167.784 130.92 176.364 130.92C185.03 130.92 192.917 132.913 200.024 136.9C207.217 140.887 212.894 146.477 217.054 153.67C221.214 160.777 223.294 168.837 223.294 177.85C223.294 186.863 221.214 194.967 217.054 202.16C212.894 209.267 207.217 214.857 200.024 218.93C192.83 222.917 184.944 224.91 176.364 224.91ZM176.364 201.25C182.864 201.25 187.977 199.127 191.704 194.88C195.517 190.633 197.424 184.957 197.424 177.85C197.424 170.57 195.517 164.85 191.704 160.69C187.977 156.443 182.864 154.32 176.364 154.32C169.777 154.32 164.62 156.443 160.894 160.69C157.167 164.85 155.304 170.57 155.304 177.85C155.304 185.043 157.167 190.763 160.894 195.01C164.62 199.17 169.777 201.25 176.364 201.25ZM293.248 162.51C291.774 160.083 289.738 158.22 287.138 156.92C284.624 155.62 281.634 154.97 278.168 154.97C271.754 154.97 266.684 157.05 262.958 161.21C259.318 165.37 257.498 170.96 257.498 177.98C257.498 185.867 259.448 191.89 263.348 196.05C267.334 200.123 273.098 202.16 280.638 202.16C289.564 202.16 295.934 198.13 299.748 190.07H274.138V171.74H321.718V196.44C319.724 201.293 316.778 205.843 312.878 210.09C309.064 214.337 304.211 217.847 298.318 220.62C292.424 223.307 285.708 224.65 278.168 224.65C268.981 224.65 260.834 222.7 253.728 218.8C246.708 214.813 241.248 209.31 237.348 202.29C233.534 195.183 231.628 187.08 231.628 177.98C231.628 168.967 233.534 160.95 237.348 153.93C241.248 146.823 246.708 141.32 253.728 137.42C260.748 133.433 268.851 131.44 278.038 131.44C289.564 131.44 299.098 134.213 306.638 139.76C314.178 145.307 318.858 152.89 320.678 162.51H293.248ZM358.616 152.76V167.71H387.866V187.08H358.616V203.59H391.766V224H333.136V132.35H391.766V152.76H358.616ZM473.387 132.35V152.63H448.947V224H423.467V152.63H399.287V132.35H473.387ZM564.844 132.35V224H539.364V187.21H508.294V224H482.814V132.35H508.294V166.8H539.364V132.35H564.844ZM604.906 152.76V167.71H634.156V187.08H604.906V203.59H638.056V224H579.426V132.35H638.056V152.76H604.906ZM697.056 224L678.856 190.2H676.126V224H650.646V132.35H690.816C698.183 132.35 704.423 133.65 709.536 136.25C714.65 138.763 718.506 142.273 721.106 146.78C723.706 151.2 725.006 156.183 725.006 161.73C725.006 167.97 723.273 173.473 719.806 178.24C716.426 182.92 711.443 186.257 704.856 188.25L725.526 224H697.056ZM676.126 172.78H688.736C692.203 172.78 694.803 171.957 696.536 170.31C698.27 168.663 699.136 166.28 699.136 163.16C699.136 160.213 698.226 157.917 696.406 156.27C694.673 154.537 692.116 153.67 688.736 153.67H676.126V172.78Z" fill="white"/>
<defs>
<linearGradient id="paint0_linear_213_12336" x1="-11.5768" y1="-16.9999" x2="803.837" y2="178.812" gradientUnits="userSpaceOnUse">
<stop stop-color="#DD382F"/>
<stop offset="1" stop-color="#FFB94C"/>
</linearGradient>
</defs>
</svg>
