<svg width="26" height="24" viewBox="0 0 26 24" fill="none" xmlns="http://www.w3.org/2000/svg">
<path d="M25.8886 7.50005C25.8886 10.4777 23.4962 12.9 20.5553 12.9H0.999729C0.509062 12.9 0.11084 12.4968 0.11084 12C0.11084 11.5032 0.509062 11.1 0.999729 11.1H20.5553C22.5157 11.1 24.1108 9.485 24.1108 7.50005C24.1108 5.5151 22.5157 3.90005 20.5553 3.90005C18.5948 3.90005 16.9997 5.5151 16.9997 7.50005C16.9997 7.99685 16.6015 8.40005 16.1108 8.40005C15.6202 8.40005 15.2219 7.99685 15.2219 7.50005C15.2219 4.5224 17.6144 2.10005 20.5553 2.10005C23.4962 2.10005 25.8886 4.5224 25.8886 7.50005ZM0.999729 8.40005H9.88862C12.0944 8.40005 13.8886 6.58295 13.8886 4.35005C13.8886 2.11715 12.0944 0.300049 9.88862 0.300049C7.68284 0.300049 5.88862 2.11715 5.88862 4.35005C5.88862 4.84685 6.28684 5.25005 6.77751 5.25005C7.26817 5.25005 7.66639 4.84685 7.66639 4.35005C7.66639 3.1094 8.66328 2.10005 9.88862 2.10005C11.1139 2.10005 12.1108 3.1094 12.1108 4.35005C12.1108 5.5907 11.1139 6.60005 9.88862 6.60005H0.999729C0.509062 6.60005 0.11084 7.00325 0.11084 7.50005C0.11084 7.99685 0.509062 8.40005 0.999729 8.40005ZM16.1108 15.6H0.999729C0.509062 15.6 0.11084 16.0032 0.11084 16.5C0.11084 16.9968 0.509062 17.4 0.999729 17.4H16.1108C17.3362 17.4 18.3331 18.4094 18.3331 19.65C18.3331 20.8907 17.3362 21.9 16.1108 21.9C14.8855 21.9 13.8886 20.8907 13.8886 19.65C13.8886 19.1532 13.4904 18.75 12.9997 18.75C12.5091 18.75 12.1108 19.1532 12.1108 19.65C12.1108 21.8829 13.9051 23.7001 16.1108 23.7001C18.3166 23.7001 20.1108 21.8829 20.1108 19.65C20.1108 17.4172 18.3166 15.6 16.1108 15.6Z" fill="black"/>
</svg>
