<svg width="17" height="14" viewBox="0 0 17 14" fill="none" xmlns="http://www.w3.org/2000/svg">
  <path d="M11.3999 3.77174H2.60632L4.79272 1.69094C4.98472 1.50854 4.99192 1.20374 4.80952 1.01174C4.62712 0.819737 4.32232 0.812537 4.13032 0.994937L1.07512 3.90374C1.07272 3.90614 1.07272 3.90614 1.07032 3.90854C1.05592 3.92294 1.04392 3.93974 1.02952 3.95414C1.02232 3.96374 1.01512 3.97094 1.00792 3.98054C0.993522 4.00214 0.981521 4.02374 0.971921 4.04774C0.969521 4.05254 0.964722 4.05734 0.962322 4.06454C0.938322 4.12214 0.923922 4.18694 0.923922 4.25414C0.923922 4.32134 0.938322 4.38374 0.962322 4.44374C0.964722 4.44854 0.969521 4.45334 0.971921 4.46054C0.983921 4.48454 0.993522 4.50614 1.00792 4.52774C1.01512 4.53734 1.02232 4.54454 1.02952 4.55414C1.04152 4.57094 1.05592 4.58534 1.07032 4.59974C1.07272 4.60214 1.07272 4.60214 1.07512 4.60454L4.13272 7.51094C4.22632 7.59974 4.34392 7.64294 4.46392 7.64294C4.59112 7.64294 4.71832 7.59254 4.81192 7.49414C4.99432 7.30214 4.98712 6.99734 4.79512 6.81494L2.60872 4.73414H11.3999C13.4519 4.73414 15.1199 6.40454 15.1199 8.45414C15.1199 10.5061 13.4495 12.1741 11.3999 12.1741H1.39992C1.13592 12.1741 0.919922 12.3901 0.919922 12.6541C0.919922 12.9181 1.13592 13.1341 1.39992 13.1341H11.3999C13.9799 13.1341 16.0799 11.0341 16.0799 8.45414C16.0799 5.87174 13.9799 3.77174 11.3999 3.77174Z" fill="black"/>
</svg>
