<svg width="70" height="44" viewBox="0 0 70 44" fill="none" xmlns="http://www.w3.org/2000/svg">
<rect width="70" height="44" rx="20" fill="#ECEDF1"/>
<path d="M30.8333 12.0241H29.6111V11.1566C29.6111 10.694 29.2222 10.2892 28.7778 10.2892C28.3333 10.2892 27.9444 10.694 27.9444 11.1566V12.0241H17.0556V10.8675C17.0556 10.4048 16.6667 10 16.2222 10C15.7778 10 15.3889 10.4048 15.3889 10.8675V12.0241H14.1667C11.8889 12.0241 10 13.9904 10 16.3614V29.6626C10 32.0337 11.8889 34 14.1667 34H30.8333C33.1111 34 35 32.0337 35 29.6626V16.3614C35 13.9325 33.1111 12.0241 30.8333 12.0241ZM14.1667 13.759H15.3889V16.0723C15.3889 16.5349 15.7778 16.9398 16.2222 16.9398C16.6667 16.9398 17.0556 16.5349 17.0556 16.0723V13.759H27.8889V16.3614C27.8889 16.8241 28.2778 17.2289 28.7222 17.2289C29.1667 17.2289 29.5556 16.8241 29.5556 16.3614V13.759H30.8333C32.2222 13.759 33.3333 14.9157 33.3333 16.3614V19.5422H11.6667V16.3614C11.6667 14.9157 12.7778 13.759 14.1667 13.759ZM30.8333 32.2651H14.1667C12.7778 32.2651 11.6667 31.1084 11.6667 29.6626V21.2771H33.3333V29.6626C33.3333 31.0506 32.2222 32.2651 30.8333 32.2651Z" fill="#808080"/>
<ellipse cx="16.9446" cy="26.2355" rx="1.38889" ry="1.41176" fill="#808080"/>
<ellipse cx="22.5002" cy="26.2355" rx="1.38889" ry="1.41176" fill="#808080"/>
<ellipse cx="28.0559" cy="26.2355" rx="1.38889" ry="1.41176" fill="#808080"/>
<path d="M54.5837 20.0002L51.9971 22.5868L49.4104 20.0002C49.1504 19.7402 48.7304 19.7402 48.4704 20.0002C48.2104 20.2602 48.2104 20.6802 48.4704 20.9402L51.5304 24.0002C51.7904 24.2602 52.2104 24.2602 52.4704 24.0002L55.5304 20.9402C55.7904 20.6802 55.7904 20.2602 55.5304 20.0002C55.2704 19.7468 54.8437 19.7402 54.5837 20.0002Z" fill="#808080"/>
</svg>
