<svg width="25" height="24" viewBox="0 0 25 24" fill="none" xmlns="http://www.w3.org/2000/svg">
  <path d="M20.8333 2.0241H19.6111V1.15663C19.6111 0.693976 19.2222 0.289157 18.7778 0.289157C18.3333 0.289157 17.9444 0.693976 17.9444 1.15663V2.0241H7.05556V0.86747C7.05556 0.404819 6.66667 0 6.22222 0C5.77778 0 5.38889 0.404819 5.38889 0.86747V2.0241H4.16667C1.88889 2.0241 0 3.99036 0 6.36144V19.6626C0 22.0337 1.88889 24 4.16667 24H20.8333C23.1111 24 25 22.0337 25 19.6626V6.36144C25 3.93253 23.1111 2.0241 20.8333 2.0241ZM4.16667 3.75904H5.38889V6.07229C5.38889 6.53494 5.77778 6.93976 6.22222 6.93976C6.66667 6.93976 7.05556 6.53494 7.05556 6.07229V3.75904H17.8889V6.36144C17.8889 6.8241 18.2778 7.22891 18.7222 7.22891C19.1667 7.22891 19.5556 6.8241 19.5556 6.36144V3.75904H20.8333C22.2222 3.75904 23.3333 4.91566 23.3333 6.36144V9.54217H1.66667V6.36144C1.66667 4.91566 2.77778 3.75904 4.16667 3.75904ZM20.8333 22.2651H4.16667C2.77778 22.2651 1.66667 21.1084 1.66667 19.6626V11.2771H23.3333V19.6626C23.3333 21.0506 22.2222 22.2651 20.8333 22.2651Z" fill="black"/>
  <ellipse cx="6.94455" cy="16.235" rx="1.38889" ry="1.41176" fill="black"/>
  <ellipse cx="12.5" cy="16.235" rx="1.38889" ry="1.41176" fill="black"/>
  <ellipse cx="18.0556" cy="16.235" rx="1.38889" ry="1.41176" fill="black"/>
</svg>
