<svg width="22" height="22" viewBox="0 0 22 22" fill="none" xmlns="http://www.w3.org/2000/svg">
  <path d="M7.5 0H2.5C1.83696 0 1.20107 0.263392 0.732233 0.732233C0.263392 1.20107 0 1.83696 0 2.5V5.5C0 6.16304 0.263392 6.79892 0.732233 7.26777C1.20107 7.73661 1.83696 8 2.5 8H7.5C7.8283 8 8.15339 7.93533 8.45671 7.8097C8.76002 7.68406 9.03562 7.49991 9.26776 7.26777C9.49991 7.03562 9.68406 6.76002 9.80969 6.45671C9.93533 6.15339 10 5.8283 10 5.5V2.5C10 2.17169 9.93533 1.8466 9.80969 1.54329C9.68406 1.23998 9.49991 0.964379 9.26776 0.732233C9.03562 0.500086 8.76002 0.315938 8.45671 0.190301C8.15339 0.0646642 7.8283 0 7.5 0ZM8 5.5C8 5.63261 7.94732 5.75978 7.85355 5.85355C7.75978 5.94732 7.63261 6 7.5 6H2.5C2.36739 6 2.24021 5.94732 2.14645 5.85355C2.05268 5.75978 2 5.63261 2 5.5V2.5C2 2.36739 2.05268 2.24021 2.14645 2.14645C2.24021 2.05268 2.36739 2 2.5 2H7.5C7.63261 2 7.75978 2.05268 7.85355 2.14645C7.94732 2.24021 8 2.36739 8 2.5V5.5Z" fill="#B4B4B4"/>
  <path d="M7.5 10H2.5C1.83696 10 1.20107 10.2634 0.732233 10.7322C0.263392 11.2011 0 11.837 0 12.5V19.5C0 20.163 0.263392 20.7989 0.732233 21.2678C1.20107 21.7366 1.83696 22 2.5 22H7.5C7.8283 22 8.15339 21.9353 8.45671 21.8097C8.76002 21.6841 9.03562 21.4999 9.26776 21.2678C9.49991 21.0356 9.68406 20.76 9.80969 20.4567C9.93533 20.1534 10 19.8283 10 19.5V12.5C10 12.1717 9.93533 11.8466 9.80969 11.5433C9.68406 11.24 9.49991 10.9644 9.26776 10.7322C9.03562 10.5001 8.76002 10.3159 8.45671 10.1903C8.15339 10.0647 7.8283 10 7.5 10ZM8 19.5C8 19.6326 7.94732 19.7598 7.85355 19.8536C7.75978 19.9473 7.63261 20 7.5 20H2.5C2.36739 20 2.24021 19.9473 2.14645 19.8536C2.05268 19.7598 2 19.6326 2 19.5V12.5C2 12.3674 2.05268 12.2402 2.14645 12.1464C2.24021 12.0527 2.36739 12 2.5 12H7.5C7.63261 12 7.75978 12.0527 7.85355 12.1464C7.94732 12.2402 8 12.3674 8 12.5V19.5Z" fill="#B4B4B4"/>
  <path d="M19.5 0H14.5C13.837 0 13.2011 0.263392 12.7322 0.732233C12.2634 1.20107 12 1.83696 12 2.5V9.5C12 10.163 12.2634 10.7989 12.7322 11.2678C13.2011 11.7366 13.837 12 14.5 12H19.5C20.163 12 20.7989 11.7366 21.2678 11.2678C21.7366 10.7989 22 10.163 22 9.5V2.5C22 1.83696 21.7366 1.20107 21.2678 0.732233C20.7989 0.263392 20.163 0 19.5 0ZM20 9.5C20 9.63261 19.9473 9.75978 19.8536 9.85355C19.7598 9.94732 19.6326 10 19.5 10H14.5C14.3674 10 14.2402 9.94732 14.1464 9.85355C14.0527 9.75978 14 9.63261 14 9.5V2.5C14 2.36739 14.0527 2.24021 14.1464 2.14645C14.2402 2.05268 14.3674 2 14.5 2H19.5C19.6326 2 19.7598 2.05268 19.8536 2.14645C19.9473 2.24021 20 2.36739 20 2.5V9.5Z" fill="#B4B4B4"/>
  <path d="M19.5 14H14.5C13.837 14 13.2011 14.2634 12.7322 14.7322C12.2634 15.2011 12 15.837 12 16.5V19.5C12 20.163 12.2634 20.7989 12.7322 21.2678C13.2011 21.7366 13.837 22 14.5 22H19.5C20.163 22 20.7989 21.7366 21.2678 21.2678C21.7366 20.7989 22 20.163 22 19.5V16.5C22 15.837 21.7366 15.2011 21.2678 14.7322C20.7989 14.2634 20.163 14 19.5 14ZM20 19.5C20 19.6326 19.9473 19.7598 19.8536 19.8536C19.7598 19.9473 19.6326 20 19.5 20H14.5C14.3674 20 14.2402 19.9473 14.1464 19.8536C14.0527 19.7598 14 19.6326 14 19.5V16.5C14 16.3674 14.0527 16.2402 14.1464 16.1464C14.2402 16.0527 14.3674 16 14.5 16H19.5C19.6326 16 19.7598 16.0527 19.8536 16.1464C19.9473 16.2402 20 16.3674 20 16.5V19.5Z" fill="#B4B4B4"/>
</svg>
