<svg width="20" height="21" viewBox="0 0 20 21" fill="none" xmlns="http://www.w3.org/2000/svg">
  <path d="M10.8166 1.71186L10.3287 2.28152L10.8166 1.71186C10.3448 1.30783 9.64787 1.31154 9.18039 1.72058L1.67687 8.28616C1.4056 8.52352 1.25 8.86643 1.25 9.22688V19C1.25 19.6904 1.80964 20.25 2.5 20.25H7.5C8.19036 20.25 8.75 19.6904 8.75 19V14.25H11.25V19C11.25 19.6904 11.8096 20.25 12.5 20.25H17.5082C18.1905 20.25 18.7467 19.7029 18.7581 19.0207L18.9202 9.24756C18.9264 8.87526 18.7662 8.51958 18.4834 8.27738L10.8166 1.71186Z" stroke="black" stroke-width="1.5"/>
</svg>
