<svg width="22" height="22" viewBox="0 0 22 22" fill="none" xmlns="http://www.w3.org/2000/svg">
  <path d="M11 2.01667C13.9333 2.01667 14.3 2.01667 15.4917 2.10833C18.5167 2.2 19.8917 3.66667 19.9833 6.6C20.075 7.79167 20.075 8.06667 20.075 11C20.075 13.9333 20.075 14.3 19.9833 15.4C19.8917 18.3333 18.425 19.8 15.4917 19.8917C14.3 19.9833 14.025 19.9833 11 19.9833C8.06667 19.9833 7.7 19.9833 6.6 19.8917C3.575 19.8 2.2 18.3333 2.10833 15.4C2.01667 14.2083 2.01667 13.9333 2.01667 11C2.01667 8.06667 2.01667 7.7 2.10833 6.6C2.2 3.66667 3.66667 2.2 6.6 2.10833C7.7 2.01667 8.06667 2.01667 11 2.01667ZM11 0C7.975 0 7.60833 0 6.50833 0.0916667C2.475 0.275 0.275 2.475 0.0916667 6.50833C0 7.60833 0 7.975 0 11C0 14.025 0 14.3917 0.0916667 15.4917C0.275 19.525 2.475 21.725 6.50833 21.9083C7.60833 22 7.975 22 11 22C14.025 22 14.3917 22 15.4917 21.9083C19.525 21.725 21.725 19.525 21.9083 15.4917C22 14.3917 22 14.025 22 11C22 7.975 22 7.60833 21.9083 6.50833C21.725 2.475 19.525 0.275 15.4917 0.0916667C14.3917 0 14.025 0 11 0ZM11 5.31667C7.88333 5.31667 5.31667 7.88333 5.31667 11C5.31667 14.1167 7.88333 16.6833 11 16.6833C14.1167 16.6833 16.6833 14.1167 16.6833 11C16.6833 7.88333 14.1167 5.31667 11 5.31667ZM11 14.6667C8.98333 14.6667 7.33333 13.0167 7.33333 11C7.33333 8.98333 8.98333 7.33333 11 7.33333C13.0167 7.33333 14.6667 8.98333 14.6667 11C14.6667 13.0167 13.0167 14.6667 11 14.6667ZM16.8667 3.85C16.1333 3.85 15.5833 4.4 15.5833 5.13333C15.5833 5.86667 16.1333 6.41667 16.8667 6.41667C17.6 6.41667 18.15 5.86667 18.15 5.13333C18.15 4.4 17.6 3.85 16.8667 3.85Z" fill="white"/>
</svg>
