<svg width="352" height="68" viewBox="0 0 352 68" fill="none" xmlns="http://www.w3.org/2000/svg">
<path fill-rule="evenodd" clip-rule="evenodd" d="M15.1481 53.583C16.0275 53.9683 17.0188 53.9765 17.9041 53.6059C18.7893 53.2352 19.496 52.5161 19.8685 51.6067C20.2411 50.6973 20.249 49.6721 19.8906 48.7566L7.72843 17.6907C7.01163 15.8597 7.02752 13.8093 7.77261 11.9905C8.51769 10.1717 9.93094 8.73344 11.7015 7.99218C13.472 7.25091 15.4547 7.26735 17.2135 8.03786C18.9723 8.80837 20.3631 10.2698 21.0799 12.1008C21.4383 13.0162 22.1337 13.747 23.0131 14.1322C23.8925 14.5175 24.8838 14.5257 25.7691 14.1551C26.6544 13.7845 27.361 13.0653 27.7335 12.1559C28.1061 11.2465 28.114 10.2213 27.7556 9.30584C26.322 5.64397 23.5405 2.72102 20.0229 1.17999C16.5053 -0.361033 12.5398 -0.393899 8.99875 1.08863C5.45772 2.57116 2.63122 5.44764 1.14105 9.08528C-0.349119 12.7229 -0.3809 16.8237 1.0527 20.4856L13.2149 51.5516C13.5733 52.467 14.2687 53.1978 15.1481 53.583ZM17.3658 14.4167C16.4864 14.0314 15.495 14.0232 14.6098 14.3938C13.7245 14.7645 13.0179 15.4836 12.6453 16.393C12.2728 17.3024 12.2649 18.3276 12.6233 19.2431L24.7854 50.3091C25.5022 52.14 25.4863 54.1904 24.7413 56.0092C23.9962 57.8281 22.5829 59.2663 20.8124 60.0076C19.0419 60.7488 17.0591 60.7324 15.3004 59.9619C13.5416 59.1914 12.1508 57.7299 11.434 55.8989C11.0756 54.9835 10.3802 54.2527 9.50078 53.8675C8.62138 53.4822 7.63001 53.474 6.74475 53.8446C5.8595 54.2153 5.15287 54.9344 4.78033 55.8438C4.40779 56.7532 4.39984 57.7784 4.75824 58.6939C6.19185 62.3558 8.9734 65.2787 12.491 66.8197C16.0086 68.3608 19.9741 68.3936 23.5151 66.9111C27.0561 65.4286 29.8826 62.5521 31.3728 58.9145C32.863 55.2768 32.8948 51.176 31.4612 47.5141L19.299 16.4481C18.9406 15.5327 18.2452 14.8019 17.3658 14.4167Z" fill="url(#paint0_radial_119_2462)"/>
<path d="M51.4377 49.3958C49.5897 49.3958 47.9323 49.0878 46.4657 48.4718C44.999 47.8264 43.8403 46.9464 42.9897 45.8318C42.139 44.6878 41.6697 43.3824 41.5817 41.9158H45.7177C45.835 43.1184 46.3923 44.1011 47.3897 44.8638C48.4163 45.6264 49.751 46.0078 51.3937 46.0078C52.919 46.0078 54.1217 45.6704 55.0017 44.9958C55.8817 44.3211 56.3217 43.4704 56.3217 42.4438C56.3217 41.3878 55.8523 40.6104 54.9137 40.1118C53.975 39.5838 52.523 39.0704 50.5577 38.5718C48.7683 38.1024 47.3017 37.6331 46.1577 37.1638C45.043 36.6651 44.075 35.9464 43.2537 35.0078C42.4617 34.0398 42.0657 32.7784 42.0657 31.2238C42.0657 29.9918 42.4323 28.8624 43.1657 27.8358C43.899 26.8091 44.9403 26.0024 46.2897 25.4158C47.639 24.7998 49.179 24.4918 50.9097 24.4918C53.579 24.4918 55.735 25.1664 57.3777 26.5158C59.0203 27.8651 59.9003 29.7131 60.0177 32.0598H56.0137C55.9257 30.7984 55.4123 29.7864 54.4737 29.0238C53.5643 28.2611 52.3323 27.8798 50.7777 27.8798C49.3403 27.8798 48.1963 28.1878 47.3457 28.8038C46.495 29.4198 46.0697 30.2264 46.0697 31.2238C46.0697 32.0158 46.319 32.6758 46.8177 33.2038C47.3457 33.7024 47.991 34.1131 48.7537 34.4358C49.5457 34.7291 50.631 35.0664 52.0097 35.4478C53.7403 35.9171 55.1483 36.3864 56.2337 36.8558C57.319 37.2958 58.243 37.9704 59.0057 38.8798C59.7977 39.7891 60.2083 40.9771 60.2377 42.4438C60.2377 43.7638 59.871 44.9518 59.1377 46.0078C58.4043 47.0638 57.363 47.8998 56.0137 48.5158C54.6937 49.1024 53.1683 49.3958 51.4377 49.3958ZM87.89 36.0198C87.89 36.7824 87.846 37.5891 87.758 38.4398H68.486C68.6326 40.8158 69.4393 42.6784 70.906 44.0278C72.402 45.3478 74.206 46.0078 76.318 46.0078C78.0486 46.0078 79.486 45.6118 80.63 44.8198C81.8033 43.9984 82.6246 42.9131 83.094 41.5638H87.406C86.7606 43.8811 85.47 45.7731 83.534 47.2398C81.598 48.6771 79.1926 49.3958 76.318 49.3958C74.03 49.3958 71.9766 48.8824 70.158 47.8558C68.3686 46.8291 66.9606 45.3771 65.934 43.4998C64.9073 41.5931 64.394 39.3931 64.394 36.8998C64.394 34.4064 64.8926 32.2211 65.89 30.3438C66.8873 28.4664 68.2806 27.0291 70.07 26.0318C71.8886 25.0051 73.9713 24.4918 76.318 24.4918C78.606 24.4918 80.63 24.9904 82.39 25.9878C84.15 26.9851 85.4993 28.3638 86.438 30.1238C87.406 31.8544 87.89 33.8198 87.89 36.0198ZM83.754 35.1838C83.754 33.6584 83.4166 32.3531 82.742 31.2678C82.0673 30.1531 81.1433 29.3171 79.97 28.7598C78.826 28.1731 77.55 27.8798 76.142 27.8798C74.118 27.8798 72.3873 28.5251 70.95 29.8158C69.542 31.1064 68.7353 32.8958 68.53 35.1838H83.754ZM104.923 24.4478C107.856 24.4478 110.232 25.3424 112.051 27.1318C113.87 28.8918 114.779 31.4438 114.779 34.7878V48.9998H110.819V35.3598C110.819 32.9544 110.218 31.1211 109.015 29.8598C107.812 28.5691 106.17 27.9238 104.087 27.9238C101.975 27.9238 100.288 28.5838 99.0271 29.9038C97.7951 31.2238 97.1791 33.1451 97.1791 35.6678V48.9998H93.1751V24.8878H97.1791V28.3198C97.9711 27.0878 99.0418 26.1344 100.391 25.4598C101.77 24.7851 103.28 24.4478 104.923 24.4478ZM123.476 20.9718C122.713 20.9718 122.068 20.7078 121.54 20.1798C121.041 19.6518 120.792 19.0064 120.792 18.2438C120.792 17.4811 121.041 16.8358 121.54 16.3078C122.068 15.7798 122.713 15.5158 123.476 15.5158C124.238 15.5158 124.869 15.7798 125.368 16.3078C125.896 16.8358 126.16 17.4811 126.16 18.2438C126.16 19.0064 125.896 19.6518 125.368 20.1798C124.869 20.7078 124.238 20.9718 123.476 20.9718ZM125.456 54.2358C125.456 56.3771 124.913 57.9464 123.828 58.9438C122.742 59.9411 121.158 60.4398 119.076 60.4398H116.744V57.0518H118.416C119.53 57.0518 120.308 56.8318 120.748 56.3918C121.217 55.9518 121.452 55.2038 121.452 54.1478V24.8878H125.456V54.2358ZM153.618 24.8878V48.9998H149.614V45.4358C148.851 46.6678 147.78 47.6358 146.402 48.3398C145.052 49.0144 143.556 49.3518 141.914 49.3518C140.036 49.3518 138.35 48.9704 136.854 48.2078C135.358 47.4158 134.17 46.2424 133.29 44.6878C132.439 43.1331 132.014 41.2411 132.014 39.0118V24.8878H135.974V38.4838C135.974 40.8598 136.575 42.6931 137.778 43.9838C138.98 45.2451 140.623 45.8758 142.706 45.8758C144.847 45.8758 146.534 45.2158 147.766 43.8958C148.998 42.5758 149.614 40.6544 149.614 38.1318V24.8878H153.618ZM172.126 24.4478C175.06 24.4478 177.436 25.3424 179.254 27.1318C181.073 28.8918 181.982 31.4438 181.982 34.7878V48.9998H178.022V35.3598C178.022 32.9544 177.421 31.1211 176.218 29.8598C175.016 28.5691 173.373 27.9238 171.29 27.9238C169.178 27.9238 167.492 28.5838 166.23 29.9038C164.998 31.2238 164.382 33.1451 164.382 35.6678V48.9998H160.378V24.8878H164.382V28.3198C165.174 27.0878 166.245 26.1344 167.594 25.4598C168.973 24.7851 170.484 24.4478 172.126 24.4478ZM205.243 31.1798V34.5678H187.687V31.1798H205.243ZM217.641 28.1878V42.3998C217.641 43.5731 217.89 44.4091 218.389 44.9078C218.888 45.3771 219.753 45.6118 220.985 45.6118H223.933V48.9998H220.325C218.096 48.9998 216.424 48.4864 215.309 47.4598C214.194 46.4331 213.637 44.7464 213.637 42.3998V28.1878H210.513V24.8878H213.637V18.8158H217.641V24.8878H223.933V28.1878H217.641ZM250.784 36.0198C250.784 36.7824 250.74 37.5891 250.652 38.4398H231.38C231.527 40.8158 232.334 42.6784 233.8 44.0278C235.296 45.3478 237.1 46.0078 239.212 46.0078C240.943 46.0078 242.38 45.6118 243.524 44.8198C244.698 43.9984 245.519 42.9131 245.988 41.5638H250.3C249.655 43.8811 248.364 45.7731 246.428 47.2398C244.492 48.6771 242.087 49.3958 239.212 49.3958C236.924 49.3958 234.871 48.8824 233.052 47.8558C231.263 46.8291 229.855 45.3771 228.828 43.4998C227.802 41.5931 227.288 39.3931 227.288 36.8998C227.288 34.4064 227.787 32.2211 228.784 30.3438C229.782 28.4664 231.175 27.0291 232.964 26.0318C234.783 25.0051 236.866 24.4918 239.212 24.4918C241.5 24.4918 243.524 24.9904 245.284 25.9878C247.044 26.9851 248.394 28.3638 249.332 30.1238C250.3 31.8544 250.784 33.8198 250.784 36.0198ZM246.648 35.1838C246.648 33.6584 246.311 32.3531 245.636 31.2678C244.962 30.1531 244.038 29.3171 242.864 28.7598C241.72 28.1731 240.444 27.8798 239.036 27.8798C237.012 27.8798 235.282 28.5251 233.844 29.8158C232.436 31.1064 231.63 32.8958 231.424 35.1838H246.648ZM254.574 36.8558C254.574 34.3918 255.072 32.2358 256.07 30.3878C257.067 28.5104 258.431 27.0584 260.162 26.0318C261.922 25.0051 263.872 24.4918 266.014 24.4918C268.126 24.4918 269.959 24.9464 271.514 25.8558C273.068 26.7651 274.227 27.9091 274.99 29.2878V24.8878H279.038V48.9998H274.99V44.5118C274.198 45.9198 273.01 47.0931 271.426 48.0318C269.871 48.9411 268.052 49.3958 265.97 49.3958C263.828 49.3958 261.892 48.8678 260.162 47.8118C258.431 46.7558 257.067 45.2744 256.07 43.3678C255.072 41.4611 254.574 39.2904 254.574 36.8558ZM274.99 36.8998C274.99 35.0811 274.623 33.4971 273.89 32.1478C273.156 30.7984 272.159 29.7718 270.898 29.0678C269.666 28.3344 268.302 27.9678 266.806 27.9678C265.31 27.9678 263.946 28.3198 262.714 29.0238C261.482 29.7278 260.499 30.7544 259.766 32.1038C259.032 33.4531 258.666 35.0371 258.666 36.8558C258.666 38.7038 259.032 40.3171 259.766 41.6958C260.499 43.0451 261.482 44.0864 262.714 44.8198C263.946 45.5238 265.31 45.8758 266.806 45.8758C268.302 45.8758 269.666 45.5238 270.898 44.8198C272.159 44.0864 273.156 43.0451 273.89 41.6958C274.623 40.3171 274.99 38.7184 274.99 36.8998ZM314.8 24.4478C316.677 24.4478 318.349 24.8438 319.816 25.6358C321.283 26.3984 322.441 27.5571 323.292 29.1118C324.143 30.6664 324.568 32.5584 324.568 34.7878V48.9998H320.608V35.3598C320.608 32.9544 320.007 31.1211 318.804 29.8598C317.631 28.5691 316.032 27.9238 314.008 27.9238C311.925 27.9238 310.268 28.5984 309.036 29.9478C307.804 31.2678 307.188 33.1891 307.188 35.7118V48.9998H303.228V35.3598C303.228 32.9544 302.627 31.1211 301.424 29.8598C300.251 28.5691 298.652 27.9238 296.628 27.9238C294.545 27.9238 292.888 28.5984 291.656 29.9478C290.424 31.2678 289.808 33.1891 289.808 35.7118V48.9998H285.804V24.8878H289.808V28.3638C290.6 27.1024 291.656 26.1344 292.976 25.4598C294.325 24.7851 295.807 24.4478 297.42 24.4478C299.444 24.4478 301.233 24.9024 302.788 25.8118C304.343 26.7211 305.501 28.0558 306.264 29.8158C306.939 28.1144 308.053 26.7944 309.608 25.8558C311.163 24.9171 312.893 24.4478 314.8 24.4478ZM339.672 49.3958C337.824 49.3958 336.167 49.0878 334.7 48.4718C333.233 47.8264 332.075 46.9464 331.224 45.8318C330.373 44.6878 329.904 43.3824 329.816 41.9158H333.952C334.069 43.1184 334.627 44.1011 335.624 44.8638C336.651 45.6264 337.985 46.0078 339.628 46.0078C341.153 46.0078 342.356 45.6704 343.236 44.9958C344.116 44.3211 344.556 43.4704 344.556 42.4438C344.556 41.3878 344.087 40.6104 343.148 40.1118C342.209 39.5838 340.757 39.0704 338.792 38.5718C337.003 38.1024 335.536 37.6331 334.392 37.1638C333.277 36.6651 332.309 35.9464 331.488 35.0078C330.696 34.0398 330.3 32.7784 330.3 31.2238C330.3 29.9918 330.667 28.8624 331.4 27.8358C332.133 26.8091 333.175 26.0024 334.524 25.4158C335.873 24.7998 337.413 24.4918 339.144 24.4918C341.813 24.4918 343.969 25.1664 345.612 26.5158C347.255 27.8651 348.135 29.7131 348.252 32.0598H344.248C344.16 30.7984 343.647 29.7864 342.708 29.0238C341.799 28.2611 340.567 27.8798 339.012 27.8798C337.575 27.8798 336.431 28.1878 335.58 28.8038C334.729 29.4198 334.304 30.2264 334.304 31.2238C334.304 32.0158 334.553 32.6758 335.052 33.2038C335.58 33.7024 336.225 34.1131 336.988 34.4358C337.78 34.7291 338.865 35.0664 340.244 35.4478C341.975 35.9171 343.383 36.3864 344.468 36.8558C345.553 37.2958 346.477 37.9704 347.24 38.8798C348.032 39.7891 348.443 40.9771 348.472 42.4438C348.472 43.7638 348.105 44.9518 347.372 46.0078C346.639 47.0638 345.597 47.8998 344.248 48.5158C342.928 49.1024 341.403 49.3958 339.672 49.3958Z" fill="black"/>
<defs>
<radialGradient id="paint0_radial_119_2462" cx="0" cy="0" r="1" gradientUnits="userSpaceOnUse" gradientTransform="translate(16.2569 33.9999) rotate(90) scale(33.9999 16.2569)">
<stop offset="0.229167" stop-color="white"/>
<stop offset="1" stop-color="#60C3E3"/>
</radialGradient>
</defs>
</svg>
