<?xml version="1.0" encoding="utf-8"?>
<!-- Generator: Adobe Illustrator 19.0.1, SVG Export Plug-In . SVG Version: 6.00 Build 0)  -->
<svg width="190" height="34" viewBox="0 0 190 34" fill="none" xmlns="http://www.w3.org/2000/svg">
	<path d="M57.6244 14.1984C56.1436 12.5891 54.15 11.7685 51.7058 11.7685C49.9753 11.7685 48.4232 12.2173 47.0986 13.0968C46.0281 13.8085 45.1986 14.7651 44.6232 15.9483V12.1131H39.9535V33.524H44.6188V22.1499C44.6188 20.0736 45.1183 18.4869 46.104 17.4216C47.0852 16.3608 48.4143 15.8259 50.0511 15.8259C51.6389 15.8259 52.9011 16.3245 53.811 17.3083C54.7209 18.2965 55.1847 19.72 55.1847 21.5379V33.5195H59.85V21.08C59.8544 18.1243 59.1051 15.8032 57.6244 14.1984Z" fill="white"/>
	<path d="M82.6856 23.7139C82.7881 23.1653 82.8372 22.5261 82.8372 21.8099C82.8372 19.9557 82.4179 18.2467 81.5928 16.7371C80.7677 15.2229 79.5679 14.0171 78.0292 13.1512C76.4905 12.2853 74.6752 11.8501 72.6236 11.8501C70.5987 11.8501 68.7834 12.2944 67.2179 13.1693C65.6525 14.0488 64.4081 15.3317 63.5205 16.9864C62.633 18.6365 62.1825 20.5904 62.1825 22.8027C62.1825 25.0376 62.633 27.0096 63.5205 28.6552C64.4081 30.3099 65.6525 31.5928 67.2179 32.4723C68.779 33.3472 70.5942 33.7915 72.6236 33.7915C74.3675 33.7915 75.9731 33.4605 77.3959 32.7987C78.8186 32.1413 79.9917 31.2165 80.8837 30.0515C81.7757 28.8864 82.3689 27.54 82.6454 26.0395L82.69 25.8037H77.717L77.6858 25.9669C77.4717 27.132 76.883 28.0795 75.9419 28.7821C74.9919 29.4893 73.8144 29.852 72.4363 29.852C70.8663 29.852 69.5372 29.3443 68.4801 28.3424C67.4588 27.3768 66.8879 25.8763 66.7853 23.8816H82.6543L82.6856 23.7139ZM68.556 17.2267C69.6398 16.2248 71.009 15.7125 72.628 15.7125C73.6405 15.7125 74.5905 15.9301 75.4513 16.3608C76.2987 16.7869 76.9766 17.4533 77.4672 18.3419C77.8508 19.0355 78.0604 19.8741 78.1184 20.8307H66.8611C67.0708 19.2803 67.6417 18.0744 68.556 17.2267Z" fill="white"/>
	<path d="M102.136 16.2293C101.556 15.0507 100.713 14.0669 99.6296 13.2963C98.2737 12.3352 96.6235 11.8501 94.7146 11.8501C92.8859 11.8501 91.2312 12.2944 89.7906 13.1739C88.35 14.0533 87.2082 15.3408 86.3965 16.9909C85.5848 18.6365 85.1744 20.5949 85.1744 22.8027C85.1744 25.0376 85.5848 27.0051 86.3965 28.6507C87.2082 30.3053 88.35 31.5883 89.7906 32.4677C91.2268 33.3472 92.8815 33.7915 94.7146 33.7915C96.6235 33.7915 98.2782 33.3064 99.6296 32.3453C100.718 31.5747 101.556 30.5909 102.136 29.4123V33.5285H106.801V12.1176H102.136V16.2293ZM101.333 26.3659C100.803 27.3723 100.071 28.1611 99.1524 28.7096C98.2381 29.2627 97.1855 29.5392 96.0258 29.5392C94.1883 29.5392 92.7031 28.9363 91.6104 27.7531C90.5132 26.5653 89.9557 24.8971 89.9557 22.7981C89.9557 20.6992 90.5132 19.0309 91.6104 17.8432C92.7031 16.6555 94.1927 16.0571 96.0258 16.0571C97.1855 16.0571 98.2381 16.3381 99.1524 16.8867C100.067 17.4352 100.798 18.2331 101.333 19.2485C101.864 20.2731 102.136 21.4653 102.136 22.7981C102.136 24.1581 101.864 25.3595 101.333 26.3659Z" fill="white"/>
	<path d="M128.245 6.88614H123.58V33.524H128.245V6.88614Z" fill="white"/>
	<path d="M151.103 23.8725L151.135 23.7093C151.237 23.1608 151.286 22.5216 151.286 21.8053C151.286 19.9512 150.867 18.2421 150.042 16.7325C149.217 15.2184 148.017 14.0125 146.478 13.1467C144.94 12.2808 143.124 11.8456 141.073 11.8456C139.048 11.8456 137.233 12.2899 135.667 13.1648C134.102 14.0443 132.857 15.3272 131.97 16.9819C131.082 18.632 130.632 20.5859 130.632 22.7981C130.632 25.0331 131.082 27.0051 131.97 28.6507C132.857 30.3053 134.102 31.5883 135.667 32.4677C137.228 33.3427 139.043 33.7869 141.073 33.7869C142.817 33.7869 144.422 33.456 145.845 32.7941C147.268 32.1368 148.441 31.212 149.333 30.0469C150.225 28.8819 150.818 27.5355 151.094 26.0349L151.139 25.7992H146.166L146.135 25.9624C145.921 27.1275 145.332 28.0749 144.391 28.7776C143.441 29.4848 142.264 29.8475 140.885 29.8475C139.315 29.8475 137.986 29.3397 136.929 28.3379C135.908 27.3723 135.337 25.8717 135.234 23.8771H151.103V23.8725ZM137.001 17.2267C138.084 16.2248 139.454 15.7125 141.073 15.7125C142.085 15.7125 143.035 15.9301 143.896 16.3608C144.743 16.7869 145.421 17.4533 145.912 18.3419C146.295 19.0355 146.505 19.8741 146.563 20.8307H135.306C135.52 19.2803 136.086 18.0744 137.001 17.2267Z" fill="white"/>
	<path d="M170.581 16.2293C170.001 15.0507 169.158 14.0669 168.074 13.2963C166.718 12.3352 165.068 11.8501 163.159 11.8501C161.33 11.8501 159.676 12.2944 158.235 13.1739C156.794 14.0533 155.653 15.3408 154.841 16.9909C154.029 18.6365 153.619 20.5949 153.619 22.8027C153.619 25.0376 154.029 27.0051 154.841 28.6507C155.653 30.3053 156.794 31.5883 158.235 32.4677C159.671 33.3472 161.326 33.7915 163.159 33.7915C165.068 33.7915 166.718 33.3064 168.074 32.3453C169.162 31.5747 170.001 30.5909 170.581 29.4123V33.5285H175.246V12.1176H170.581V16.2293ZM169.778 26.3659C169.247 27.3723 168.516 28.1611 167.597 28.7096C166.683 29.2627 165.63 29.5392 164.47 29.5392C162.633 29.5392 161.148 28.9363 160.055 27.7531C158.958 26.5653 158.4 24.8971 158.4 22.7981C158.4 20.6992 158.958 19.0309 160.055 17.8432C161.148 16.6555 162.637 16.0571 164.47 16.0571C165.63 16.0571 166.683 16.3381 167.597 16.8867C168.511 17.4352 169.243 18.2331 169.778 19.2485C170.309 20.2731 170.581 21.4653 170.581 22.7981C170.581 24.1581 170.313 25.3595 169.778 26.3659Z" fill="white"/>
	<path d="M189.438 8.30507L189.643 8.31414V4.10267L189.46 4.0936C186.468 3.93947 184.189 4.52427 182.681 5.83894C181.165 7.15814 180.397 9.15281 180.397 11.7685V12.1131H177.583V16.2475H180.397V33.524H185.103V16.2475H189.643V12.1131H185.103C185.103 10.6805 185.424 9.65601 186.053 9.07574C186.682 8.49094 187.819 8.22801 189.438 8.30507Z" fill="white"/>
	<path d="M116.805 6.88614H112.1V12.1131H109.134V16.2067H112.1V33.524H116.805V16.2067H121.212V12.1131H116.805V6.88614Z" fill="white"/>
	<path d="M21.3995 28.9272C24.4636 32.0416 28.6204 33.7915 32.9512 33.7915V18.7045C32.9512 8.5408 24.8427 0.299202 14.8432 0.299202H10.4009H9.21455C9.21455 0.299202 11.3376 0.557602 14.2099 3.47254C14.2143 3.47707 14.2188 3.4816 14.2232 3.4816L26.7115 16.1749C27.5322 17.0091 27.9915 18.1379 27.9915 19.3211V21.8733L11.5516 5.16347C8.48756 2.04907 4.33075 0.299202 0 0.299202V15.3861C0 25.5499 8.10845 33.7915 18.108 33.7915H22.5502H23.7366C23.7366 33.7915 21.6136 33.5331 18.7413 30.6181C18.7369 30.6136 18.7324 30.6091 18.7279 30.6091L6.23967 17.9157C5.41901 17.0816 4.95962 15.9528 4.95962 14.7696V12.2173L21.3995 28.9272Z" fill="url(#paint0_linear)"/>
	<defs>
		<linearGradient id="paint0_linear" x1="0.0512904" y1="0.350248" x2="35.931" y2="35.6503" gradientUnits="userSpaceOnUse">
			<stop offset="0.0977" stop-color="#DD382F"/>
			<stop offset="1" stop-color="#FFB94C"/>
		</linearGradient>
	</defs>
</svg>
