<svg width="23" height="22" viewBox="0 0 23 22" fill="none" xmlns="http://www.w3.org/2000/svg">
  <path d="M12.5 22H3.5C2.70435 22 1.94129 21.6839 1.37868 21.1213C0.81607 20.5587 0.5 19.7956 0.5 19V3C0.5 2.20435 0.81607 1.44129 1.37868 0.878679C1.94129 0.31607 2.70435 0 3.5 0H12.5C13.2956 0 14.0587 0.31607 14.6213 0.878679C15.1839 1.44129 15.5 2.20435 15.5 3V6.5C15.5 6.76522 15.3946 7.01957 15.2071 7.20711C15.0196 7.39464 14.7652 7.5 14.5 7.5C14.2348 7.5 13.9804 7.39464 13.7929 7.20711C13.6054 7.01957 13.5 6.76522 13.5 6.5V3C13.5 2.73478 13.3946 2.48043 13.2071 2.29289C13.0196 2.10536 12.7652 2 12.5 2H3.5C3.23478 2 2.98043 2.10536 2.79289 2.29289C2.60536 2.48043 2.5 2.73478 2.5 3V19C2.5 19.2652 2.60536 19.5196 2.79289 19.7071C2.98043 19.8946 3.23478 20 3.5 20H12.5C12.7652 20 13.0196 19.8946 13.2071 19.7071C13.3946 19.5196 13.5 19.2652 13.5 19V15.5C13.5 15.2348 13.6054 14.9804 13.7929 14.7929C13.9804 14.6054 14.2348 14.5 14.5 14.5C14.7652 14.5 15.0196 14.6054 15.2071 14.7929C15.3946 14.9804 15.5 15.2348 15.5 15.5V19C15.5 19.7956 15.1839 20.5587 14.6213 21.1213C14.0587 21.6839 13.2956 22 12.5 22Z" fill="#808080"/>
  <path d="M20.9999 12H7.90991C7.6447 12 7.39034 11.8946 7.2028 11.7071C7.01527 11.5196 6.90991 11.2652 6.90991 11C6.90991 10.7348 7.01527 10.4804 7.2028 10.2929C7.39034 10.1054 7.6447 10 7.90991 10H20.9999C21.2651 10 21.5195 10.1054 21.707 10.2929C21.8946 10.4804 21.9999 10.7348 21.9999 11C21.9999 11.2652 21.8946 11.5196 21.707 11.7071C21.5195 11.8946 21.2651 12 20.9999 12Z" fill="#808080"/>
  <path d="M18.4999 14.9999C18.3027 14.9991 18.1102 14.94 17.9465 14.83C17.7828 14.7201 17.6553 14.5642 17.58 14.382C17.5046 14.1998 17.4848 13.9994 17.5231 13.8059C17.5613 13.6125 17.6559 13.4347 17.7949 13.2949L20.0849 10.9999L17.7899 8.70488C17.6022 8.51724 17.4968 8.26274 17.4968 7.99738C17.4968 7.73202 17.6022 7.47752 17.7899 7.28988C17.9775 7.10224 18.232 6.99683 18.4974 6.99683C18.7627 6.99683 19.0172 7.10224 19.2049 7.28988L22.2049 10.2899C22.2979 10.3828 22.3716 10.493 22.4219 10.6144C22.4723 10.7358 22.4982 10.866 22.4982 10.9974C22.4982 11.1288 22.4723 11.2589 22.4219 11.3803C22.3716 11.5017 22.2979 11.612 22.2049 11.7049L19.2049 14.7049C19.0182 14.8927 18.7647 14.9988 18.4999 14.9999Z" fill="#808080"/>
</svg>
