<svg width="24" height="24" viewBox="0 0 24 24" fill="none" xmlns="http://www.w3.org/2000/svg">
  <g clip-path="url(#clip0)">
    <path d="M23.0011 20H0.998934C0.80052 19.9998 0.606658 19.9405 0.44201 19.8299C0.277362 19.7192 0.149369 19.562 0.0743142 19.3784C-0.00074104 19.1948 -0.0194663 18.993 0.0205198 18.7988C0.060506 18.6045 0.157397 18.4265 0.298866 18.2874C1.3656 17.2509 2.2133 16.0109 2.79172 14.6408C3.37014 13.2707 3.66751 11.7985 3.66619 10.3114V8.20289C3.70009 6.01573 4.59302 3.92963 6.15223 2.39492C7.71143 0.860205 9.81183 0 12 0C14.1882 0 16.2886 0.860205 17.8478 2.39492C19.407 3.92963 20.2999 6.01573 20.3338 8.20289V10.3114C20.3325 11.7985 20.6299 13.2707 21.2083 14.6408C21.7867 16.0109 22.6344 17.2509 23.7011 18.2874C23.8426 18.4265 23.9395 18.6045 23.9795 18.7988C24.0195 18.993 24.0007 19.1948 23.9257 19.3784C23.8506 19.562 23.7226 19.7192 23.558 19.8299C23.3933 19.9405 23.1995 19.9998 23.0011 20ZM3.17714 18.0005H20.8229C19.1997 15.7656 18.3281 13.0732 18.3336 10.3114V8.20289C18.3041 6.54317 17.6238 4.9614 16.4393 3.79809C15.2547 2.63478 13.6606 1.98296 12 1.98296C10.3395 1.98296 8.7453 2.63478 7.56073 3.79809C6.37615 4.9614 5.69589 6.54317 5.66639 8.20289V10.3114C5.67194 13.0732 4.80034 15.7656 3.17714 18.0005Z" fill="#9BA0B6"/>
    <rect x="9" y="22" width="6" height="2" rx="1" fill="#9BA0B6"/>
  </g>
  <defs>
    <clipPath id="clip0">
      <rect width="24" height="24" fill="white"/>
    </clipPath>
  </defs>
</svg>
