<svg width="70" height="70" viewBox="0 0 70 70" fill="none" xmlns="http://www.w3.org/2000/svg">
<circle cx="35" cy="35" r="35" fill="#31CA71"/>
<path d="M47.5997 22.4C48.0427 22.8429 48.466 23.3056 48.8597 23.7879C48.968 23.9159 49.0714 24.0488 49.1747 24.1768C49.347 24.3933 48.9532 23.8814 49.1157 24.1029C49.16 24.162 49.1993 24.2161 49.2436 24.2752C49.4307 24.5311 49.6177 24.792 49.79 25.0529C50.4643 26.0668 51.0401 27.1397 51.5126 28.2619C51.4634 28.1438 51.4142 28.0257 51.365 27.9075C52.0245 29.4825 52.4724 31.1363 52.6988 32.8245C52.6791 32.6916 52.6643 32.5636 52.6446 32.4307C52.8661 34.1337 52.8661 35.8564 52.6446 37.5593C52.6643 37.4264 52.6791 37.2985 52.6988 37.1656C52.4724 38.8538 52.0245 40.5075 51.365 42.0825C51.4142 41.9644 51.4634 41.8463 51.5126 41.7282C51.1435 42.5993 50.7153 43.4459 50.2231 44.2531C49.9671 44.6714 49.6964 45.0849 49.411 45.4836C49.347 45.5722 49.2879 45.6558 49.2239 45.7395C49.1895 45.7887 49.155 45.833 49.1157 45.8822C48.9828 46.0643 49.2141 45.7543 49.219 45.7543C49.0664 45.9659 48.8942 46.1677 48.7268 46.3646C48.0919 47.1225 47.393 47.8264 46.6498 48.481C46.4677 48.6385 46.2856 48.7911 46.1035 48.9436C46.01 49.0175 45.9164 49.0913 45.8229 49.1651C45.7491 49.2242 45.6014 49.3177 45.9509 49.0667C45.8918 49.1061 45.8377 49.1504 45.7786 49.1947C45.3849 49.49 44.9764 49.7705 44.558 50.0314C43.6573 50.6023 42.7123 51.0896 41.7329 51.5079C41.851 51.4587 41.9691 51.4095 42.0872 51.3603C40.5122 52.0198 38.8585 52.4677 37.1703 52.6941C37.3032 52.6744 37.4311 52.6597 37.564 52.64C35.8611 52.8614 34.1384 52.8614 32.4354 52.64C32.5683 52.6597 32.6963 52.6744 32.8292 52.6941C31.141 52.4677 29.4872 52.0198 27.9122 51.3603C28.0304 51.4095 28.1485 51.4587 28.2666 51.5079C27.3954 51.1388 26.5489 50.7106 25.7417 50.2184C25.3233 49.9625 24.9099 49.6918 24.5112 49.4063C24.4226 49.3423 24.3389 49.2832 24.2553 49.2193C24.2061 49.1848 24.1618 49.1504 24.1125 49.111C23.9304 48.9781 24.2405 49.2094 24.2405 49.2143C24.0289 49.0618 23.8271 48.8895 23.6302 48.7221C22.8722 48.0872 22.1684 47.3883 21.5138 46.6451C21.3563 46.463 21.2037 46.2809 21.0511 46.0988C20.9773 46.0053 20.9035 45.9118 20.8297 45.8182C20.7706 45.7444 20.6771 45.5968 20.9281 45.9462C20.8887 45.8872 20.8444 45.833 20.8001 45.7739C20.5048 45.3802 20.2243 44.9717 19.9634 44.5533C19.3925 43.6526 18.9052 42.7076 18.4868 41.7282C18.5361 41.8463 18.5853 41.9644 18.6345 42.0825C17.975 40.5075 17.5271 38.8538 17.3007 37.1656C17.3204 37.2985 17.3351 37.4264 17.3548 37.5593C17.1333 35.8564 17.1333 34.1337 17.3548 32.4307C17.3351 32.5636 17.3204 32.6916 17.3007 32.8245C17.5271 31.1363 17.975 29.4825 18.6345 27.9075C18.5853 28.0257 18.5361 28.1438 18.4868 28.2619C18.856 27.3907 19.2842 26.5442 19.7764 25.737C20.0323 25.3186 20.303 24.9052 20.5885 24.5065C20.6525 24.4179 20.7115 24.3343 20.7755 24.2506C20.81 24.2014 20.8444 24.1571 20.8838 24.1079C21.0167 23.9257 20.7854 24.2358 20.7804 24.2358C20.933 24.0242 21.1053 23.8224 21.2726 23.6255C21.9075 22.8675 22.6064 22.1637 23.3497 21.5091C23.5318 21.3516 23.7139 21.199 23.896 21.0464C23.9895 20.9726 24.083 20.8988 24.1765 20.825C24.2504 20.7659 24.398 20.6724 24.0486 20.9234C24.1076 20.884 24.1618 20.8397 24.2208 20.7954C24.6146 20.5001 25.0231 20.2196 25.4414 19.9587C26.3422 19.3878 27.2872 18.9005 28.2666 18.4822C28.1485 18.5314 28.0304 18.5806 27.9122 18.6298C29.4872 17.9703 31.141 17.5224 32.8292 17.296C32.6963 17.3157 32.5683 17.3304 32.4354 17.3501C34.1384 17.1286 35.8611 17.1286 37.564 17.3501C37.4311 17.3304 37.3032 17.3157 37.1703 17.296C38.8585 17.5224 40.5122 17.9703 42.0872 18.6298C41.9691 18.5806 41.851 18.5314 41.7329 18.4822C42.855 18.9547 43.928 19.5305 44.9419 20.2048C45.1979 20.3722 45.4489 20.5493 45.695 20.7314C45.7639 20.7807 45.8279 20.8299 45.8918 20.8791C46.0936 21.0317 45.6064 20.6527 45.818 20.82C45.9411 20.9136 46.0592 21.012 46.1822 21.1104C46.6744 21.5189 47.1469 21.9521 47.5997 22.4C48.1461 22.9463 49.1501 22.9906 49.6866 22.4C50.228 21.8093 50.2723 20.8939 49.6866 20.3131C46.6793 17.3206 42.7517 15.2386 38.5582 14.5447C36.5255 14.21 34.478 14.1361 32.4354 14.4019C30.2403 14.6874 28.1534 15.2829 26.1404 16.2181C22.257 18.0146 18.9593 21.1203 16.8725 24.8511C14.8447 28.4834 13.9144 32.7507 14.318 36.8949C14.5247 39.0261 15.0268 41.0834 15.8586 43.0571C16.71 45.075 17.8568 46.9158 19.2793 48.5794C22.0503 51.818 25.8697 54.1608 30.0089 55.1747C34.0252 56.1542 38.3614 55.9425 42.2349 54.4758C46.3693 52.9107 49.9081 50.1003 52.3592 46.4138C54.6626 42.9439 55.8586 38.7307 55.7651 34.5668C55.6716 30.3882 54.3132 26.2243 51.8375 22.8479C51.1828 21.9521 50.4692 21.1055 49.6866 20.318C49.1403 19.7717 48.1362 19.7323 47.5997 20.318C47.0583 20.9037 47.014 21.8143 47.5997 22.4Z" fill="white"/>
<path d="M43.0618 28.7394C41.7329 30.0683 40.3991 31.4021 39.0702 32.731C36.9488 34.8523 34.8275 36.9737 32.7062 39.095C32.2189 39.5823 31.7317 40.0695 31.2444 40.5568C31.9384 40.5568 32.6373 40.5568 33.3313 40.5568C32.6225 39.848 31.9138 39.1393 31.205 38.4256C30.073 37.2936 28.9459 36.1616 27.8138 35.0246C27.553 34.7637 27.2921 34.498 27.0313 34.2371C26.4849 33.6908 25.4809 33.6514 24.9444 34.2371C24.403 34.8277 24.3636 35.7432 24.9444 36.324C25.6531 37.0327 26.3619 37.7415 27.0706 38.4551C28.2027 39.5872 29.3298 40.7192 30.4618 41.8562C30.7227 42.117 30.9835 42.3828 31.2444 42.6437C31.8055 43.2097 32.7702 43.2097 33.3313 42.6437C34.6602 41.3148 35.994 39.9809 37.3229 38.652C39.4442 36.5307 41.5656 34.4094 43.6869 32.288C44.1742 31.8008 44.6614 31.3135 45.1487 30.8262C45.695 30.2799 45.7344 29.2758 45.1487 28.7394C44.5581 28.198 43.6475 28.1537 43.0618 28.7394Z" fill="white"/>
</svg>
