<?xml version="1.0" encoding="utf-8"?>

<svg width="18" height="21" viewBox="0 0 18 21" fill="none" xmlns="http://www.w3.org/2000/svg">
  <path d="M16.8637 13.2874L15.4088 11.5731C15.0118 11.1043 14.7972 10.5119 14.8033 9.90168V8.57311C14.8068 7.39996 14.4839 6.24825 13.8696 5.24275C13.2553 4.23724 12.3731 3.41629 11.3185 2.86882V2.66311C11.3258 2.04353 11.1117 1.44109 10.7137 0.960944C10.3156 0.480792 9.7588 0.153421 9.14043 0.0359661C8.76551 -0.0263832 8.38128 -0.00749898 8.01455 0.0913015C7.64781 0.190102 7.3074 0.366439 7.01708 0.60801C6.72675 0.84958 6.49349 1.15057 6.33357 1.48997C6.17366 1.82937 6.09094 2.19901 6.09119 2.57311V2.86454C5.03965 3.41677 4.16015 4.2394 3.54643 5.24472C2.93272 6.25005 2.60781 7.40039 2.60634 8.57311V9.90168C2.60631 10.503 2.39206 11.0854 2.00085 11.5474L0.554635 13.2617C0.262845 13.6079 0.0771914 14.0286 0.0193587 14.4747C-0.038474 14.9208 0.033901 15.3739 0.228031 15.7811C0.42216 16.1882 0.73003 16.5326 1.11568 16.7741C1.50134 17.0155 1.94885 17.144 2.40596 17.1445H5.21997C5.21997 18.0538 5.58713 18.9259 6.24066 19.5689C6.8942 20.2119 7.78058 20.5731 8.70482 20.5731C9.62906 20.5731 10.5154 20.2119 11.169 19.5689C11.8225 18.9259 12.1897 18.0538 12.1897 17.1445H15.0124C15.4655 17.1417 15.9087 17.013 16.2907 16.7732C16.6727 16.5333 16.9781 16.1922 17.1716 15.789C17.3651 15.3859 17.4388 14.9371 17.3844 14.4945C17.3299 14.0519 17.1494 13.6335 16.8637 13.2874ZM8.70482 18.8588C8.2427 18.8588 7.79951 18.6782 7.47274 18.3567C7.14598 18.0352 6.9624 17.5992 6.9624 17.1445H10.4472C10.4472 17.5992 10.2637 18.0352 9.9369 18.3567C9.61013 18.6782 9.16694 18.8588 8.70482 18.8588ZM15.6135 15.0531C15.5631 15.1679 15.4789 15.2651 15.3717 15.3323C15.2646 15.3996 15.1394 15.4337 15.0124 15.4302H2.40596C2.27907 15.4307 2.1547 15.3954 2.04747 15.3287C1.94023 15.262 1.85459 15.1665 1.80061 15.0535C1.74662 14.9405 1.72654 14.8147 1.74272 14.6909C1.7589 14.5671 1.81067 14.4504 1.89194 14.3545L3.33816 12.6403C3.98974 11.8715 4.34729 10.9026 4.34876 9.90168V8.57311C4.34876 6.67882 5.59895 4.81454 7.25425 4.24025C7.42415 4.18082 7.57112 4.07099 7.67488 3.92591C7.77865 3.78083 7.83411 3.60765 7.83361 3.43025V2.57311C7.83414 2.44897 7.86207 2.32642 7.91547 2.21395C7.96887 2.10147 8.04647 2.00175 8.14289 1.92168C8.29771 1.78678 8.49804 1.71345 8.70482 1.71597C8.75555 1.71173 8.80655 1.71173 8.85728 1.71597C9.07053 1.76664 9.25907 1.88904 9.39031 2.06198C9.52155 2.23493 9.58725 2.44756 9.57603 2.66311V3.43025C9.57634 3.60465 9.63072 3.77481 9.73191 3.91801C9.83309 4.06121 9.97627 4.17064 10.1423 4.23168C11.0141 4.58544 11.7581 5.18814 12.2784 5.962C12.7986 6.73586 13.0712 7.64536 13.0609 8.57311V9.90168C13.0613 10.9041 13.4189 11.8747 14.0715 12.6445L15.5221 14.3588C15.6054 14.4527 15.6586 14.5687 15.6748 14.6923C15.6911 14.8159 15.6698 14.9415 15.6135 15.0531Z" fill="black"/>
</svg>
