<svg width="24" height="22" viewBox="0 0 24 22" fill="none" xmlns="http://www.w3.org/2000/svg">
  <path d="M7.50001 6.5C7.50021 5.74612 7.25698 5.01232 6.80652 4.40781C6.35607 3.8033 5.72247 3.3604 5.00001 3.145V1C5.00001 0.734784 4.89466 0.48043 4.70712 0.292893C4.51958 0.105357 4.26523 0 4.00001 0C3.7348 0 3.48044 0.105357 3.29291 0.292893C3.10537 0.48043 3.00001 0.734784 3.00001 1V3.145C2.27896 3.36123 1.64684 3.80417 1.19746 4.40809C0.748073 5.01201 0.505371 5.74473 0.505371 6.4975C0.505371 7.25027 0.748073 7.98299 1.19746 8.58691C1.64684 9.19083 2.27896 9.63377 3.00001 9.85V21C3.00001 21.2652 3.10537 21.5196 3.29291 21.7071C3.48044 21.8946 3.7348 22 4.00001 22C4.26523 22 4.51958 21.8946 4.70712 21.7071C4.89466 21.5196 5.00001 21.2652 5.00001 21V9.855C5.72247 9.6396 6.35607 9.1967 6.80652 8.59219C7.25698 7.98768 7.50021 7.25388 7.50001 6.5V6.5ZM4.00001 8C3.70334 8 3.41333 7.91203 3.16666 7.7472C2.91998 7.58238 2.72773 7.34811 2.61419 7.07402C2.50066 6.79994 2.47096 6.49834 2.52884 6.20737C2.58671 5.91639 2.72957 5.64912 2.93935 5.43934C3.14913 5.22956 3.41641 5.0867 3.70738 5.02882C3.99835 4.97094 4.29995 5.00065 4.57404 5.11418C4.84813 5.22771 5.0824 5.41997 5.24722 5.66665C5.41204 5.91332 5.50001 6.20333 5.50001 6.5C5.50001 6.89782 5.34198 7.27935 5.06067 7.56066C4.77937 7.84196 4.39784 8 4.00001 8Z" fill="#9BA0B6"/>
  <path d="M15.5 15.5C15.5002 14.7461 15.257 14.0123 14.8065 13.4078C14.3561 12.8033 13.7225 12.3604 13 12.145V1C13 0.734784 12.8947 0.48043 12.7071 0.292893C12.5196 0.105357 12.2652 0 12 0C11.7348 0 11.4804 0.105357 11.2929 0.292893C11.1054 0.48043 11 0.734784 11 1V12.145C10.279 12.3612 9.64684 12.8042 9.19746 13.4081C8.74807 14.012 8.50537 14.7447 8.50537 15.4975C8.50537 16.2503 8.74807 16.983 9.19746 17.5869C9.64684 18.1908 10.279 18.6338 11 18.85V21C11 21.2652 11.1054 21.5196 11.2929 21.7071C11.4804 21.8946 11.7348 22 12 22C12.2652 22 12.5196 21.8946 12.7071 21.7071C12.8947 21.5196 13 21.2652 13 21V18.855C13.7225 18.6396 14.3561 18.1967 14.8065 17.5922C15.257 16.9877 15.5002 16.2539 15.5 15.5V15.5ZM12 17C11.7033 17 11.4133 16.912 11.1667 16.7472C10.92 16.5824 10.7277 16.3481 10.6142 16.074C10.5007 15.7999 10.471 15.4983 10.5288 15.2074C10.5867 14.9164 10.7296 14.6491 10.9394 14.4393C11.1491 14.2296 11.4164 14.0867 11.7074 14.0288C11.9984 13.9709 12.2999 14.0007 12.574 14.1142C12.8481 14.2277 13.0824 14.42 13.2472 14.6666C13.412 14.9133 13.5 15.2033 13.5 15.5C13.5 15.8978 13.342 16.2794 13.0607 16.5607C12.7794 16.842 12.3978 17 12 17V17Z" fill="#9BA0B6"/>
  <path d="M23.5 6.5C23.5002 5.74612 23.257 5.01232 22.8065 4.40781C22.3561 3.8033 21.7225 3.3604 21 3.145V1C21 0.734784 20.8947 0.48043 20.7071 0.292893C20.5196 0.105357 20.2652 0 20 0C19.7348 0 19.4804 0.105357 19.2929 0.292893C19.1054 0.48043 19 0.734784 19 1V3.145C18.279 3.36123 17.6468 3.80417 17.1975 4.40809C16.7481 5.01201 16.5054 5.74473 16.5054 6.4975C16.5054 7.25027 16.7481 7.98299 17.1975 8.58691C17.6468 9.19083 18.279 9.63377 19 9.85V21C19 21.2652 19.1054 21.5196 19.2929 21.7071C19.4804 21.8946 19.7348 22 20 22C20.2652 22 20.5196 21.8946 20.7071 21.7071C20.8947 21.5196 21 21.2652 21 21V9.855C21.7225 9.6396 22.3561 9.1967 22.8065 8.59219C23.257 7.98768 23.5002 7.25388 23.5 6.5V6.5ZM20 8C19.7033 8 19.4133 7.91203 19.1667 7.7472C18.92 7.58238 18.7277 7.34811 18.6142 7.07402C18.5007 6.79994 18.471 6.49834 18.5288 6.20737C18.5867 5.91639 18.7296 5.64912 18.9394 5.43934C19.1491 5.22956 19.4164 5.0867 19.7074 5.02882C19.9984 4.97094 20.3 5.00065 20.574 5.11418C20.8481 5.22771 21.0824 5.41997 21.2472 5.66665C21.412 5.91332 21.5 6.20333 21.5 6.5C21.5 6.89782 21.342 7.27935 21.0607 7.56066C20.7794 7.84196 20.3978 8 20 8Z" fill="#9BA0B6"/>
</svg>
