<svg width="138" height="24" viewBox="0 0 138 24" fill="none" xmlns="http://www.w3.org/2000/svg">
  <path d="M41.8535 10.0223C40.778 8.88633 39.33 8.30713 37.5548 8.30713C36.2979 8.30713 35.1706 8.62393 34.2084 9.24473C33.431 9.74713 32.8284 10.4223 32.4106 11.2575V8.55033H29.0189V23.6639H32.4073V15.6351C32.4073 14.1695 32.7701 13.0495 33.486 12.2975C34.1987 11.5487 35.1641 11.1711 36.3529 11.1711C37.5062 11.1711 38.4229 11.5231 39.0838 12.2175C39.7446 12.9151 40.0815 13.9199 40.0815 15.2031V23.6607H43.47V14.8799C43.4732 12.7935 42.929 11.1551 41.8535 10.0223Z" fill="black"/>
  <path d="M60.0559 16.7391C60.1304 16.3519 60.166 15.9007 60.166 15.3951C60.166 14.0863 59.8615 12.8799 59.2622 11.8143C58.6629 10.7455 57.7915 9.89434 56.6739 9.28314C55.5563 8.67194 54.2379 8.36475 52.7477 8.36475C51.277 8.36475 49.9586 8.67835 48.8215 9.29595C47.6845 9.91675 46.7807 10.8223 46.136 11.9903C45.4914 13.1551 45.1642 14.5343 45.1642 16.0959C45.1642 17.6735 45.4914 19.0655 46.136 20.2271C46.7807 21.3951 47.6845 22.3007 48.8215 22.9215C49.9553 23.5391 51.2738 23.8527 52.7477 23.8527C54.0143 23.8527 55.1805 23.6191 56.2139 23.1519C57.2473 22.6879 58.0993 22.0351 58.7472 21.2127C59.395 20.3903 59.8259 19.4399 60.0267 18.3807L60.0591 18.2143H56.4471L56.4245 18.3295C56.269 19.1519 55.8414 19.8207 55.1579 20.3167C54.4679 20.8159 53.6126 21.0719 52.6117 21.0719C51.4714 21.0719 50.506 20.7135 49.7383 20.0063C48.9964 19.3247 48.5818 18.2655 48.5073 16.8575H60.0332L60.0559 16.7391ZM49.7933 12.1599C50.5805 11.4527 51.575 11.0911 52.7509 11.0911C53.4863 11.0911 54.1763 11.2447 54.8015 11.5487C55.417 11.8495 55.9094 12.3199 56.2657 12.9471C56.5443 13.4367 56.6966 14.0287 56.7387 14.7039H48.5624C48.7146 13.6095 49.1293 12.7583 49.7933 12.1599Z" fill="black"/>
  <path d="M74.1831 11.4559C73.762 10.6239 73.1497 9.92955 72.3626 9.38555C71.3778 8.70715 70.1792 8.36475 68.7927 8.36475C67.4645 8.36475 66.2627 8.67835 65.2164 9.29915C64.17 9.91995 63.3407 10.8287 62.7512 11.9935C62.1616 13.1551 61.8636 14.5375 61.8636 16.0959C61.8636 17.6735 62.1616 19.0623 62.7512 20.2239C63.3407 21.3919 64.17 22.2975 65.2164 22.9183C66.2595 23.5391 67.4613 23.8527 68.7927 23.8527C70.1792 23.8527 71.381 23.5103 72.3626 22.8319C73.153 22.2879 73.762 21.5935 74.1831 20.7615V23.6671H77.5716V8.55354H74.1831V11.4559ZM73.6 18.6111C73.2145 19.3215 72.6833 19.8783 72.0159 20.2655C71.3519 20.6559 70.5874 20.8511 69.7451 20.8511C68.4105 20.8511 67.3317 20.4255 66.5381 19.5903C65.7412 18.7519 65.3362 17.5743 65.3362 16.0927C65.3362 14.6111 65.7412 13.4335 66.5381 12.5951C67.3317 11.7567 68.4137 11.3343 69.7451 11.3343C70.5874 11.3343 71.3519 11.5327 72.0159 11.9199C72.68 12.3071 73.2113 12.8703 73.6 13.5871C73.9855 14.3103 74.1831 15.1519 74.1831 16.0927C74.1831 17.0527 73.9855 17.9007 73.6 18.6111Z" fill="black"/>
  <path d="M93.1467 4.86084H89.7583V23.664H93.1467V4.86084Z" fill="black"/>
  <path d="M109.749 16.8512L109.772 16.736C109.846 16.3488 109.882 15.8976 109.882 15.392C109.882 14.0832 109.577 12.8768 108.978 11.8112C108.379 10.7424 107.507 9.89117 106.39 9.27997C105.272 8.66877 103.953 8.36157 102.463 8.36157C100.993 8.36157 99.6742 8.67517 98.5372 9.29277C97.4001 9.91357 96.4963 10.8192 95.8517 11.9872C95.207 13.152 94.8798 14.5312 94.8798 16.0928C94.8798 17.6704 95.207 19.0624 95.8517 20.224C96.4963 21.392 97.4001 22.2976 98.5372 22.9184C99.671 23.536 100.989 23.8496 102.463 23.8496C103.73 23.8496 104.896 23.616 105.93 23.1488C106.963 22.6848 107.815 22.032 108.463 21.2096C109.111 20.3872 109.542 19.4368 109.742 18.3776L109.775 18.2112H106.163L106.14 18.3264C105.985 19.1488 105.557 19.8176 104.873 20.3136C104.183 20.8128 103.328 21.0688 102.327 21.0688C101.187 21.0688 100.222 20.7104 99.4539 20.0032C98.7121 19.3216 98.2974 18.2624 98.2229 16.8544H109.749V16.8512ZM99.5057 12.16C100.293 11.4528 101.287 11.0912 102.463 11.0912C103.199 11.0912 103.889 11.2448 104.514 11.5488C105.129 11.8496 105.622 12.32 105.978 12.9472C106.257 13.4368 106.409 14.0288 106.451 14.704H98.2748C98.4302 13.6096 98.8417 12.7584 99.5057 12.16Z" fill="black"/>
  <path d="M123.895 11.4559C123.474 10.6239 122.862 9.92955 122.075 9.38555C121.09 8.70715 119.892 8.36475 118.505 8.36475C117.177 8.36475 115.975 8.67835 114.929 9.29915C113.882 9.91995 113.053 10.8287 112.463 11.9935C111.874 13.1551 111.576 14.5375 111.576 16.0959C111.576 17.6735 111.874 19.0623 112.463 20.2239C113.053 21.3919 113.882 22.2975 114.929 22.9183C115.972 23.5391 117.174 23.8527 118.505 23.8527C119.892 23.8527 121.09 23.5103 122.075 22.8319C122.865 22.2879 123.474 21.5935 123.895 20.7615V23.6671H127.284V8.55354H123.895V11.4559ZM123.312 18.6111C122.927 19.3215 122.396 19.8783 121.728 20.2655C121.064 20.6559 120.3 20.8511 119.457 20.8511C118.123 20.8511 117.044 20.4255 116.25 19.5903C115.453 18.7519 115.049 17.5743 115.049 16.0927C115.049 14.6111 115.453 13.4335 116.25 12.5951C117.044 11.7567 118.126 11.3343 119.457 11.3343C120.3 11.3343 121.064 11.5327 121.728 11.9199C122.392 12.3071 122.924 12.8703 123.312 13.5871C123.698 14.3103 123.895 15.1519 123.895 16.0927C123.895 17.0527 123.701 17.9007 123.312 18.6111Z" fill="black"/>
  <path d="M137.592 5.86239L137.741 5.86879V2.89599L137.608 2.88959C135.434 2.78079 133.779 3.19359 132.684 4.12159C131.583 5.05279 131.025 6.46079 131.025 8.30719V8.55039H128.981V11.4688H131.025V23.664H134.443V11.4688H137.741V8.55039H134.443C134.443 7.53919 134.676 6.81599 135.133 6.40639C135.59 5.99359 136.416 5.80799 137.592 5.86239Z" fill="black"/>
  <path d="M84.8376 4.86084H81.42V8.55044H79.2657V11.44H81.42V23.664H84.8376V11.44H88.0381V8.55044H84.8376V4.86084Z" fill="black"/>
  <path d="M15.5428 20.4192C17.7683 22.6176 20.7875 23.8528 23.933 23.8528V13.2032C23.933 6.02878 18.0437 0.211182 10.7808 0.211182H7.55437H6.69268C6.69268 0.211182 8.23465 0.393582 10.3208 2.45118C10.3241 2.45438 10.3273 2.45758 10.3306 2.45758L19.401 11.4176C19.997 12.0064 20.3307 12.8032 20.3307 13.6384V15.44L8.39014 3.64478C6.16465 1.44638 3.14549 0.211182 0 0.211182V10.8608C0 18.0352 5.8893 23.8528 13.1521 23.8528H16.3786H17.2403C17.2403 23.8528 15.6983 23.6704 13.6121 21.6128C13.6089 21.6096 13.6056 21.6064 13.6024 21.6064L4.53197 12.6464C3.93592 12.0576 3.60225 11.2608 3.60225 10.4256V8.62398L15.5428 20.4192Z" fill="url(#paint0_linear)"/>
  <defs>
    <linearGradient id="paint0_linear" x1="0.037253" y1="0.247214" x2="25.3656" y2="25.8877" gradientUnits="userSpaceOnUse">
      <stop offset="0.0977" stop-color="#DD382F"/>
      <stop offset="1" stop-color="#FFB94C"/>
    </linearGradient>
  </defs>
</svg>
