<svg width="22" height="38" viewBox="0 0 22 38" fill="none" xmlns="http://www.w3.org/2000/svg">
  <path fill-rule="evenodd" clip-rule="evenodd" d="M8.33328 0.794189C5.87868 0.794189 3.88883 2.85773 3.88883 5.40324V24.535C2.22193 25.9194 1.22217 28.0191 1.22217 30.2921C1.22217 34.3649 4.40592 37.6666 8.33328 37.6666C12.2606 37.6666 15.4444 34.3649 15.4444 30.2921C15.4444 28.0191 14.4446 25.9194 12.7777 24.535V5.40324C12.7777 2.85773 10.7879 0.794189 8.33328 0.794189ZM5.28625 25.7521C5.52458 25.5797 5.66661 25.2974 5.66661 24.996V5.40324C5.66661 3.87594 6.86052 2.63781 8.33328 2.63781C9.80604 2.63781 10.9999 3.87594 10.9999 5.40324V24.996C10.9999 25.2974 11.142 25.5797 11.3803 25.7521C12.8026 26.7809 13.6666 28.4603 13.6666 30.2921C13.6666 33.3467 11.2788 35.823 8.33328 35.823C5.38776 35.823 2.99995 33.3467 2.99995 30.2921C2.99995 28.4603 3.86394 26.7809 5.28625 25.7521ZM7.44439 13.3923V26.721C5.91085 27.1304 4.77772 28.574 4.77772 30.2921C4.77772 32.3285 6.3696 33.9794 8.33328 33.9794C10.297 33.9794 11.8888 32.3285 11.8888 30.2921C11.8888 28.574 10.7557 27.1304 9.22217 26.721V13.3923C9.22217 12.8832 8.8242 12.4705 8.33328 12.4705C7.84236 12.4705 7.44439 12.8832 7.44439 13.3923ZM10.1111 30.2921C10.1111 31.3103 9.31512 32.1357 8.33328 32.1357C7.35144 32.1357 6.5555 31.3103 6.5555 30.2921C6.5555 29.2739 7.35144 28.4485 8.33328 28.4485C9.31512 28.4485 10.1111 29.2739 10.1111 30.2921ZM16 4.33327C15.4477 4.33327 15 4.78099 15 5.33327C15 5.88556 15.4477 6.33327 16 6.33327H20.6667C21.219 6.33327 21.6667 5.88556 21.6667 5.33327C21.6667 4.78099 21.219 4.33327 20.6667 4.33327H16ZM15 11.3333C15 10.781 15.4477 10.3333 16 10.3333H18C18.5523 10.3333 19 10.781 19 11.3333C19 11.8856 18.5523 12.3333 18 12.3333H16C15.4477 12.3333 15 11.8856 15 11.3333ZM16 16.3333C15.4477 16.3333 15 16.781 15 17.3333C15 17.8856 15.4477 18.3333 16 18.3333H20.6667C21.219 18.3333 21.6667 17.8856 21.6667 17.3333C21.6667 16.781 21.219 16.3333 20.6667 16.3333H16Z" fill="black"/>
</svg>
