<?xml version="1.0" encoding="utf-8"?>
<svg width="22" height="18" viewBox="0 0 22 18" fill="none" xmlns="http://www.w3.org/2000/svg">
  <path d="M6.9188 18C15.2211 18 19.7613 11.0755 19.7613 5.07125C19.7613 4.87451 19.7573 4.67879 19.7483 4.48382C20.6296 3.84248 21.3957 3.04194 22 2.13107C21.1913 2.4928 20.321 2.73639 19.408 2.84622C20.3398 2.28372 21.0554 1.39351 21.393 0.332508C20.5207 0.853184 19.5549 1.23154 18.527 1.43558C17.703 0.552416 16.53 0 15.2321 0C12.7391 0 10.7176 2.0351 10.7176 4.54352C10.7176 4.90021 10.7574 5.24682 10.8345 5.57958C7.08345 5.3899 3.75704 3.58151 1.53109 0.832277C1.143 1.50359 0.919555 2.28397 0.919555 3.116C0.919555 4.69239 1.7165 6.08413 2.92831 6.89853C2.18791 6.8756 1.49231 6.67056 0.884023 6.32999C0.883023 6.34888 0.883023 6.36803 0.883023 6.38793C0.883023 8.58877 2.43913 10.4261 4.50419 10.8425C4.12511 10.9466 3.72626 11.0025 3.3144 11.0025C3.02365 11.0025 2.7409 10.9733 2.46591 10.9206C3.04041 12.7257 4.70687 14.0396 6.6826 14.0767C5.1375 15.2956 3.19129 16.0218 1.07669 16.0218C0.712623 16.0218 0.353309 16.0009 0 15.9589C1.9975 17.2476 4.36932 18 6.9188 18Z" fill="white"/>
</svg>
