<svg width="96" height="86" viewBox="0 0 96 86" fill="none" xmlns="http://www.w3.org/2000/svg">
<path d="M47.9996 10.4689L85.6496 75.519H10.3496L47.9996 10.4689ZM1.69963 70.519C-2.15037 77.169 2.64963 85.519 10.3496 85.519H85.6496C93.3496 85.519 98.1496 77.169 94.2996 70.519L56.6496 5.46895C52.7996 -1.18105 43.1996 -1.18105 39.3496 5.46895L1.69963 70.519ZM42.9996 35.519V45.519C42.9996 48.269 45.2496 50.519 47.9996 50.519C50.7496 50.519 52.9996 48.269 52.9996 45.519V35.519C52.9996 32.7689 50.7496 30.5189 47.9996 30.5189C45.2496 30.5189 42.9996 32.7689 42.9996 35.519ZM42.9996 60.519H52.9996V70.519H42.9996V60.519Z" fill="#F48E42"/>
</svg>
